<svg width="1440" height="1861" viewBox="0 0 1440 1861" fill="none" xmlns="http://www.w3.org/2000/svg">
<g filter="url(#filter0_f)">
<path d="M1126.84 353.025C1295.08 412.651 1736.97 194.338 1831.92 190.711C1936.63 209.618 2146.04 252.381 2146.04 272.168C2146.04 296.902 1936.63 413.976 1908.23 488.178C1879.84 562.379 2165.56 789.272 2146.04 934.377C2126.52 1079.48 1046.29 1657.05 893.662 1678.49C741.037 1699.92 -54.6012 1040.57 -225.86 998.026C-397.119 955.484 -207.226 594.368 -225.86 566.007C-240.768 543.318 34.7267 306.356 174.337 190.711C491.715 144.65 958.595 293.4 1126.84 353.025Z" fill="url(#paint0_linear)"/>
</g>
<defs>
<filter id="filter0_f" x="-479.75" y="0.25" width="2808.5" height="1860.5" filterUnits="userSpaceOnUse" color-interpolation-filters="sRGB">
<feFlood flood-opacity="0" result="BackgroundImageFix"/>
<feBlend mode="normal" in="SourceGraphic" in2="BackgroundImageFix" result="shape"/>
<feGaussianBlur stdDeviation="90.875" result="effect1_foregroundBlur"/>
</filter>
<linearGradient id="paint0_linear" x1="282.142" y1="436.718" x2="454.628" y2="-108.138" gradientUnits="userSpaceOnUse">
<stop stop-color="#FFF902"/>
<stop offset="1" stop-color="white" stop-opacity="0.0840516"/>
</linearGradient>
</defs>
</svg>
