<svg width="430" height="118" viewBox="0 0 430 118" fill="none" xmlns="http://www.w3.org/2000/svg">
<path d="M28.0002 58.7574H23.1421L20.2962 71.1759L17.0765 58.7574H12.1321L8.91253 71.1759L5.92289 58.5562L0.604778 59.3898L5.83665 78.5925H10.7811L14.2019 65.8003L17.6227 78.5925H22.5959L28.0002 58.7574ZM40.3154 78.5925V69.1637C40.3154 65.5703 38.3894 64.2768 34.5086 64.2768C32.2089 64.2768 30.3979 64.708 28.7881 65.3691L29.3055 68.6462C30.8003 67.9851 32.2664 67.5826 33.8475 67.5826C35.2848 67.5826 35.9747 68.1288 35.9747 69.3649V69.6236C30.4554 70.1123 27.9257 71.6646 27.9257 74.9705C27.9257 77.5289 29.5067 78.88 31.749 78.88C33.675 78.88 35.0261 78.0463 36.1759 76.839L36.4634 78.5925H40.3154ZM35.9747 74.7117C35.1985 75.4017 34.3936 75.7754 33.56 75.7754C32.7551 75.7754 32.2089 75.2867 32.2089 74.3955C32.2089 73.1594 33.0138 72.1821 35.9747 71.7221V74.7117ZM52.2693 68.6462L51.5506 64.2193C49.4809 64.363 48.3022 65.6853 47.4399 67.2951L46.9799 64.5067H43.1854V78.5925H47.5261V70.7735C48.5897 69.6236 50.1708 68.79 52.2693 68.6462ZM74.4315 78.5925V68.5887C74.4315 65.8578 73.0517 64.2193 70.4357 64.2193C68.6822 64.2193 67.3024 65.1679 66.0375 66.4327C65.5201 65.1679 64.4565 64.2193 62.5304 64.2193C60.7194 64.2193 59.4258 65.1391 58.161 66.4327L57.8448 64.5067H54.0215V78.5925H58.3622V69.3074C59.1383 68.56 59.857 68.0713 60.6619 68.0713C61.668 68.0713 62.0417 68.7612 62.0417 69.7673V78.5925H66.3825V69.3074C67.1586 68.56 67.906 68.0713 68.6822 68.0713C69.6883 68.0713 70.062 68.7612 70.062 69.7673V78.5925H74.4315ZM89.5104 71.5209C89.5104 67.4389 87.5844 64.2193 83.2724 64.2193C79.4491 64.2193 76.632 67.0077 76.632 71.6071C76.632 76.6378 79.6503 78.88 83.8761 78.88C86.0896 78.88 87.9581 78.2763 89.4817 77.2989L89.0505 74.2518C87.4982 75.1429 85.9746 75.7179 84.4223 75.7179C82.525 75.7179 81.2027 74.8555 80.9727 72.642H89.4242C89.4817 72.412 89.5104 71.9521 89.5104 71.5209ZM85.3709 70.256H80.9439C81.0877 68.1 81.9501 67.0364 83.1574 67.0364C84.4798 67.0364 85.2272 68.1288 85.3709 70.256ZM104.484 78.5925V57.8375L100.143 58.5274V64.8804C99.3384 64.593 98.4472 64.4205 97.1536 64.4205C94.049 64.4205 91.2031 66.5765 91.2031 71.9521C91.2031 76.6953 93.4166 78.88 96.2912 78.88C98.1023 78.88 99.3959 77.8164 100.344 76.7528L100.632 78.5925H104.484ZM100.143 73.5906C99.3959 74.4243 98.6484 75.028 97.7286 75.028C96.4925 75.028 95.5726 74.0506 95.5726 71.6359C95.5726 68.9337 96.6649 67.8126 98.1023 67.8126C99.0221 67.8126 99.5108 67.9276 100.143 68.215V73.5906ZM125.927 78.5925V64.5067H121.586V73.7919C120.81 74.568 120.034 75.0567 119.2 75.0567C118.165 75.0567 117.734 74.338 117.734 73.3319V64.5067H113.393V74.5393C113.393 77.2702 114.773 78.88 117.389 78.88C119.143 78.88 120.494 77.9314 121.787 76.6665L122.104 78.5925H125.927ZM142.143 71.1759C142.143 66.404 139.987 64.2193 137.084 64.2193C135.273 64.2193 134.008 65.2829 133.03 66.3753L132.743 64.5067H128.92V83.9394L133.26 83.2782V78.2476C134.065 78.5063 134.956 78.7363 136.221 78.7363C139.326 78.7363 142.143 76.5228 142.143 71.1759ZM137.802 71.4634C137.802 74.1943 136.71 75.3154 135.244 75.3154C134.353 75.3154 133.864 75.1717 133.26 74.8842V69.5374C133.979 68.675 134.726 68.1 135.675 68.1C136.911 68.1 137.802 69.1062 137.802 71.4634ZM150.018 58.7574H144.614L146.022 71.7509L148.667 71.1759L150.018 58.7574ZM149.644 78.5925V73.6481H144.959V78.5925H149.644ZM168.126 72.5558V58.7574H163.181V71.7796C163.181 73.9931 162.146 74.7117 160.422 74.7117C159.329 74.7117 158.726 74.568 158.093 74.3955L158.754 78.535C159.272 78.6788 160.364 78.7938 161.485 78.7938C165.28 78.7938 168.126 77.069 168.126 72.5558ZM183.701 78.5925V64.5067H179.36V73.7919C178.584 74.568 177.808 75.0567 176.974 75.0567C175.939 75.0567 175.508 74.338 175.508 73.3319V64.5067H171.167V74.5393C171.167 77.2702 172.547 78.88 175.163 78.88C176.917 78.88 178.268 77.9314 179.561 76.6665L179.877 78.5925H183.701ZM207.104 78.5925V68.5887C207.104 65.8578 205.724 64.2193 203.108 64.2193C201.354 64.2193 199.974 65.1679 198.71 66.4327C198.192 65.1679 197.128 64.2193 195.202 64.2193C193.391 64.2193 192.098 65.1391 190.833 66.4327L190.517 64.5067H186.693V78.5925H191.034V69.3074C191.81 68.56 192.529 68.0713 193.334 68.0713C194.34 68.0713 194.714 68.7612 194.714 69.7673V78.5925H199.054V69.3074C199.831 68.56 200.578 68.0713 201.354 68.0713C202.36 68.0713 202.734 68.7612 202.734 69.7673V78.5925H207.104ZM223.217 71.1759C223.217 66.404 221.061 64.2193 218.158 64.2193C216.347 64.2193 215.082 65.2829 214.105 66.3753L213.817 64.5067H209.994V83.9394L214.335 83.2782V78.2476C215.14 78.5063 216.031 78.7363 217.296 78.7363C220.4 78.7363 223.217 76.5228 223.217 71.1759ZM218.877 71.4634C218.877 74.1943 217.784 75.3154 216.318 75.3154C215.427 75.3154 214.938 75.1717 214.335 74.8842V69.5374C215.053 68.675 215.801 68.1 216.749 68.1C217.985 68.1 218.877 69.1062 218.877 71.4634ZM230.374 60.3385C230.374 58.9011 229.31 57.9813 227.901 57.9813C226.522 57.9813 225.429 58.9011 225.429 60.3385C225.429 61.7471 226.522 62.6669 227.901 62.6669C229.31 62.6669 230.374 61.7471 230.374 60.3385ZM230.086 78.5925V64.5067H225.717V78.5925H230.086ZM245.687 78.5925V68.5887C245.687 65.8578 244.308 64.2193 241.692 64.2193C239.909 64.2193 238.558 65.1966 237.293 66.4327L236.977 64.5067H233.154V78.5925H237.495V69.3361C238.271 68.56 239.047 68.0713 239.881 68.0713C240.916 68.0713 241.318 68.7612 241.318 69.7673V78.5925H245.687ZM251.555 78.3338C252.245 78.4488 252.733 78.535 253.768 78.6213L255.867 78.7938C257.39 78.9662 257.908 79.2537 257.908 79.9149C257.908 80.8348 256.614 81.5822 254.343 81.5822C251.814 81.5822 250.721 80.8923 250.721 79.9149C250.721 79.4262 250.98 78.9087 251.555 78.3338ZM256.154 69.1349C256.154 70.486 255.407 71.4634 254.085 71.4634C252.82 71.4634 252.072 70.5435 252.072 69.2212C252.072 67.8701 252.82 66.8352 254.085 66.8352C255.378 66.8352 256.154 67.8126 256.154 69.1349ZM258.368 65.6278C257.304 64.7942 255.838 64.2768 254.056 64.2768C250.664 64.2768 248.134 66.2028 248.134 69.2787C248.134 71.0897 249.083 72.5558 250.836 73.3607C249.456 74.1368 248.738 74.9992 248.738 75.8904C248.738 76.4365 249.025 77.0115 249.514 77.4427C247.962 78.3051 247.214 79.225 247.214 80.4611C247.214 82.617 250.031 83.8244 253.998 83.8244C258.512 83.8244 261.875 81.8409 261.875 78.765C261.875 76.6378 260.179 75.7466 257.362 75.4592L254.774 75.2867C252.877 75.0567 252.532 74.9417 252.532 74.5393C252.532 74.338 252.647 74.1368 252.877 73.9068C253.308 73.9643 253.74 73.9931 254.2 73.9931C257.39 73.9931 260.035 72.1821 260.035 69.1349C260.035 68.6175 259.949 68.1288 259.776 67.6401C259.805 67.6401 262.249 67.5826 262.249 67.5826L261.702 64.363L258.368 65.6278ZM274.701 60.3385C274.701 58.9011 273.637 57.9813 272.228 57.9813C270.849 57.9813 269.756 58.9011 269.756 60.3385C269.756 61.7471 270.849 62.6669 272.228 62.6669C273.637 62.6669 274.701 61.7471 274.701 60.3385ZM274.413 78.5925V64.5067H270.044V78.5925H274.413ZM290.014 78.5925V68.5887C290.014 65.8578 288.635 64.2193 286.019 64.2193C284.236 64.2193 282.885 65.1966 281.62 66.4327L281.304 64.5067H277.481V78.5925H281.822V69.3361C282.598 68.56 283.374 68.0713 284.208 68.0713C285.242 68.0713 285.645 68.7612 285.645 69.7673V78.5925H290.014ZM301.315 78.5063L300.769 74.9417C300.452 75.028 300.108 75.0855 299.734 75.0855C298.555 75.0855 298.009 74.568 298.009 73.4182V68.0425H301.229L300.682 64.5067H298.009V59.6486L293.697 60.3097V64.5067H291.829V68.0425H293.697V74.1081C293.697 77.7014 295.796 78.7938 298.814 78.7938C299.964 78.7938 300.625 78.7075 301.315 78.5063ZM316.101 71.5496C316.101 67.0364 313.227 64.2193 309.317 64.2193C305.436 64.2193 302.562 67.0652 302.562 71.5784C302.562 76.0916 305.408 78.88 309.288 78.88C313.198 78.88 316.101 76.0628 316.101 71.5496ZM311.904 71.5784C311.904 73.8494 310.985 75.3729 309.317 75.3729C307.679 75.3729 306.759 73.8206 306.759 71.5496C306.759 69.2499 307.65 67.7838 309.317 67.7838C310.985 67.7838 311.904 69.3074 311.904 71.5784ZM337.268 71.5496C337.268 67.0364 334.394 64.2193 330.484 64.2193C326.603 64.2193 323.729 67.0652 323.729 71.5784C323.729 76.0916 326.575 78.88 330.455 78.88C334.365 78.88 337.268 76.0628 337.268 71.5496ZM333.071 71.5784C333.071 73.8494 332.151 75.3729 330.484 75.3729C328.846 75.3729 327.926 73.8206 327.926 71.5496C327.926 69.2499 328.817 67.7838 330.484 67.7838C332.151 67.7838 333.071 69.3074 333.071 71.5784ZM352.025 78.5925V64.5067H347.684V73.7919C346.908 74.568 346.132 75.0567 345.298 75.0567C344.264 75.0567 343.832 74.338 343.832 73.3319V64.5067H339.492V74.5393C339.492 77.2702 340.871 78.88 343.487 78.88C345.241 78.88 346.592 77.9314 347.886 76.6665L348.202 78.5925H352.025ZM364.102 68.6462L363.383 64.2193C361.313 64.363 360.135 65.6853 359.272 67.2951L358.812 64.5067H355.018V78.5925H359.359V70.7735C360.422 69.6236 362.003 68.79 364.102 68.6462ZM10.6373 101.646L9.91866 97.2193C7.84891 97.363 6.6703 98.6853 5.8079 100.295L5.34796 97.5067H1.55341V111.593H5.89414V103.773C6.95776 102.624 8.53882 101.79 10.6373 101.646ZM25.0146 104.55C25.0146 100.036 22.14 97.2193 18.2304 97.2193C14.3497 97.2193 11.475 100.065 11.475 104.578C11.475 109.092 14.3209 111.88 18.2017 111.88C22.1112 111.88 25.0146 109.063 25.0146 104.55ZM20.8176 104.578C20.8176 106.849 19.8977 108.373 18.2304 108.373C16.5919 108.373 15.672 106.821 15.672 104.55C15.672 102.25 16.5631 100.784 18.2304 100.784C19.8977 100.784 20.8176 102.307 20.8176 104.578ZM40.1739 104.55C40.1739 100.036 37.2993 97.2193 33.3898 97.2193C29.509 97.2193 26.6343 100.065 26.6343 104.578C26.6343 109.092 29.4802 111.88 33.361 111.88C37.2705 111.88 40.1739 109.063 40.1739 104.55ZM35.9769 104.578C35.9769 106.849 35.0571 108.373 33.3898 108.373C31.7512 108.373 30.8313 106.821 30.8313 104.55C30.8313 102.25 31.7225 100.784 33.3898 100.784C35.0571 100.784 35.9769 102.307 35.9769 104.578ZM62.8936 111.593V101.589C62.8936 98.8578 61.5138 97.2193 58.8978 97.2193C57.1443 97.2193 55.7644 98.1679 54.4996 99.4327C53.9822 98.1679 52.9185 97.2193 50.9925 97.2193C49.1815 97.2193 47.8879 98.1391 46.623 99.4327L46.3068 97.5067H42.4835V111.593H46.8243V102.307C47.6004 101.56 48.3191 101.071 49.124 101.071C50.1301 101.071 50.5038 101.761 50.5038 102.767V111.593H54.8446V102.307C55.6207 101.56 56.3681 101.071 57.1443 101.071C58.1504 101.071 58.5241 101.761 58.5241 102.767V111.593H62.8936ZM80.8754 101.646L80.1568 97.2193C78.087 97.363 76.9084 98.6853 76.046 100.295L75.5861 97.5067H71.7915V111.593H76.1323V103.773C77.1959 102.624 78.7769 101.79 80.8754 101.646ZM87.3708 93.3385C87.3708 91.9011 86.3072 90.9813 84.8986 90.9813C83.5188 90.9813 82.4264 91.9011 82.4264 93.3385C82.4264 94.7471 83.5188 95.6669 84.8986 95.6669C86.3072 95.6669 87.3708 94.7471 87.3708 93.3385ZM87.0833 111.593V97.5067H82.7139V111.593H87.0833ZM93.112 111.334C93.802 111.449 94.2906 111.535 95.3255 111.621L97.424 111.794C98.9476 111.966 99.465 112.254 99.465 112.915C99.465 113.835 98.1714 114.582 95.9005 114.582C93.3708 114.582 92.2784 113.892 92.2784 112.915C92.2784 112.426 92.5371 111.909 93.112 111.334ZM97.7115 102.135C97.7115 103.486 96.9641 104.463 95.6417 104.463C94.3769 104.463 93.6295 103.543 93.6295 102.221C93.6295 100.87 94.3769 99.8352 95.6417 99.8352C96.9353 99.8352 97.7115 100.813 97.7115 102.135ZM99.925 98.6278C98.8613 97.7942 97.3953 97.2768 95.613 97.2768C92.2209 97.2768 89.6912 99.2028 89.6912 102.279C89.6912 104.09 90.6398 105.556 92.3934 106.361C91.0135 107.137 90.2949 107.999 90.2949 108.89C90.2949 109.437 90.5823 110.011 91.071 110.443C89.5187 111.305 88.7713 112.225 88.7713 113.461C88.7713 115.617 91.5885 116.824 95.5555 116.824C100.069 116.824 103.432 114.841 103.432 111.765C103.432 109.638 101.736 108.747 98.9188 108.459L96.3317 108.287C94.4344 108.057 94.0894 107.942 94.0894 107.539C94.0894 107.338 94.2044 107.137 94.4344 106.907C94.8656 106.964 95.2968 106.993 95.7567 106.993C98.9476 106.993 101.592 105.182 101.592 102.135C101.592 101.617 101.506 101.129 101.334 100.64C101.362 100.64 103.806 100.583 103.806 100.583L103.26 97.363L99.925 98.6278ZM118.04 111.593V101.589C118.04 98.8578 116.661 97.2193 114.045 97.2193C112.32 97.2193 111.026 98.1104 109.848 99.2603V90.8375L105.507 91.5274V111.593H109.848V102.336C110.624 101.56 111.4 101.071 112.234 101.071C113.269 101.071 113.671 101.761 113.671 102.767V111.593H118.04ZM129.341 111.506L128.795 107.942C128.479 108.028 128.134 108.085 127.76 108.085C126.581 108.085 126.035 107.568 126.035 106.418V101.043H129.255L128.709 97.5067H126.035V92.6486L121.723 93.3097V97.5067H119.855V101.043H121.723V107.108C121.723 110.701 123.822 111.794 126.84 111.794C127.99 111.794 128.651 111.708 129.341 111.506ZM149.931 111.593V101.589C149.931 98.8578 148.551 97.2193 145.935 97.2193C144.153 97.2193 142.802 98.1966 141.537 99.4327L141.221 97.5067H137.398V111.593H141.738V102.336C142.515 101.56 143.291 101.071 144.124 101.071C145.159 101.071 145.562 101.761 145.562 102.767V111.593H149.931ZM165.687 104.55C165.687 100.036 162.813 97.2193 158.903 97.2193C155.022 97.2193 152.148 100.065 152.148 104.578C152.148 109.092 154.994 111.88 158.874 111.88C162.784 111.88 165.687 109.063 165.687 104.55ZM161.49 104.578C161.49 106.849 160.571 108.373 158.903 108.373C157.265 108.373 156.345 106.821 156.345 104.55C156.345 102.25 157.236 100.784 158.903 100.784C160.571 100.784 161.49 102.307 161.49 104.578ZM186.691 97.5067H182.666L180.798 105.699L178.786 97.5067H174.876L172.893 105.728L170.967 97.3055L166.482 97.8517L170.334 111.593H174.502L176.543 103.543L178.613 111.593H182.753L186.691 97.5067ZM193.924 91.7574H188.52L189.928 104.751L192.573 104.176L193.924 91.7574ZM193.55 111.593V106.648H188.865V111.593H193.55Z" fill="white"/>
<path d="M14.0007 27.7332V13.6474H9.65994V22.9325C8.88378 23.7086 8.10762 24.1973 7.27398 24.1973C6.2391 24.1973 5.8079 23.4787 5.8079 22.4725V13.6474H1.46717V23.6799C1.46717 26.4108 2.84701 28.0206 5.46294 28.0206C7.21648 28.0206 8.56757 27.072 9.86116 25.8071L10.1774 27.7332H14.0007ZM30.1594 20.3165C30.1594 15.5446 27.9746 13.3599 25.1 13.3599C23.4327 13.3599 22.2253 14.2798 21.3342 15.1997V6.97815L16.9934 7.66807V26.8995C18.632 27.5319 20.7592 27.9056 23.0302 27.9056C27.3709 27.9056 30.1594 25.5484 30.1594 20.3165ZM25.8186 20.604C25.8186 23.3924 24.6113 24.4273 22.9152 24.4273C22.2541 24.4273 21.9091 24.3411 21.3342 24.1686V18.5918C22.0528 17.7869 22.8002 17.2407 23.7201 17.2407C24.9562 17.2407 25.8186 18.2468 25.8186 20.604ZM44.7343 20.6615C44.7343 16.5795 42.8083 13.3599 38.4963 13.3599C34.673 13.3599 31.8559 16.1483 31.8559 20.7477C31.8559 25.7784 34.8742 28.0206 39.1 28.0206C41.3135 28.0206 43.182 27.4169 44.7056 26.4396L44.2744 23.3924C42.722 24.2836 41.1985 24.8585 39.6462 24.8585C37.7489 24.8585 36.4266 23.9961 36.1966 21.7826H44.6481C44.7056 21.5526 44.7343 21.0927 44.7343 20.6615ZM40.5948 19.3967H36.1678C36.3116 17.2407 37.174 16.177 38.3813 16.177C39.7037 16.177 40.4511 17.2694 40.5948 19.3967ZM56.1433 17.7869L55.4246 13.3599C53.3549 13.5036 52.1763 14.826 51.3139 16.4358L50.854 13.6474H47.0594V27.7332H51.4001V19.9141C52.4638 18.7642 54.0448 17.9306 56.1433 17.7869ZM71.0614 20.3165C71.0614 15.5446 68.8767 13.3599 66.002 13.3599C64.3347 13.3599 63.1274 14.2798 62.2362 15.1997V6.97815L57.8955 7.66807V26.8995C59.5341 27.5319 61.6613 27.9056 63.9323 27.9056C68.273 27.9056 71.0614 25.5484 71.0614 20.3165ZM66.7207 20.604C66.7207 23.3924 65.5133 24.4273 63.8173 24.4273C63.1561 24.4273 62.8112 24.3411 62.2362 24.1686V18.5918C62.9549 17.7869 63.7023 17.2407 64.6222 17.2407C65.8583 17.2407 66.7207 18.2468 66.7207 20.604ZM86.2975 20.6903C86.2975 16.177 83.4229 13.3599 79.5134 13.3599C75.6326 13.3599 72.7579 16.2058 72.7579 20.719C72.7579 25.2322 75.6038 28.0206 79.4846 28.0206C83.3941 28.0206 86.2975 25.2035 86.2975 20.6903ZM82.1005 20.719C82.1005 22.99 81.1806 24.5135 79.5134 24.5135C77.8748 24.5135 76.9549 22.9612 76.9549 20.6903C76.9549 18.3905 77.8461 16.9245 79.5134 16.9245C81.1806 16.9245 82.1005 18.448 82.1005 20.719ZM101.457 20.6903C101.457 16.177 98.5822 13.3599 94.6727 13.3599C90.7919 13.3599 87.9172 16.2058 87.9172 20.719C87.9172 25.2322 90.7631 28.0206 94.6439 28.0206C98.5534 28.0206 101.457 25.2035 101.457 20.6903ZM97.2598 20.719C97.2598 22.99 96.34 24.5135 94.6727 24.5135C93.0341 24.5135 92.1142 22.9612 92.1142 20.6903C92.1142 18.3905 93.0054 16.9245 94.6727 16.9245C96.34 16.9245 97.2598 18.448 97.2598 20.719ZM124.176 27.7332V17.7294C124.176 14.9984 122.797 13.3599 120.181 13.3599C118.427 13.3599 117.047 14.3085 115.783 15.5734C115.265 14.3085 114.201 13.3599 112.275 13.3599C110.464 13.3599 109.171 14.2798 107.906 15.5734L107.59 13.6474H103.766V27.7332H108.107V18.448C108.883 17.7006 109.602 17.2119 110.407 17.2119C111.413 17.2119 111.787 17.9018 111.787 18.908V27.7332H116.127V18.448C116.904 17.7006 117.651 17.2119 118.427 17.2119C119.433 17.2119 119.807 17.9018 119.807 18.908V27.7332H124.176ZM139.255 20.6615C139.255 16.5795 137.329 13.3599 133.017 13.3599C129.194 13.3599 126.377 16.1483 126.377 20.7477C126.377 25.7784 129.395 28.0206 133.621 28.0206C135.835 28.0206 137.703 27.4169 139.227 26.4396L138.795 23.3924C137.243 24.2836 135.72 24.8585 134.167 24.8585C132.27 24.8585 130.948 23.9961 130.718 21.7826H139.169C139.227 21.5526 139.255 21.0927 139.255 20.6615ZM135.116 19.3967H130.689C130.833 17.2407 131.695 16.177 132.902 16.177C134.225 16.177 134.972 17.2694 135.116 19.3967ZM150.664 17.7869L149.946 13.3599C147.876 13.5036 146.697 14.826 145.835 16.4358L145.375 13.6474H141.58V27.7332H145.921V19.9141C146.985 18.7642 148.566 17.9306 150.664 17.7869Z" fill="#FF99BD"/>
<g opacity="0.6">
<path d="M184.289 16.5178L183.962 14.5487H174.746V16.5178H178.271V26.3633H180.558V16.5178H184.289Z" fill="white"/>
<path d="M190.588 22.2367C190.588 19.5485 188.937 17.9218 186.668 17.9218C184.416 17.9218 182.765 19.5485 182.765 22.2367C182.765 24.925 184.398 26.5345 186.651 26.5345C188.92 26.5345 190.588 24.925 190.588 22.2367ZM188.576 22.2367C188.576 23.7778 187.923 24.8565 186.651 24.8565C185.447 24.8565 184.777 23.7435 184.777 22.2367C184.777 20.6957 185.43 19.617 186.651 19.617C187.889 19.617 188.576 20.7128 188.576 22.2367Z" fill="white"/>
<path d="M199.036 26.3633V14.0007L196.973 14.3261V18.3156C196.474 18.1444 195.838 18.0074 195.047 18.0074C193.122 18.0074 191.419 19.3773 191.419 22.4593C191.419 25.2503 192.812 26.5345 194.549 26.5345C195.701 26.5345 196.509 25.9181 197.093 25.2161L197.265 26.3633H199.036ZM196.973 23.5723C196.423 24.2572 195.838 24.7024 195.082 24.7024C194.17 24.7024 193.483 23.949 193.483 22.3395C193.483 20.5245 194.274 19.6512 195.357 19.6512C196.062 19.6512 196.457 19.7711 196.973 20.0108V23.5723Z" fill="white"/>
<path d="M207.307 26.3633V20.6957C207.307 18.7095 206.241 17.9218 204.091 17.9218C202.768 17.9218 201.753 18.2129 200.79 18.5896L201.048 20.2334C201.942 19.8396 202.854 19.5656 203.816 19.5656C204.728 19.5656 205.243 19.9081 205.243 20.7984V21.0382C201.891 21.3635 200.24 22.2367 200.24 24.2401C200.24 25.6784 201.186 26.5345 202.596 26.5345C203.834 26.5345 204.693 25.9866 205.364 25.2846L205.536 26.3633H207.307ZM205.243 24.086C204.676 24.651 204.006 24.9764 203.301 24.9764C202.664 24.9764 202.286 24.6168 202.286 24.0175C202.286 23.2299 202.854 22.5278 205.243 22.2367V24.086Z" fill="white"/>
<path d="M215.992 18.0931H213.946L212.089 23.8634L210.163 17.9732L208.014 18.2472L211.023 26.3976L210.834 26.9455C210.576 27.5448 210.095 27.8187 209.493 27.8187C209.097 27.8187 208.805 27.7674 208.53 27.6989L208.805 29.394C208.994 29.4454 209.2 29.4796 209.562 29.4796C211.161 29.4796 212.106 28.8461 212.846 26.8085L215.992 18.0931Z" fill="white"/>
<path d="M226.72 26.3633V20.6957C226.72 18.7095 225.654 17.9218 223.505 17.9218C222.181 17.9218 221.167 18.2129 220.204 18.5896L220.462 20.2334C221.356 19.8396 222.267 19.5656 223.23 19.5656C224.141 19.5656 224.657 19.9081 224.657 20.7984V21.0382C221.304 21.3635 219.654 22.2367 219.654 24.2401C219.654 25.6784 220.599 26.5345 222.009 26.5345C223.247 26.5345 224.107 25.9866 224.777 25.2846L224.949 26.3633H226.72ZM224.657 24.086C224.09 24.651 223.419 24.9764 222.714 24.9764C222.078 24.9764 221.7 24.6168 221.7 24.0175C221.7 23.2299 222.267 22.5278 224.657 22.2367V24.086Z" fill="white"/>
<path d="M232.806 26.3633L232.548 24.6339C232.359 24.6853 232.135 24.7024 231.895 24.7024C231.104 24.7024 230.794 24.3428 230.794 23.675V19.7711H232.754L232.496 18.0931H230.794V15.1651L228.765 15.4733V18.0931H227.596V19.7711H228.765V24.0175C228.765 25.901 229.866 26.5003 231.499 26.5003C232.101 26.5003 232.479 26.4318 232.806 26.3633Z" fill="white"/>
<path d="M242.976 21.295C242.391 23.2812 240.568 24.3086 238.247 24.7709L238.522 26.603C242.408 25.8325 245.176 23.5381 245.176 19.4629C245.176 16.2609 243.388 14.5658 240.844 14.5658C238.471 14.5658 236.7 16.1582 236.7 18.5554C236.7 20.9012 238.093 22.1511 240.19 22.1511C241.239 22.1511 242.15 21.8258 242.976 21.295ZM243.148 19.6512C242.425 20.182 241.669 20.4731 240.826 20.4731C239.451 20.4731 238.797 19.754 238.797 18.4355C238.797 17.0657 239.623 16.278 240.826 16.278C242.202 16.278 243.148 17.4424 243.148 19.5827V19.6512Z" fill="white"/>
<path d="M248.775 20.5587V18.0931H246.523V20.5587H248.775ZM248.775 26.3633V23.8805H246.523V26.3633H248.775Z" fill="white"/>
<path d="M254.552 26.3633V14.7713H252.609L249.737 16.0897L249.978 17.8191L252.351 16.9116V26.3633H254.552Z" fill="white"/>
<path d="M262.389 21.295C261.805 23.2812 259.982 24.3086 257.661 24.7709L257.936 26.603C261.822 25.8325 264.59 23.5381 264.59 19.4629C264.59 16.2609 262.802 14.5658 260.257 14.5658C257.884 14.5658 256.113 16.1582 256.113 18.5554C256.113 20.9012 257.506 22.1511 259.604 22.1511C260.653 22.1511 261.564 21.8258 262.389 21.295ZM262.561 19.6512C261.839 20.182 261.082 20.4731 260.24 20.4731C258.864 20.4731 258.211 19.754 258.211 18.4355C258.211 17.0657 259.036 16.278 260.24 16.278C261.616 16.278 262.561 17.4424 262.561 19.5827V19.6512Z" fill="white"/>
<path d="M279.741 26.0722L275.391 14.4973H272.967L268.513 26.3633H270.766L271.849 23.3668H276.337L277.471 26.4832L279.741 26.0722ZM275.7 21.5176H272.468L274.084 16.963L275.7 21.5176Z" fill="white"/>
<path d="M294.155 26.3633L293.244 14.5487H290.407L287.415 23.4696L284.406 14.5487H281.517L280.606 26.3633H282.652L283.254 17.7335L286.263 26.3976H288.257L291.249 17.7335L291.885 26.3633H294.155Z" fill="white"/>
</g>
</svg>
