<svg width="233" height="85" viewBox="0 0 233 85" fill="none" xmlns="http://www.w3.org/2000/svg">
<path d="M15.3977 72.0363C15.3977 68.8742 13.6729 67.3794 9.36095 65.7983C6.88875 64.8497 6.34256 64.361 6.34256 63.3549C6.34256 62.435 7.06122 61.8026 8.55605 61.8026C10.0796 61.8026 11.9481 62.3775 13.7304 63.4124L14.4778 59.2729C12.753 58.4392 11.0857 57.9505 8.49855 57.9505C4.70401 57.9505 1.71437 59.9915 1.71437 63.8148C1.71437 67.0919 3.43916 68.3855 7.40618 69.9091C10.1946 70.9727 10.7695 71.4902 10.7695 72.6113C10.7695 73.7899 9.79215 74.3936 8.38357 74.3936C6.40005 74.3936 4.12908 73.6462 2.08807 72.5538L1.36941 76.7508C3.38167 77.6707 5.6239 78.2456 8.29733 78.2456C12.2356 78.2456 15.3977 76.3483 15.3977 72.0363ZM29.4471 78.0156V68.5868C29.4471 64.9934 27.5211 63.6998 23.6403 63.6998C21.3406 63.6998 19.5296 64.131 17.9198 64.7922L18.4372 68.0693C19.932 67.4082 21.3981 67.0057 22.9792 67.0057C24.4165 67.0057 25.1064 67.5519 25.1064 68.788V69.0467C19.5871 69.5354 17.0574 71.0877 17.0574 74.3936C17.0574 76.952 18.6384 78.3031 20.8807 78.3031C22.8067 78.3031 24.1578 77.4694 25.3076 76.2621L25.5951 78.0156H29.4471ZM25.1064 74.1348C24.3303 74.8248 23.5254 75.1985 22.6917 75.1985C21.8868 75.1985 21.3406 74.7098 21.3406 73.8186C21.3406 72.5825 22.1455 71.6051 25.1064 71.1452V74.1348ZM44.9723 63.9298H40.7753L38.1881 72.6113L35.4572 63.7286L30.8003 64.2748L35.9171 78.0444L35.7447 78.4756C35.2847 79.453 34.4223 79.8267 33.4449 79.8267C32.6113 79.8267 32.1801 79.7404 31.7201 79.5967L32.2663 83.075C32.6688 83.1613 33.0425 83.2475 33.9049 83.2475C36.9808 83.2475 38.7055 81.9826 39.9704 78.3031L44.9723 63.9298ZM65.2314 78.0156V68.0118C65.2314 65.2809 63.8516 63.6424 61.2356 63.6424C59.4534 63.6424 58.1023 64.6197 56.8374 65.8558L56.5212 63.9298H52.6979V78.0156H57.0387V68.7592C57.8148 67.9831 58.591 67.4944 59.4246 67.4944C60.4595 67.4944 60.8619 68.1843 60.8619 69.1904V78.0156H65.2314ZM80.9877 70.9727C80.9877 66.4595 78.113 63.6424 74.2035 63.6424C70.3227 63.6424 67.448 66.4883 67.448 71.0015C67.448 75.5147 70.294 78.3031 74.1747 78.3031C78.0843 78.3031 80.9877 75.4859 80.9877 70.9727ZM76.7907 71.0015C76.7907 73.2724 75.8708 74.796 74.2035 74.796C72.5649 74.796 71.645 73.2437 71.645 70.9727C71.645 68.673 72.5362 67.2069 74.2035 67.2069C75.8708 67.2069 76.7907 68.7305 76.7907 71.0015ZM109.715 78.0156V68.0118C109.715 65.2809 108.335 63.6424 105.719 63.6424C103.966 63.6424 102.586 64.591 101.321 65.8558C100.803 64.591 99.7398 63.6424 97.8138 63.6424C96.0028 63.6424 94.7092 64.5622 93.4443 65.8558L93.1281 63.9298H89.3048V78.0156H93.6456V68.7305C94.4217 67.9831 95.1404 67.4944 95.9453 67.4944C96.9514 67.4944 97.3251 68.1843 97.3251 69.1904V78.0156H101.666V68.7305C102.442 67.9831 103.189 67.4944 103.966 67.4944C104.972 67.4944 105.345 68.1843 105.345 69.1904V78.0156H109.715ZM125.455 70.9727C125.455 66.4595 122.58 63.6424 118.671 63.6424C114.79 63.6424 111.915 66.4883 111.915 71.0015C111.915 75.5147 114.761 78.3031 118.642 78.3031C122.552 78.3031 125.455 75.4859 125.455 70.9727ZM121.258 71.0015C121.258 73.2724 120.338 74.796 118.671 74.796C117.032 74.796 116.112 73.2437 116.112 70.9727C116.112 68.673 117.003 67.2069 118.671 67.2069C120.338 67.2069 121.258 68.7305 121.258 71.0015ZM136.848 68.0693L136.13 63.6424C134.06 63.7861 132.881 65.1084 132.019 66.7182L131.559 63.9298H127.765V78.0156H132.105V70.1966C133.169 69.0467 134.75 68.2131 136.848 68.0693ZM150.565 70.944C150.565 66.862 148.639 63.6424 144.327 63.6424C140.503 63.6424 137.686 66.4308 137.686 71.0302C137.686 76.0609 140.705 78.3031 144.93 78.3031C147.144 78.3031 149.012 77.6994 150.536 76.722L150.105 73.6749C148.552 74.566 147.029 75.141 145.476 75.141C143.579 75.141 142.257 74.2786 142.027 72.0651H150.478C150.536 71.8351 150.565 71.3752 150.565 70.944ZM146.425 69.6791H141.998C142.142 67.5231 143.004 66.4595 144.212 66.4595C145.534 66.4595 146.281 67.5519 146.425 69.6791ZM158.352 58.1805H152.947L154.356 71.1739L157 70.599L158.352 58.1805ZM157.978 78.0156V73.0712H153.292V78.0156H157.978Z" fill="white"/>
<path d="M15.024 19.7396C15.024 14.9677 12.8393 12.783 9.96463 12.783C8.29733 12.783 7.08997 13.7029 6.19883 14.6228V6.40125L1.8581 7.09117V26.3226C3.49665 26.955 5.6239 27.3287 7.89487 27.3287C12.2356 27.3287 15.024 24.9715 15.024 19.7396ZM10.6833 20.0271C10.6833 22.8155 9.47593 23.8504 7.77989 23.8504C7.11872 23.8504 6.77376 23.7642 6.19883 23.5917V18.0149C6.91749 17.2099 7.6649 16.6638 8.58479 16.6638C9.82089 16.6638 10.6833 17.6699 10.6833 20.0271ZM29.599 20.0846C29.599 16.0026 27.6729 12.783 23.361 12.783C19.5377 12.783 16.7205 15.5714 16.7205 20.1708C16.7205 25.2015 19.7389 27.4437 23.9646 27.4437C26.1781 27.4437 28.0466 26.84 29.5702 25.8627L29.139 22.8155C27.5867 23.7067 26.0631 24.2816 24.5108 24.2816C22.6136 24.2816 21.2912 23.4192 21.0612 21.2057H29.5127C29.5702 20.9757 29.599 20.5158 29.599 20.0846ZM25.4595 18.8198H21.0325C21.1762 16.6638 22.0386 15.6001 23.246 15.6001C24.5683 15.6001 25.3157 16.6925 25.4595 18.8198ZM44.86 26.7251L40.2606 19.4809L44.6875 13.0704H40.0306L36.2648 18.8485V6.40125L31.9241 7.09117V27.1562H36.2648V20.602L40.3468 27.3575L44.86 26.7251ZM58.7259 20.1133C58.7259 15.6001 55.8513 12.783 51.9418 12.783C48.061 12.783 45.1863 15.6289 45.1863 20.1421C45.1863 24.6553 48.0322 27.4437 51.913 27.4437C55.8225 27.4437 58.7259 24.6266 58.7259 20.1133ZM54.5289 20.1421C54.5289 22.4131 53.6091 23.9366 51.9418 23.9366C50.3032 23.9366 49.3833 22.3843 49.3833 20.1133C49.3833 17.8136 50.2745 16.3476 51.9418 16.3476C53.6091 16.3476 54.5289 17.8711 54.5289 20.1421ZM73.569 27.1562V17.1525C73.569 14.4215 72.1892 12.783 69.5733 12.783C67.791 12.783 66.4399 13.7604 65.175 14.9965L64.8588 13.0704H61.0355V27.1562H65.3763V17.8999C66.1524 17.1237 66.9286 16.635 67.7622 16.635C68.7971 16.635 69.1996 17.3249 69.1996 18.3311V27.1562H73.569ZM88.8078 26.8113L84.4959 19.6821L88.5779 13.0704H84.4671L82.3111 16.865L80.1264 12.8692L75.6132 13.4154L79.6952 20.1996L75.412 27.1562H79.5515L81.8799 23.0167L84.2946 27.3575L88.8078 26.8113Z" fill="#A5F5FF"/>
<g opacity="0.6">
<path d="M118.257 13.7297L117.931 11.7606H108.715V13.7297H112.24V23.5752H114.526V13.7297H118.257Z" fill="white"/>
<path d="M124.557 19.4487C124.557 16.7604 122.906 15.1337 120.637 15.1337C118.384 15.1337 116.734 16.7604 116.734 19.4487C116.734 22.1369 118.367 23.7465 120.619 23.7465C122.889 23.7465 124.557 22.1369 124.557 19.4487ZM122.545 19.4487C122.545 20.9897 121.892 22.0684 120.619 22.0684C119.416 22.0684 118.745 20.9555 118.745 19.4487C118.745 17.9076 119.399 16.8289 120.619 16.8289C121.857 16.8289 122.545 17.9247 122.545 19.4487Z" fill="white"/>
<path d="M133.005 23.5752V11.2126L130.942 11.538V15.5276C130.443 15.3563 129.807 15.2194 129.016 15.2194C127.09 15.2194 125.388 16.5892 125.388 19.6713C125.388 22.4623 126.781 23.7465 128.517 23.7465C129.669 23.7465 130.477 23.13 131.062 22.428L131.234 23.5752H133.005ZM130.942 20.7842C130.391 21.4691 129.807 21.9143 129.05 21.9143C128.139 21.9143 127.451 21.1609 127.451 19.5514C127.451 17.7364 128.242 16.8631 129.325 16.8631C130.03 16.8631 130.426 16.983 130.942 17.2227V20.7842Z" fill="white"/>
<path d="M141.275 23.5752V17.9076C141.275 15.9214 140.209 15.1337 138.06 15.1337C136.736 15.1337 135.722 15.4248 134.759 15.8015L135.017 17.4453C135.911 17.0515 136.822 16.7775 137.785 16.7775C138.696 16.7775 139.212 17.12 139.212 18.0104V18.2501C135.859 18.5754 134.209 19.4487 134.209 21.452C134.209 22.8903 135.154 23.7465 136.564 23.7465C137.802 23.7465 138.662 23.1985 139.333 22.4965L139.505 23.5752H141.275ZM139.212 21.2979C138.645 21.863 137.974 22.1883 137.269 22.1883C136.633 22.1883 136.255 21.8287 136.255 21.2294C136.255 20.4418 136.822 19.7397 139.212 19.4487V21.2979Z" fill="white"/>
<path d="M149.961 15.305H147.915L146.058 21.0753L144.132 15.1851L141.983 15.4591L144.992 23.6095L144.803 24.1574C144.545 24.7567 144.063 25.0307 143.462 25.0307C143.066 25.0307 142.774 24.9793 142.499 24.9108L142.774 26.6059C142.963 26.6573 143.169 26.6916 143.53 26.6916C145.129 26.6916 146.075 26.058 146.814 24.0204L149.961 15.305Z" fill="white"/>
<path d="M160.689 23.5752V17.9076C160.689 15.9214 159.623 15.1337 157.474 15.1337C156.15 15.1337 155.136 15.4248 154.173 15.8015L154.431 17.4453C155.325 17.0515 156.236 16.7775 157.199 16.7775C158.11 16.7775 158.626 17.12 158.626 18.0104V18.2501C155.273 18.5754 153.622 19.4487 153.622 21.452C153.622 22.8903 154.568 23.7465 155.978 23.7465C157.216 23.7465 158.076 23.1985 158.746 22.4965L158.918 23.5752H160.689ZM158.626 21.2979C158.058 21.863 157.388 22.1883 156.683 22.1883C156.047 22.1883 155.669 21.8287 155.669 21.2294C155.669 20.4418 156.236 19.7397 158.626 19.4487V21.2979Z" fill="white"/>
<path d="M166.775 23.5752L166.517 21.8458C166.328 21.8972 166.104 21.9143 165.863 21.9143C165.072 21.9143 164.763 21.5547 164.763 20.887V16.983H166.723L166.465 15.305H164.763V12.377L162.734 12.6852V15.305H161.565V16.983H162.734V21.2294C162.734 23.1129 163.834 23.7122 165.468 23.7122C166.07 23.7122 166.448 23.6437 166.775 23.5752Z" fill="white"/>
<path d="M176.944 18.5069C176.36 20.4931 174.537 21.5205 172.216 21.9828L172.491 23.8149C176.377 23.0444 179.145 20.75 179.145 16.6748C179.145 13.4728 177.357 11.7777 174.812 11.7777C172.44 11.7777 170.669 13.3701 170.669 15.7673C170.669 18.1131 172.061 19.363 174.159 19.363C175.208 19.363 176.119 19.0377 176.944 18.5069ZM177.116 16.8631C176.394 17.3939 175.638 17.685 174.795 17.685C173.42 17.685 172.766 16.9659 172.766 15.6474C172.766 14.2776 173.592 13.49 174.795 13.49C176.171 13.49 177.116 14.6543 177.116 16.7946V16.8631Z" fill="white"/>
<path d="M182.744 17.7706V15.305H180.492V17.7706H182.744ZM182.744 23.5752V21.0924H180.492V23.5752H182.744Z" fill="white"/>
<path d="M188.52 23.5752V11.9832H186.577L183.706 13.3016L183.947 15.031L186.32 14.1235V23.5752H188.52Z" fill="white"/>
<path d="M196.358 18.5069C195.773 20.4931 193.951 21.5205 191.63 21.9828L191.905 23.8149C195.791 23.0444 198.559 20.75 198.559 16.6748C198.559 13.4728 196.771 11.7777 194.226 11.7777C191.853 11.7777 190.082 13.3701 190.082 15.7673C190.082 18.1131 191.475 19.363 193.573 19.363C194.621 19.363 195.533 19.0377 196.358 18.5069ZM196.53 16.8631C195.808 17.3939 195.051 17.685 194.209 17.685C192.833 17.685 192.18 16.9659 192.18 15.6474C192.18 14.2776 193.005 13.49 194.209 13.49C195.584 13.49 196.53 14.6543 196.53 16.7946V16.8631Z" fill="white"/>
<path d="M213.71 23.2841L209.36 11.7092H206.935L202.482 23.5752H204.734L205.818 20.5788H210.305L211.44 23.6951L213.71 23.2841ZM209.669 18.7295H206.437L208.053 14.1749L209.669 18.7295Z" fill="white"/>
<path d="M228.124 23.5752L227.212 11.7606H224.375L221.384 20.6815L218.375 11.7606H215.486L214.575 23.5752H216.621L217.223 14.9454L220.232 23.6095H222.226L225.218 14.9454L225.854 23.5752H228.124Z" fill="white"/>
</g>
</svg>
