<svg width="438" height="118" viewBox="0 0 438 118" fill="none" xmlns="http://www.w3.org/2000/svg">
<path d="M14.1963 27.3105V17.3068C14.1963 14.5758 12.8164 12.9373 10.2005 12.9373C8.41823 12.9373 7.06714 13.9147 5.80229 15.1508L5.48608 13.2247H1.66279V27.3105H6.00352V18.0542C6.77967 17.278 7.55583 16.7893 8.38948 16.7893C9.42435 16.7893 9.82681 17.4792 9.82681 18.4854V27.3105H14.1963ZM29.2914 20.2389C29.2914 16.1569 27.3653 12.9373 23.0534 12.9373C19.2301 12.9373 16.4129 15.7257 16.4129 20.3251C16.4129 25.3558 19.4313 27.598 23.657 27.598C25.8705 27.598 27.739 26.9943 29.2626 26.017L28.8314 22.9698C27.2791 23.861 25.7555 24.4359 24.2032 24.4359C22.3059 24.4359 20.9836 23.5735 20.7536 21.36H29.2051C29.2626 21.13 29.2914 20.6701 29.2914 20.2389ZM25.1519 18.9741H20.7249C20.8686 16.8181 21.731 15.7544 22.9384 15.7544C24.2607 15.7544 25.0081 16.8468 25.1519 18.9741ZM50.3947 13.2247H46.3702L44.5016 21.4175L42.4894 13.2247H38.5799L36.5963 21.4463L34.6703 13.0235L30.1859 13.5697L34.0379 27.3105H38.2062L40.2472 19.2615L42.3169 27.3105H46.4564L50.3947 13.2247ZM63.7793 30.3002V28.2879H50.6134V30.3002H63.7793ZM84.2785 13.2247H80.254L78.3855 21.4175L76.3732 13.2247H72.4637L70.4802 21.4463L68.5542 13.0235L64.0697 13.5697L67.9218 27.3105H72.09L74.131 19.2615L76.2008 27.3105H80.3403L84.2785 13.2247ZM97.4126 27.3105V17.8817C97.4126 14.2884 95.4865 12.9948 91.6058 12.9948C89.306 12.9948 87.495 13.426 85.8852 14.0871L86.4026 17.3642C87.8975 16.7031 89.3635 16.3006 90.9446 16.3006C92.3819 16.3006 93.0718 16.8468 93.0718 18.0829V18.3416C87.5525 18.8303 85.0228 20.3826 85.0228 23.6885C85.0228 26.2469 86.6039 27.598 88.8461 27.598C90.7721 27.598 92.1232 26.7644 93.2731 25.557L93.5605 27.3105H97.4126ZM93.0718 23.4298C92.2957 24.1197 91.4908 24.4934 90.6571 24.4934C89.8522 24.4934 89.306 24.0047 89.306 23.1136C89.306 21.8775 90.1109 20.9001 93.0718 20.4401V23.4298ZM109.366 17.3642L108.648 12.9373C106.578 13.081 105.399 14.4034 104.537 16.0132L104.077 13.2247H100.283V27.3105H104.623V19.4915C105.687 18.3416 107.268 17.508 109.366 17.3642ZM120.203 17.3642L119.484 12.9373C117.414 13.081 116.235 14.4034 115.373 16.0132L114.913 13.2247H111.119V27.3105H115.459V19.4915C116.523 18.3416 118.104 17.508 120.203 17.3642ZM126.698 9.05649C126.698 7.61917 125.634 6.69928 124.226 6.69928C122.846 6.69928 121.753 7.61917 121.753 9.05649C121.753 10.4651 122.846 11.385 124.226 11.385C125.634 11.385 126.698 10.4651 126.698 9.05649ZM126.41 27.3105V13.2247H122.041V27.3105H126.41ZM142.328 20.2676C142.328 15.7544 139.453 12.9373 135.544 12.9373C131.663 12.9373 128.788 15.7832 128.788 20.2964C128.788 24.8096 131.634 27.598 135.515 27.598C139.425 27.598 142.328 24.7809 142.328 20.2676ZM138.131 20.2964C138.131 22.5674 137.211 24.0909 135.544 24.0909C133.905 24.0909 132.985 22.5386 132.985 20.2676C132.985 17.9679 133.876 16.5018 135.544 16.5018C137.211 16.5018 138.131 18.0254 138.131 20.2964ZM153.721 17.3642L153.003 12.9373C150.933 13.081 149.754 14.4034 148.892 16.0132L148.432 13.2247H144.638V27.3105H148.978V19.4915C150.042 18.3416 151.623 17.508 153.721 17.3642Z" fill="#FCED35"/>
<g opacity="0.6">
<path d="M186.613 16.0952L186.286 14.1261H177.07V16.0952H180.595V25.9407H182.882V16.0952H186.613Z" fill="white"/>
<path d="M192.912 21.8141C192.912 19.1259 191.262 17.4992 188.992 17.4992C186.74 17.4992 185.089 19.1259 185.089 21.8141C185.089 24.5024 186.723 26.1119 188.975 26.1119C191.245 26.1119 192.912 24.5024 192.912 21.8141ZM190.901 21.8141C190.901 23.3552 190.247 24.4339 188.975 24.4339C187.771 24.4339 187.101 23.3209 187.101 21.8141C187.101 20.2731 187.754 19.1944 188.975 19.1944C190.213 19.1944 190.901 20.2902 190.901 21.8141Z" fill="white"/>
<path d="M201.36 25.9407V13.5781L199.297 13.9035V17.893C198.799 17.7218 198.162 17.5848 197.371 17.5848C195.446 17.5848 193.744 18.9546 193.744 22.0367C193.744 24.8277 195.136 26.1119 196.873 26.1119C198.025 26.1119 198.833 25.4955 199.418 24.7935L199.589 25.9407H201.36ZM199.297 23.1497C198.747 23.8346 198.162 24.2798 197.406 24.2798C196.495 24.2798 195.807 23.5264 195.807 21.9169C195.807 20.1019 196.598 19.2286 197.681 19.2286C198.386 19.2286 198.781 19.3485 199.297 19.5882V23.1497Z" fill="white"/>
<path d="M209.631 25.9407V20.2731C209.631 18.2869 208.565 17.4992 206.416 17.4992C205.092 17.4992 204.077 17.7903 203.114 18.167L203.372 19.8108C204.266 19.417 205.178 19.143 206.141 19.143C207.052 19.143 207.568 19.4855 207.568 20.3758V20.6155C204.215 20.9409 202.564 21.8141 202.564 23.8175C202.564 25.2558 203.51 26.1119 204.92 26.1119C206.158 26.1119 207.017 25.564 207.688 24.862L207.86 25.9407H209.631ZM207.568 23.6634C207 24.2284 206.33 24.5538 205.625 24.5538C204.989 24.5538 204.61 24.1942 204.61 23.5949C204.61 22.8073 205.178 22.1052 207.568 21.8141V23.6634Z" fill="white"/>
<path d="M218.316 17.6704H216.27L214.413 23.4408L212.488 17.5506L210.338 17.8246L213.347 25.9749L213.158 26.5229C212.9 27.1222 212.419 27.3961 211.817 27.3961C211.422 27.3961 211.129 27.3448 210.854 27.2763L211.129 28.9714C211.318 29.0228 211.525 29.057 211.886 29.057C213.485 29.057 214.43 28.4235 215.17 26.3859L218.316 17.6704Z" fill="white"/>
<path d="M229.045 25.9407V20.2731C229.045 18.2869 227.979 17.4992 225.829 17.4992C224.505 17.4992 223.491 17.7903 222.528 18.167L222.786 19.8108C223.68 19.417 224.591 19.143 225.554 19.143C226.466 19.143 226.981 19.4855 226.981 20.3758V20.6155C223.629 20.9409 221.978 21.8141 221.978 23.8175C221.978 25.2558 222.924 26.1119 224.333 26.1119C225.571 26.1119 226.431 25.564 227.102 24.862L227.274 25.9407H229.045ZM226.981 23.6634C226.414 24.2284 225.743 24.5538 225.038 24.5538C224.402 24.5538 224.024 24.1942 224.024 23.5949C224.024 22.8073 224.591 22.1052 226.981 21.8141V23.6634Z" fill="white"/>
<path d="M235.13 25.9407L234.872 24.2113C234.683 24.2627 234.459 24.2798 234.219 24.2798C233.428 24.2798 233.118 23.9202 233.118 23.2524V19.3485H235.078L234.821 17.6704H233.118V14.7425L231.089 15.0507V17.6704H229.92V19.3485H231.089V23.5949C231.089 25.4784 232.19 26.0777 233.823 26.0777C234.425 26.0777 234.803 26.0092 235.13 25.9407Z" fill="white"/>
<path d="M245.3 20.8724C244.715 22.8586 242.893 23.886 240.571 24.3483L240.847 26.1804C244.732 25.4099 247.501 23.1155 247.501 19.0403C247.501 15.8383 245.712 14.1432 243.168 14.1432C240.795 14.1432 239.024 15.7356 239.024 18.1328C239.024 20.4786 240.417 21.7285 242.514 21.7285C243.563 21.7285 244.475 21.4032 245.3 20.8724ZM245.472 19.2286C244.75 19.7594 243.993 20.0505 243.151 20.0505C241.775 20.0505 241.122 19.3313 241.122 18.0129C241.122 16.6431 241.947 15.8554 243.151 15.8554C244.526 15.8554 245.472 17.0198 245.472 19.1601V19.2286Z" fill="white"/>
<path d="M251.1 20.1361V17.6704H248.847V20.1361H251.1ZM251.1 25.9407V23.4579H248.847V25.9407H251.1Z" fill="white"/>
<path d="M256.876 25.9407V14.3486H254.933L252.062 15.6671L252.302 17.3965L254.675 16.489V25.9407H256.876Z" fill="white"/>
<path d="M264.713 20.8724C264.129 22.8586 262.306 23.886 259.985 24.3483L260.26 26.1804C264.146 25.4099 266.914 23.1155 266.914 19.0403C266.914 15.8383 265.126 14.1432 262.581 14.1432C260.209 14.1432 258.438 15.7356 258.438 18.1328C258.438 20.4786 259.83 21.7285 261.928 21.7285C262.977 21.7285 263.888 21.4032 264.713 20.8724ZM264.885 19.2286C264.163 19.7594 263.407 20.0505 262.564 20.0505C261.189 20.0505 260.535 19.3313 260.535 18.0129C260.535 16.6431 261.361 15.8554 262.564 15.8554C263.94 15.8554 264.885 17.0198 264.885 19.1601V19.2286Z" fill="white"/>
<path d="M282.065 25.6496L277.715 14.0747H275.291L270.838 25.9407H273.09L274.173 22.9442H278.661L279.796 26.0606L282.065 25.6496ZM278.025 21.095H274.792L276.408 16.5404L278.025 21.095Z" fill="white"/>
<path d="M296.479 25.9407L295.568 14.1261H292.731L289.739 23.047L286.73 14.1261H283.842L282.93 25.9407H284.976L285.578 17.3109L288.587 25.9749H290.582L293.573 17.3109L294.209 25.9407H296.479Z" fill="white"/>
</g>
<path d="M18.6807 78.1699V58.3348H13.7651V65.7514H6.89466V58.3348H1.979V78.1699H6.89466V70.0634H13.7651V78.1699H18.6807ZM34.176 71.0983C34.176 67.0163 32.25 63.7967 27.938 63.7967C24.1147 63.7967 21.2976 66.5851 21.2976 71.1845C21.2976 76.2152 24.316 78.4574 28.5417 78.4574C30.7552 78.4574 32.6237 77.8537 34.1473 76.8763L33.7161 73.8292C32.1638 74.7203 30.6402 75.2953 29.0879 75.2953C27.1906 75.2953 25.8683 74.4329 25.6383 72.2194H34.0898C34.1473 71.9894 34.176 71.5295 34.176 71.0983ZM30.0365 69.8334H25.6096C25.7533 67.6774 26.6157 66.6138 27.823 66.6138C29.1454 66.6138 29.8928 67.7062 30.0365 69.8334ZM49.1002 64.0841H44.9032L42.316 72.7656L39.5851 63.8829L34.9281 64.4291L40.045 78.1987L39.8726 78.6299C39.4126 79.6072 38.5502 79.981 37.5728 79.981C36.7392 79.981 36.308 79.8947 35.848 79.751L36.3942 83.2293C36.7967 83.3156 37.1704 83.4018 38.0328 83.4018C41.1087 83.4018 42.8334 82.1369 44.0983 78.4574L49.1002 64.0841ZM59.7867 77.9112C60.4766 78.0262 60.9653 78.1124 62.0002 78.1987L64.0987 78.3711C65.6223 78.5436 66.1397 78.8311 66.1397 79.4923C66.1397 80.4122 64.8461 81.1596 62.5751 81.1596C60.0454 81.1596 58.9531 80.4696 58.9531 79.4923C58.9531 79.0036 59.2118 78.4861 59.7867 77.9112ZM64.3862 68.7123C64.3862 70.0634 63.6388 71.0408 62.3164 71.0408C61.0516 71.0408 60.3042 70.1209 60.3042 68.7986C60.3042 67.4475 61.0516 66.4126 62.3164 66.4126C63.61 66.4126 64.3862 67.39 64.3862 68.7123ZM66.5996 65.2052C65.536 64.3716 64.07 63.8541 62.2877 63.8541C58.8956 63.8541 56.3659 65.7802 56.3659 68.856C56.3659 70.6671 57.3145 72.1331 59.0681 72.9381C57.6882 73.7142 56.9696 74.5766 56.9696 75.4677C56.9696 76.0139 57.257 76.5889 57.7457 77.0201C56.1934 77.8825 55.446 78.8023 55.446 80.0384C55.446 82.1944 58.2632 83.4018 62.2302 83.4018C66.7434 83.4018 70.1067 81.4183 70.1067 78.3424C70.1067 76.2152 68.4107 75.324 65.5935 75.0365L63.0063 74.8641C61.1091 74.6341 60.7641 74.5191 60.7641 74.1167C60.7641 73.9154 60.8791 73.7142 61.1091 73.4842C61.5403 73.5417 61.9715 73.5705 62.4314 73.5705C65.6223 73.5705 68.2669 71.7594 68.2669 68.7123C68.2669 68.1949 68.1807 67.7062 68.0082 67.2175C68.037 67.2175 70.4804 67.16 70.4804 67.16L69.9342 63.9404L66.5996 65.2052ZM84.6289 78.1699V64.0841H80.2882V73.3692C79.512 74.1454 78.7359 74.6341 77.9022 74.6341C76.8673 74.6341 76.4361 73.9154 76.4361 72.9093V64.0841H72.0954V74.1167C72.0954 76.8476 73.4752 78.4574 76.0912 78.4574C77.8447 78.4574 79.1958 77.5088 80.4894 76.2439L80.8056 78.1699H84.6289ZM100.558 64.0841H96.3606L93.7734 72.7656L91.0425 63.8829L86.3856 64.4291L91.5025 78.1987L91.33 78.6299C90.87 79.6072 90.0076 79.981 89.0303 79.981C88.1966 79.981 87.7654 79.8947 87.3055 79.751L87.8516 83.2293C88.2541 83.3156 88.6278 83.4018 89.4902 83.4018C92.5661 83.4018 94.2909 82.1369 95.5557 78.4574L100.558 64.0841ZM112.921 73.8292C112.921 71.2133 111.598 70.2646 107.861 69.2585C105.878 68.7123 105.475 68.3961 105.475 67.8212C105.475 67.275 105.935 66.9013 106.97 66.9013C108.321 66.9013 110.075 67.39 111.598 68.2236L112.144 64.9178C110.678 64.2566 108.839 63.8829 106.941 63.8829C103.492 63.8829 101.537 65.6364 101.537 68.2524C101.537 70.897 103.032 71.8457 106.568 72.7656C108.551 73.2543 108.954 73.5705 108.954 74.2891C108.954 74.9503 108.379 75.3528 107.171 75.3528C105.562 75.3528 103.521 74.7203 101.853 73.6855L101.336 76.9913C102.802 77.7675 104.9 78.3999 107.143 78.3999C110.88 78.3999 112.921 76.7901 112.921 73.8292ZM120.707 58.3348H115.303L116.711 71.3282L119.356 70.7533L120.707 58.3348ZM120.333 78.1699V73.2255H115.648V78.1699H120.333ZM144.593 77.0488L143.96 73.0243C142.466 73.8579 141.057 74.4041 139.447 74.4041C136.458 74.4041 134.244 72.2194 134.244 68.2524C134.244 64.3716 136.199 62.1006 139.188 62.1006C140.913 62.1006 142.408 62.7905 143.615 63.7104L144.305 59.2834C142.868 58.4785 141.057 57.9899 138.815 57.9899C133.18 57.9899 129.328 62.1294 129.328 68.2811C129.328 74.4904 132.95 78.5149 138.958 78.5149C141.143 78.5149 142.983 77.9399 144.593 77.0488ZM158.836 78.1699V68.7411C158.836 65.1477 156.91 63.8541 153.029 63.8541C150.729 63.8541 148.918 64.2853 147.308 64.9465L147.826 68.2236C149.321 67.5624 150.787 67.16 152.368 67.16C153.805 67.16 154.495 67.7062 154.495 68.9423V69.201C148.976 69.6897 146.446 71.242 146.446 74.5479C146.446 77.1063 148.027 78.4574 150.269 78.4574C152.195 78.4574 153.546 77.6237 154.696 76.4164L154.984 78.1699H158.836ZM154.495 74.2891C153.719 74.9791 152.914 75.3528 152.08 75.3528C151.275 75.3528 150.729 74.8641 150.729 73.9729C150.729 72.7368 151.534 71.7594 154.495 71.2995V74.2891ZM174.239 78.1699V68.1661C174.239 65.4352 172.859 63.7967 170.243 63.7967C168.461 63.7967 167.11 64.774 165.845 66.0101L165.529 64.0841H161.706V78.1699H166.047V68.9135C166.823 68.1374 167.599 67.6487 168.432 67.6487C169.467 67.6487 169.87 68.3386 169.87 69.3447V78.1699H174.239ZM202.212 64.0841H198.188L196.319 72.2769L194.307 64.0841H190.398L188.414 72.3056L186.488 63.8829L182.004 64.4291L185.856 78.1699H190.024L192.065 70.1209L194.135 78.1699H198.274L202.212 64.0841ZM215.807 71.0983C215.807 67.0163 213.881 63.7967 209.569 63.7967C205.746 63.7967 202.929 66.5851 202.929 71.1845C202.929 76.2152 205.947 78.4574 210.173 78.4574C212.386 78.4574 214.255 77.8537 215.778 76.8763L215.347 73.8292C213.795 74.7203 212.271 75.2953 210.719 75.2953C208.822 75.2953 207.499 74.4329 207.269 72.2194H215.721C215.778 71.9894 215.807 71.5295 215.807 71.0983ZM211.667 69.8334H207.241C207.384 67.6774 208.247 66.6138 209.454 66.6138C210.776 66.6138 211.524 67.7062 211.667 69.8334ZM237.363 70.7533C237.363 65.9814 235.207 63.7967 232.304 63.7967C230.493 63.7967 229.228 64.8603 228.25 65.9526L227.963 64.0841H224.14V83.5168L228.48 82.8556V77.825C229.285 78.0837 230.176 78.3137 231.441 78.3137C234.546 78.3137 237.363 76.1002 237.363 70.7533ZM233.022 71.0408C233.022 73.7717 231.93 74.8928 230.464 74.8928C229.573 74.8928 229.084 74.7491 228.48 74.4616V69.1148C229.199 68.2524 229.946 67.6774 230.895 67.6774C232.131 67.6774 233.022 68.6836 233.022 71.0408ZM244.232 78.1699V57.4149L239.862 58.1048V78.1699H244.232ZM259 78.1699V68.7411C259 65.1477 257.074 63.8541 253.193 63.8541C250.893 63.8541 249.082 64.2853 247.472 64.9465L247.99 68.2236C249.484 67.5624 250.951 67.16 252.532 67.16C253.969 67.16 254.659 67.7062 254.659 68.9423V69.201C249.139 69.6897 246.61 71.242 246.61 74.5479C246.61 77.1063 248.191 78.4574 250.433 78.4574C252.359 78.4574 253.71 77.6237 254.86 76.4164L255.148 78.1699H259ZM254.659 74.2891C253.883 74.9791 253.078 75.3528 252.244 75.3528C251.439 75.3528 250.893 74.8641 250.893 73.9729C250.893 72.7368 251.698 71.7594 254.659 71.2995V74.2891ZM274.525 64.0841H270.328L267.741 72.7656L265.01 63.8829L260.353 64.4291L265.47 78.1987L265.297 78.6299C264.837 79.6072 263.975 79.981 262.997 79.981C262.164 79.981 261.732 79.8947 261.273 79.751L261.819 83.2293C262.221 83.3156 262.595 83.4018 263.457 83.4018C266.533 83.4018 268.258 82.1369 269.523 78.4574L274.525 64.0841ZM286.994 59.9159C286.994 58.4785 285.93 57.5587 284.521 57.5587C283.141 57.5587 282.049 58.4785 282.049 59.9159C282.049 61.3244 283.141 62.2443 284.521 62.2443C285.93 62.2443 286.994 61.3244 286.994 59.9159ZM286.706 78.1699V64.0841H282.337V78.1699H286.706ZM302.307 78.1699V68.1661C302.307 65.4352 300.927 63.7967 298.312 63.7967C296.529 63.7967 295.178 64.774 293.913 66.0101L293.597 64.0841H289.774V78.1699H294.115V68.9135C294.891 68.1374 295.667 67.6487 296.501 67.6487C297.535 67.6487 297.938 68.3386 297.938 69.3447V78.1699H302.307ZM324.589 78.1699L323.985 74.3754H316.626L320.507 70.6096C322.893 68.3674 324.215 66.6426 324.215 63.9979C324.215 60.5195 321.743 58.421 317.747 58.421C314.987 58.421 312.975 59.226 311.308 60.3471L311.883 64.4291C313.55 63.2217 315.303 62.4456 317.028 62.4456C318.609 62.4456 319.529 63.193 319.529 64.5153C319.529 65.8089 318.868 66.7288 317.574 68.0511L310.876 74.7491V78.1699H324.589ZM334.109 71.8744V67.7349H326.261V71.8744H334.109ZM349.848 72.7368C349.848 70.1784 348.439 68.7411 346.111 67.9936C348.123 67.2462 349.532 65.9814 349.532 63.4804C349.532 60.4621 347.06 58.3636 342.719 58.3636C340.16 58.3636 337.947 59.111 336.423 60.1458L337.027 63.8254C338.493 62.848 340.218 62.2156 342 62.2156C343.869 62.2156 344.789 62.9055 344.789 64.1416C344.789 65.4927 343.754 66.3838 340.994 66.3838H339.183L339.758 69.8909H340.937C343.984 69.8909 345.162 70.7246 345.162 72.3919C345.162 73.8867 343.984 74.6916 342.086 74.6916C340.16 74.6916 338.349 74.1167 336.74 73.2543L336.136 77.0201C337.775 77.9399 340.017 78.5436 342.518 78.5436C346.715 78.5436 349.848 76.5026 349.848 72.7368ZM378.822 78.1699V68.1661C378.822 65.4352 377.442 63.7967 374.826 63.7967C373.073 63.7967 371.693 64.7453 370.428 66.0101C369.91 64.7453 368.847 63.7967 366.921 63.7967C365.11 63.7967 363.816 64.7165 362.551 66.0101L362.235 64.0841H358.412V78.1699H362.753V68.8848C363.529 68.1374 364.247 67.6487 365.052 67.6487C366.058 67.6487 366.432 68.3386 366.432 69.3447V78.1699H370.773V68.8848C371.549 68.1374 372.296 67.6487 373.073 67.6487C374.079 67.6487 374.452 68.3386 374.452 69.3447V78.1699H378.822ZM386.455 59.9159C386.455 58.4785 385.392 57.5587 383.983 57.5587C382.603 57.5587 381.511 58.4785 381.511 59.9159C381.511 61.3244 382.603 62.2443 383.983 62.2443C385.392 62.2443 386.455 61.3244 386.455 59.9159ZM386.168 78.1699V64.0841H381.798V78.1699H386.168ZM401.769 78.1699V68.1661C401.769 65.4352 400.389 63.7967 397.773 63.7967C395.991 63.7967 394.64 64.774 393.375 66.0101L393.059 64.0841H389.236V78.1699H393.576V68.9135C394.353 68.1374 395.129 67.6487 395.962 67.6487C396.997 67.6487 397.4 68.3386 397.4 69.3447V78.1699H401.769ZM415.686 73.8292C415.686 71.2133 414.363 70.2646 410.626 69.2585C408.643 68.7123 408.24 68.3961 408.24 67.8212C408.24 67.275 408.7 66.9013 409.735 66.9013C411.086 66.9013 412.84 67.39 414.363 68.2236L414.91 64.9178C413.443 64.2566 411.604 63.8829 409.706 63.8829C406.257 63.8829 404.302 65.6364 404.302 68.2524C404.302 70.897 405.797 71.8457 409.333 72.7656C411.316 73.2543 411.719 73.5705 411.719 74.2891C411.719 74.9503 411.144 75.3528 409.936 75.3528C408.327 75.3528 406.286 74.7203 404.618 73.6855L404.101 76.9913C405.567 77.7675 407.665 78.3999 409.908 78.3999C413.645 78.3999 415.686 76.7901 415.686 73.8292ZM423.9 78.1699V73.2255H419.243V78.1699H423.9ZM423.238 69.9772C427.205 68.7123 429.304 66.815 429.304 63.4804C429.304 60.0021 426.947 57.9611 422.893 57.9611C420.048 57.9611 417.92 58.8235 416.224 59.9734L416.828 63.9979C418.495 62.8193 420.45 61.9569 422.261 61.9569C423.842 61.9569 424.704 62.6755 424.704 63.8541C424.704 65.234 423.727 66.0964 420.881 66.93L419.99 67.2175L420.306 71.587L423.152 70.9258L423.238 69.9772ZM28.1096 91.3348H23.2514L20.4055 103.753L17.1859 91.3348H12.2415L9.0219 103.753L6.03226 91.1336L0.714153 91.9672L5.94602 111.17H10.8904L14.3113 98.3777L17.7321 111.17H22.7053L28.1096 91.3348ZM40.4248 111.17V101.741C40.4248 98.1477 38.4988 96.8541 34.618 96.8541C32.3183 96.8541 30.5072 97.2853 28.8974 97.9465L29.4149 101.224C30.9097 100.562 32.3758 100.16 33.9568 100.16C35.3942 100.16 36.0841 100.706 36.0841 101.942V102.201C30.5647 102.69 28.035 104.242 28.035 107.548C28.035 110.106 29.6161 111.457 31.8583 111.457C33.7843 111.457 35.1354 110.624 36.2853 109.416L36.5728 111.17H40.4248ZM36.0841 107.289C35.3079 107.979 34.503 108.353 33.6694 108.353C32.8645 108.353 32.3183 107.864 32.3183 106.973C32.3183 105.737 33.1232 104.759 36.0841 104.299V107.289ZM55.8282 111.17V101.166C55.8282 98.4352 54.4484 96.7967 51.8325 96.7967C50.0502 96.7967 48.6991 97.774 47.4342 99.0101L47.118 97.0841H43.2947V111.17H47.6355V101.914C48.4116 101.137 49.1878 100.649 50.0214 100.649C51.0563 100.649 51.4588 101.339 51.4588 102.345V111.17H55.8282ZM71.2683 111.17V101.166C71.2683 98.4352 69.8884 96.7967 67.2725 96.7967C65.4902 96.7967 64.1391 97.774 62.8743 99.0101L62.5581 97.0841H58.7348V111.17H63.0755V101.914C63.8517 101.137 64.6278 100.649 65.4615 100.649C66.4963 100.649 66.8988 101.339 66.8988 102.345V111.17H71.2683ZM85.8746 111.17V101.741C85.8746 98.1477 83.9486 96.8541 80.0678 96.8541C77.7681 96.8541 75.9571 97.2853 74.3473 97.9465L74.8647 101.224C76.3595 100.562 77.8256 100.16 79.4067 100.16C80.844 100.16 81.5339 100.706 81.5339 101.942V102.201C76.0146 102.69 73.4849 104.242 73.4849 107.548C73.4849 110.106 75.0659 111.457 77.3082 111.457C79.2342 111.457 80.5853 110.624 81.7351 109.416L82.0226 111.17H85.8746ZM81.5339 107.289C80.7578 107.979 79.9529 108.353 79.1192 108.353C78.3143 108.353 77.7681 107.864 77.7681 106.973C77.7681 105.737 78.573 104.759 81.5339 104.299V107.289ZM107.688 110.739L103.089 103.495L107.516 97.0841H102.859L99.0929 102.862V90.4149L94.7522 91.1048V111.17H99.0929V104.616L103.175 111.371L107.688 110.739ZM114.009 92.9159C114.009 91.4785 112.945 90.5587 111.537 90.5587C110.157 90.5587 109.065 91.4785 109.065 92.9159C109.065 94.3244 110.157 95.2443 111.537 95.2443C112.945 95.2443 114.009 94.3244 114.009 92.9159ZM113.722 111.17V97.0841H109.352V111.17H113.722ZM121.245 111.17V90.4149L116.876 91.1048V111.17H121.245ZM128.769 111.17V90.4149L124.399 91.1048V111.17H128.769ZM148.854 106.829C148.854 104.213 147.531 103.265 143.794 102.258C141.811 101.712 141.408 101.396 141.408 100.821C141.408 100.275 141.868 99.9013 142.903 99.9013C144.254 99.9013 146.008 100.39 147.531 101.224L148.078 97.9178C146.612 97.2566 144.772 96.8829 142.875 96.8829C139.425 96.8829 137.47 98.6364 137.47 101.252C137.47 103.897 138.965 104.846 142.501 105.766C144.484 106.254 144.887 106.57 144.887 107.289C144.887 107.95 144.312 108.353 143.105 108.353C141.495 108.353 139.454 107.72 137.786 106.685L137.269 109.991C138.735 110.767 140.834 111.4 143.076 111.4C146.813 111.4 148.854 109.79 148.854 106.829ZM164.028 104.127C164.028 99.6138 161.154 96.7967 157.244 96.7967C153.363 96.7967 150.489 99.6426 150.489 104.156C150.489 108.669 153.334 111.457 157.215 111.457C161.125 111.457 164.028 108.64 164.028 104.127ZM159.831 104.156C159.831 106.427 158.911 107.95 157.244 107.95C155.605 107.95 154.686 106.398 154.686 104.127C154.686 101.827 155.577 100.361 157.244 100.361C158.911 100.361 159.831 101.885 159.831 104.156ZM186.748 111.17V101.166C186.748 98.4352 185.368 96.7967 182.752 96.7967C180.999 96.7967 179.619 97.7453 178.354 99.0101C177.836 97.7453 176.773 96.7967 174.847 96.7967C173.036 96.7967 171.742 97.7165 170.477 99.0101L170.161 97.0841H166.338V111.17H170.679V101.885C171.455 101.137 172.173 100.649 172.978 100.649C173.984 100.649 174.358 101.339 174.358 102.345V111.17H178.699V101.885C179.475 101.137 180.222 100.649 180.999 100.649C182.005 100.649 182.378 101.339 182.378 102.345V111.17H186.748ZM201.827 104.098C201.827 100.016 199.901 96.7967 195.589 96.7967C191.765 96.7967 188.948 99.5851 188.948 104.185C188.948 109.215 191.967 111.457 196.192 111.457C198.406 111.457 200.274 110.854 201.798 109.876L201.367 106.829C199.814 107.72 198.291 108.295 196.739 108.295C194.841 108.295 193.519 107.433 193.289 105.219H201.74C201.798 104.989 201.827 104.529 201.827 104.098ZM197.687 102.833H193.26C193.404 100.677 194.266 99.6138 195.474 99.6138C196.796 99.6138 197.543 100.706 197.687 102.833ZM220.364 95.4743L220.048 94.4682L216.369 94.6694L215.506 91.1623H214.385L213.551 94.6694L209.872 94.4682L209.556 95.4743L212.632 97.4578L211.281 100.879L212.143 101.454L214.96 99.1539L217.748 101.454L218.64 100.879L217.289 97.4578L220.364 95.4743ZM232.969 95.4743L232.653 94.4682L228.973 94.6694L228.111 91.1623H226.99L226.156 94.6694L222.477 94.4682L222.16 95.4743L225.236 97.4578L223.885 100.879L224.748 101.454L227.565 99.1539L230.353 101.454L231.244 100.879L229.893 97.4578L232.969 95.4743ZM245.574 95.4743L245.258 94.4682L241.578 94.6694L240.716 91.1623H239.595L238.761 94.6694L235.081 94.4682L234.765 95.4743L237.841 97.4578L236.49 100.879L237.352 101.454L240.169 99.1539L242.958 101.454L243.849 100.879L242.498 97.4578L245.574 95.4743ZM258.178 95.4743L257.862 94.4682L254.183 94.6694L253.32 91.1623H252.199L251.366 94.6694L247.686 94.4682L247.37 95.4743L250.446 97.4578L249.095 100.879L249.957 101.454L252.774 99.1539L255.563 101.454L256.454 100.879L255.103 97.4578L258.178 95.4743ZM270.783 95.4743L270.467 94.4682L266.787 94.6694L265.925 91.1623H264.804L263.97 94.6694L260.291 94.4682L259.974 95.4743L263.05 97.4578L261.699 100.879L262.562 101.454L265.379 99.1539L268.167 101.454L269.058 100.879L267.707 97.4578L270.783 95.4743ZM292.586 99.7001V96.2505H279.794V99.7001H292.586ZM292.586 106.628V103.207H279.794V106.628H292.586ZM305.058 102.029C305.058 96.7967 302.471 93.5195 298.532 90.4149L295.198 91.1911C298.734 94.8994 300.257 97.7165 300.257 102.086C300.257 106.168 298.791 108.698 296.089 111.055L296.52 114.016C301.982 111.457 305.058 107.692 305.058 102.029ZM316.792 102.029C316.792 96.7967 314.205 93.5195 310.267 90.4149L306.932 91.1911C310.468 94.8994 311.992 97.7165 311.992 102.086C311.992 106.168 310.525 108.698 307.823 111.055L308.255 114.016C313.716 111.457 316.792 107.692 316.792 102.029ZM328.527 102.029C328.527 96.7967 325.939 93.5195 322.001 90.4149L318.667 91.1911C322.202 94.8994 323.726 97.7165 323.726 102.086C323.726 106.168 322.26 108.698 319.558 111.055L319.989 114.016C325.451 111.457 328.527 107.692 328.527 102.029Z" fill="white"/>
</svg>
