<svg width="42" height="49" viewBox="0 0 42 49" fill="none" xmlns="http://www.w3.org/2000/svg">
<path d="M37.0799 0H4.92023C2.20812 0 0 2.25396 0 5.04703V38.171C0 40.9641 2.20795 43.2181 4.92007 43.2181H32.1361L30.8639 38.6855L33.936 41.601L36.8399 44.345L42 49V5.04703C42 2.25396 39.792 0 37.0799 0ZM27.816 31.9972C27.816 31.9972 26.952 30.9436 26.232 30.0125C29.376 29.106 30.576 27.097 30.576 27.097C29.592 27.7586 28.656 28.2242 27.816 28.5424C26.616 29.0571 25.464 29.3999 24.336 29.596C22.032 30.037 19.92 29.9146 18.12 29.5716C16.7519 29.3019 15.5759 28.91 14.592 28.5181C14.04 28.2975 13.44 28.0281 12.8399 27.6851C12.768 27.636 12.696 27.6115 12.624 27.5625C12.576 27.538 12.5519 27.5136 12.528 27.4891C12.096 27.2441 11.856 27.0726 11.856 27.0726C11.856 27.0726 13.008 29.0326 16.056 29.9635C15.3361 30.8947 14.448 31.997 14.448 31.997C9.14386 31.8255 7.12802 28.2731 7.12802 28.2731C7.12802 20.3841 10.584 13.9895 10.584 13.9895C14.04 11.3435 17.328 11.417 17.328 11.417L17.568 11.7111C13.248 12.9848 11.256 14.9205 11.256 14.9205C11.256 14.9205 11.784 14.6266 12.6719 14.2101C15.2399 13.0585 17.28 12.7401 18.12 12.6666C18.2639 12.6419 18.384 12.6175 18.5281 12.6175C20.1364 12.4036 21.764 12.3872 23.3761 12.5686C25.6559 12.8381 28.1041 13.5241 30.6 14.9205C30.6 14.9205 28.704 13.0831 24.624 11.8091L24.96 11.4172C24.96 11.4172 28.248 11.3435 31.7039 13.9897C31.7039 13.9897 35.1601 20.3841 35.1601 28.2731C35.1601 28.2731 33.12 31.8255 27.816 31.997V31.9972ZM16.656 20.5556C15.288 20.5556 14.2081 21.7805 14.2081 23.275C14.2081 24.7696 15.312 25.9945 16.656 25.9945C18.0241 25.9945 19.1039 24.7696 19.1039 23.275C19.128 21.7805 18.0241 20.5556 16.6561 20.5556H16.656ZM25.4161 20.5556C24.048 20.5556 22.9679 21.7805 22.9679 23.275C22.9679 24.7696 24.0721 25.9945 25.4161 25.9945C26.784 25.9945 27.8639 24.7696 27.8639 23.275C27.8639 21.7805 26.784 20.5556 25.4161 20.5556Z" fill="#FBFBFB"/>
</svg>
