<svg width="1440" height="1800" viewBox="0 0 1440 1800" fill="none" xmlns="http://www.w3.org/2000/svg">
<g filter="url(#filter0_f)">
<path d="M367.388 1546.62C181.178 1452.68 -593.422 1282.29 -704.3 1271.08C-823.017 1233.02 -1059.68 1151.36 -1056.61 1129.17C-1052.77 1101.43 -791.27 1003.83 -746.752 925.177C-734.377 903.315 -716.743 886.427 -576.123 761.693C-435.503 636.959 -842.456 701.723 -878.755 638.085C-930.524 547.327 -972.93 454.213 -953.735 386.474C-908.512 226.873 29.3892 207.128 210.047 207.649C390.704 208.169 1619.57 621.525 1811.93 696.799C2004.3 772.073 1727.58 1146.52 1744.82 1181.33C1758.62 1209.17 1993.12 1162.26 1812.95 1269.49C1628.56 1269.77 1267.03 1508.49 1168.03 1583.16C1170.28 1587.18 1167.29 1591.88 1158.16 1597.34C1132.82 1612.53 1139.59 1604.62 1168.03 1583.16C1142.34 1537.11 430.495 1578.46 367.388 1546.62Z" fill="url(#paint0_radial)"/>
</g>
<defs>
<filter id="filter0_f" x="-1138.77" y="0.228027" width="3175.54" height="1799.08" filterUnits="userSpaceOnUse" color-interpolation-filters="sRGB">
<feFlood flood-opacity="0" result="BackgroundImageFix"/>
<feBlend mode="normal" in="SourceGraphic" in2="BackgroundImageFix" result="shape"/>
<feGaussianBlur stdDeviation="25.386" result="effect1_foregroundBlur"/>
</filter>
<radialGradient id="paint0_radial" cx="0" cy="0" r="1" gradientUnits="userSpaceOnUse" gradientTransform="translate(424.338 880.292) rotate(-25.6837) scale(926.583 871.082)">
<stop stop-color="#F3F42D"/>
<stop offset="1" stop-color="white" stop-opacity="0"/>
</radialGradient>
</defs>
</svg>
