<svg width="1144" height="2266" viewBox="0 0 1144 2266" fill="none" xmlns="http://www.w3.org/2000/svg">
<g filter="url(#filter0_f)">
<path d="M1505.5 113C1652.32 237.552 1860.18 51.5778 1943.04 44C2034.41 83.4965 2217.16 172.823 2217.16 214.157C2217.16 265.824 2034.41 510.381 2009.63 665.382C2002.75 708.467 1991.47 743.793 1900.57 1007.34C1809.67 1270.88 2102.97 1049.51 2136.22 1156.62C2183.64 1309.38 2224.4 1468.8 2217.16 1597.46C2200.13 1900.57 1510.94 2174.06 1377.75 2218.84C1244.56 2263.62 296.733 1819.28 147.28 1730.41C-2.17199 1641.55 163.542 887.206 147.28 827.961C134.271 780.565 -33.7633 925.668 88.0706 684.096C262.97 623.338 1230.72 5.45343 1154 158.5C1077.28 311.547 1451.39 67.1006 1505.5 113Z" fill="url(#paint0_radial)"/>
</g>
<defs>
<filter id="filter0_f" x="0" y="0" width="2262" height="2266" filterUnits="userSpaceOnUse" color-interpolation-filters="sRGB">
<feFlood flood-opacity="0" result="BackgroundImageFix"/>
<feBlend mode="normal" in="SourceGraphic" in2="BackgroundImageFix" result="shape"/>
<feGaussianBlur stdDeviation="22" result="effect1_foregroundBlur"/>
</filter>
<radialGradient id="paint0_radial" cx="0" cy="0" r="1" gradientUnits="userSpaceOnUse" gradientTransform="translate(1151.16 1043.85) rotate(121.286) scale(1106.09 1001.62)">
<stop stop-color="#0FFF8C"/>
<stop offset="0.78125" stop-color="#4BD894" stop-opacity="0"/>
</radialGradient>
</defs>
</svg>
