<svg width="1440" height="1375" viewBox="0 0 1440 1375" fill="none" xmlns="http://www.w3.org/2000/svg">
<path d="M821 -88.0002C945.341 -13.3104 1171.36 -61.4559 1241.54 -66.0001C1318.92 -42.3153 1487 -42.7866 1487 -18.0001C1487 12.9829 1489.99 343.051 1469 436C1448.01 528.949 1431.72 818.715 1417.29 1000.48C1402.86 1182.25 819.195 1346.25 706.395 1373.1C593.596 1399.96 -209.114 1133.5 -335.684 1080.21C-462.255 1026.92 -321.912 574.568 -335.684 539.04C-346.702 510.619 -152.181 126.863 -49 -18.0001C185.561 -75.6975 696.659 -162.69 821 -88.0002Z" fill="url(#paint0_radial)"/>
<path d="M534.345 -346.812C622.372 -272.14 743.736 -262.558 793.414 -267.102C848.199 -243.422 957.769 -189.869 957.769 -165.089C957.769 -134.113 1511.86 -114.927 1497 -22C1482.14 70.9267 1465.21 654.277 1455 836C1444.79 1017.72 534.345 1009.92 454.488 1036.76C374.631 1063.61 -193.649 797.219 -283.255 743.941C-372.861 690.663 -273.505 238.419 -283.255 202.901C-291.055 174.486 -146.911 -122.274 -73.8641 -267.102C92.1939 -324.785 446.317 -421.484 534.345 -346.812Z" fill="url(#paint1_radial)"/>
<defs>
<radialGradient id="paint0_radial" cx="0" cy="0" r="1" gradientUnits="userSpaceOnUse" gradientTransform="translate(514.5 668.5) rotate(130.636) scale(746.958 753.251)">
<stop stop-color="#1C35F8"/>
<stop offset="1" stop-color="#85EEE6" stop-opacity="0"/>
</radialGradient>
<radialGradient id="paint1_radial" cx="0" cy="0" r="1" gradientUnits="userSpaceOnUse" gradientTransform="translate(318.635 332.329) rotate(121.287) scale(663.139 600.524)">
<stop stop-color="#1C35F8"/>
<stop offset="1" stop-color="#85EEE6" stop-opacity="0"/>
</radialGradient>
</defs>
</svg>
