<svg width="768" height="1691" viewBox="0 0 768 1691" fill="none" xmlns="http://www.w3.org/2000/svg">
<g filter="url(#filter0_f)">
<path d="M977.36 439.92C1188.75 514.848 1743.98 240.505 1863.28 235.946C1994.84 259.707 2257.96 313.444 2257.96 338.31C2257.96 369.392 1994.84 516.514 1959.16 609.76C1923.48 703.006 2282.49 988.132 2257.96 1170.48C2233.44 1352.83 1418.33 1437.63 1226.56 1464.57C1034.79 1491.51 -237.031 1129.07 -452.213 1075.61C-667.396 1022.15 -698.856 743.205 -722.27 707.565C-741.001 679.052 -394.849 381.272 -219.431 235.946C179.345 178.065 765.967 364.991 977.36 439.92Z" fill="url(#paint0_linear)"/>
</g>
<defs>
<filter id="filter0_f" x="-948" y="0" width="3432.17" height="1691" filterUnits="userSpaceOnUse" color-interpolation-filters="sRGB">
<feFlood flood-opacity="0" result="BackgroundImageFix"/>
<feBlend mode="normal" in="SourceGraphic" in2="BackgroundImageFix" result="shape"/>
<feGaussianBlur stdDeviation="112.5" result="effect1_foregroundBlur"/>
</filter>
<linearGradient id="paint0_linear" x1="-83.9775" y1="545.093" x2="132.804" y2="-139.585" gradientUnits="userSpaceOnUse">
<stop stop-color="#FFF902"/>
<stop offset="1" stop-color="white" stop-opacity="0.0840516"/>
</linearGradient>
</defs>
</svg>
