<svg width="1440" height="1344" viewBox="0 0 1440 1344" fill="none" xmlns="http://www.w3.org/2000/svg">
<g filter="url(#filter0_f)">
<path d="M-861.09 890.479C-753.787 809.668 -1507.61 526.263 -1517 486.939C-1466.73 442.416 -868.544 77.9243 -815.938 77.9243C-750.179 77.9243 -438.924 166.972 -241.65 179.046C-186.815 182.402 -141.855 187.895 193.564 232.187C528.983 276.478 247.245 133.565 383.564 117.364C577.979 94.2601 780.888 74.4009 944.626 77.9242C1330.41 86.2252 1678.49 422.04 1735.48 486.939C1792.47 551.839 1226.95 1013.68 1113.84 1086.5C1000.74 1159.32 40.6716 1078.58 -34.731 1086.5C-95.0531 1092.84 89.6233 1174.72 -217.832 1115.35C-262.547 1066.07 -611.964 962.148 -861.09 890.479C-863.953 892.635 -867.43 894.647 -871.55 896.506C-909.628 913.691 -907.694 891.364 -955.679 863.381C-1083.17 826.93 -1155.92 806.014 -1089 818.857C-1021.18 831.873 -981.31 848.434 -955.679 863.381C-926.653 871.68 -894.789 880.784 -861.09 890.479Z" fill="url(#paint0_radial)"/>
</g>
<g filter="url(#filter1_f)">
<path d="M19.9097 913.411C127.213 832.601 -626.606 549.196 -636 509.872C-585.732 465.348 12.4559 100.857 65.0624 100.857C130.821 100.857 442.076 189.904 639.35 201.979C694.185 205.335 739.145 210.827 1074.56 255.119C1409.98 299.411 1128.24 156.497 1264.56 140.297C1458.98 117.192 1661.89 97.3333 1825.63 100.857C2211.41 109.158 2559.49 444.972 2616.48 509.872C2673.47 574.771 2107.95 1036.61 1994.84 1109.43C1881.74 1182.26 921.672 1101.51 846.269 1109.43C785.947 1115.77 970.623 1197.65 663.168 1138.28C618.453 1089.01 269.036 985.08 19.9097 913.411C17.0466 915.567 13.5703 917.579 9.45049 919.439C-28.6279 936.623 -26.6943 914.297 -74.6795 886.313C-202.167 849.862 -274.917 828.946 -208 841.789C-140.182 854.805 -100.31 871.366 -74.6795 886.313C-45.653 894.612 -13.7892 903.716 19.9097 913.411Z" fill="url(#paint1_radial)"/>
</g>
<g filter="url(#filter2_f)">
<path d="M-279.09 856.962C-171.787 776.151 -925.606 492.746 -935 453.422C-884.732 408.898 -286.544 44.4072 -233.938 44.4072C-168.179 44.4072 143.076 133.455 340.35 145.529C395.185 148.885 440.145 154.377 775.564 198.669C1110.98 242.961 829.245 100.048 965.564 83.8474C1159.98 60.743 1362.89 40.8838 1526.63 44.4071C1912.41 52.7081 2260.49 388.523 2317.48 453.422C2374.47 518.322 1808.95 980.162 1695.84 1052.98C1582.74 1125.81 622.672 1045.06 547.269 1052.98C486.947 1059.32 671.623 1141.2 364.168 1081.83C319.453 1032.56 -29.9642 928.631 -279.09 856.962C-281.953 859.118 -285.43 861.13 -289.55 862.989C-327.628 880.174 -325.694 857.847 -373.679 829.863C-501.167 793.413 -573.917 772.497 -507 785.34C-439.182 798.356 -399.31 814.917 -373.679 829.863C-344.653 838.163 -312.789 847.267 -279.09 856.962Z" fill="url(#paint2_radial)"/>
</g>
<g filter="url(#filter3_f)">
<path d="M-234.09 1053.65C-126.787 972.842 -880.606 689.437 -890 650.113C-839.732 605.59 -241.544 241.098 -188.938 241.098C-123.179 241.098 188.076 330.146 385.35 342.22C440.185 345.576 485.145 351.069 820.564 395.361C1155.98 439.653 874.245 296.739 1010.56 280.539C1204.98 257.434 1407.89 237.575 1571.63 241.098C1957.41 249.399 2305.49 585.214 2362.48 650.113C2419.47 715.013 1853.95 1176.85 1740.84 1249.68C1627.74 1322.5 667.672 1241.75 592.269 1249.68C531.947 1256.01 716.623 1337.89 409.168 1278.53C364.453 1229.25 15.0358 1125.32 -234.09 1053.65C-236.953 1055.81 -240.43 1057.82 -244.55 1059.68C-282.628 1076.86 -280.694 1054.54 -328.679 1026.55C-456.167 990.104 -528.917 969.188 -462 982.031C-394.182 995.047 -354.31 1011.61 -328.679 1026.55C-299.653 1034.85 -267.789 1043.96 -234.09 1053.65Z" fill="url(#paint3_radial)"/>
</g>
<g filter="url(#filter4_f)">
<path d="M-761.09 1017.49C-653.787 936.679 -1407.61 653.274 -1417 613.95C-1366.73 569.427 -768.544 204.935 -715.938 204.935C-650.179 204.935 -338.924 293.983 -141.65 306.057C-86.8145 309.413 -41.8547 314.906 293.564 359.198C628.983 403.489 347.245 260.576 483.564 244.375C677.979 221.271 880.888 201.412 1044.63 204.935C1430.41 213.236 1778.49 549.051 1835.48 613.95C1892.47 678.85 1326.95 1140.69 1213.84 1213.51C1100.74 1286.33 140.672 1205.59 65.269 1213.51C4.9469 1219.85 189.623 1301.73 -117.832 1242.36C-162.547 1193.08 -511.964 1089.16 -761.09 1017.49C-763.953 1019.65 -767.43 1021.66 -771.55 1023.52C-809.628 1040.7 -807.694 1018.38 -855.679 990.392C-983.167 953.941 -1055.92 933.025 -989 945.868C-921.182 958.884 -881.31 975.445 -855.679 990.392C-826.653 998.691 -794.789 1007.8 -761.09 1017.49Z" fill="url(#paint4_radial)"/>
</g>
<g filter="url(#filter5_f)">
<path d="M-708.09 927.523C-600.787 846.713 -1354.61 563.308 -1364 523.984C-1313.73 479.46 -715.544 114.969 -662.938 114.969C-597.179 114.969 -285.924 204.017 -88.6499 216.091C-33.8145 219.447 11.1453 224.939 346.564 269.231C681.983 313.523 400.245 170.609 536.564 154.409C730.979 131.305 933.888 111.446 1097.63 114.969C1483.41 123.27 1831.49 459.085 1888.48 523.984C1945.47 588.883 1379.95 1050.72 1266.84 1123.55C1153.74 1196.37 193.672 1115.62 118.269 1123.55C57.9469 1129.88 242.623 1211.76 -64.8322 1152.4C-109.547 1103.12 -458.964 999.193 -708.09 927.523C-710.953 929.68 -714.43 931.692 -718.55 933.551C-756.628 950.736 -754.694 928.409 -802.679 900.425C-930.167 863.974 -1002.92 843.059 -936 855.902C-868.182 868.917 -828.31 885.478 -802.679 900.425C-773.653 908.724 -741.789 917.829 -708.09 927.523Z" fill="url(#paint5_radial)"/>
</g>
<defs>
<filter id="filter0_f" x="-1561" y="33.5168" width="3344.5" height="1147.31" filterUnits="userSpaceOnUse" color-interpolation-filters="sRGB">
<feFlood flood-opacity="0" result="BackgroundImageFix"/>
<feBlend mode="normal" in="SourceGraphic" in2="BackgroundImageFix" result="shape"/>
<feGaussianBlur stdDeviation="22" result="effect1_foregroundBlur"/>
</filter>
<filter id="filter1_f" x="-680" y="56.4492" width="3344.5" height="1147.31" filterUnits="userSpaceOnUse" color-interpolation-filters="sRGB">
<feFlood flood-opacity="0" result="BackgroundImageFix"/>
<feBlend mode="normal" in="SourceGraphic" in2="BackgroundImageFix" result="shape"/>
<feGaussianBlur stdDeviation="22" result="effect1_foregroundBlur"/>
</filter>
<filter id="filter2_f" x="-979" y="-0.000244141" width="3344.5" height="1147.31" filterUnits="userSpaceOnUse" color-interpolation-filters="sRGB">
<feFlood flood-opacity="0" result="BackgroundImageFix"/>
<feBlend mode="normal" in="SourceGraphic" in2="BackgroundImageFix" result="shape"/>
<feGaussianBlur stdDeviation="22" result="effect1_foregroundBlur"/>
</filter>
<filter id="filter3_f" x="-934" y="196.691" width="3344.5" height="1147.31" filterUnits="userSpaceOnUse" color-interpolation-filters="sRGB">
<feFlood flood-opacity="0" result="BackgroundImageFix"/>
<feBlend mode="normal" in="SourceGraphic" in2="BackgroundImageFix" result="shape"/>
<feGaussianBlur stdDeviation="22" result="effect1_foregroundBlur"/>
</filter>
<filter id="filter4_f" x="-1461" y="160.528" width="3344.5" height="1147.31" filterUnits="userSpaceOnUse" color-interpolation-filters="sRGB">
<feFlood flood-opacity="0" result="BackgroundImageFix"/>
<feBlend mode="normal" in="SourceGraphic" in2="BackgroundImageFix" result="shape"/>
<feGaussianBlur stdDeviation="22" result="effect1_foregroundBlur"/>
</filter>
<filter id="filter5_f" x="-1408" y="70.5615" width="3344.5" height="1147.31" filterUnits="userSpaceOnUse" color-interpolation-filters="sRGB">
<feFlood flood-opacity="0" result="BackgroundImageFix"/>
<feBlend mode="normal" in="SourceGraphic" in2="BackgroundImageFix" result="shape"/>
<feGaussianBlur stdDeviation="22" result="effect1_foregroundBlur"/>
</filter>
<radialGradient id="paint0_radial" cx="0" cy="0" r="1" gradientUnits="userSpaceOnUse" gradientTransform="translate(240.032 597.347) rotate(13.0966) scale(1235.18 556.242)">
<stop offset="0.203125" stop-color="#FF3595"/>
<stop offset="1" stop-color="white" stop-opacity="0"/>
</radialGradient>
<radialGradient id="paint1_radial" cx="0" cy="0" r="1" gradientUnits="userSpaceOnUse" gradientTransform="translate(1121.03 620.28) rotate(13.0966) scale(1235.18 556.242)">
<stop offset="0.203125" stop-color="#FF3595"/>
<stop offset="1" stop-color="white" stop-opacity="0"/>
</radialGradient>
<radialGradient id="paint2_radial" cx="0" cy="0" r="1" gradientUnits="userSpaceOnUse" gradientTransform="translate(822.032 563.83) rotate(13.0966) scale(1235.18 556.242)">
<stop offset="0.203125" stop-color="#FF3595"/>
<stop offset="1" stop-color="white" stop-opacity="0"/>
</radialGradient>
<radialGradient id="paint3_radial" cx="0" cy="0" r="1" gradientUnits="userSpaceOnUse" gradientTransform="translate(867.032 760.521) rotate(13.0966) scale(1235.18 556.242)">
<stop offset="0.203125" stop-color="#FF3595"/>
<stop offset="1" stop-color="white" stop-opacity="0"/>
</radialGradient>
<radialGradient id="paint4_radial" cx="0" cy="0" r="1" gradientUnits="userSpaceOnUse" gradientTransform="translate(340.032 724.358) rotate(13.0966) scale(1235.18 556.242)">
<stop offset="0.203125" stop-color="#FF3595"/>
<stop offset="1" stop-color="white" stop-opacity="0"/>
</radialGradient>
<radialGradient id="paint5_radial" cx="0" cy="0" r="1" gradientUnits="userSpaceOnUse" gradientTransform="translate(393.032 634.392) rotate(13.0966) scale(1235.18 556.242)">
<stop offset="0.203125" stop-color="#FF3595"/>
<stop offset="1" stop-color="white" stop-opacity="0"/>
</radialGradient>
</defs>
</svg>
