<svg width="1440" height="2287" viewBox="0 0 1440 2287" fill="none" xmlns="http://www.w3.org/2000/svg">
<mask id="mask0" mask-type="alpha" maskUnits="userSpaceOnUse" x="0" y="0" width="1440" height="2287">
<rect width="1440" height="2287" fill="#C4C4C4"/>
</mask>
<g mask="url(#mask0)">
<g filter="url(#filter0_f)">
<path d="M-865.876 1681.89C-655.087 1433.29 -583.053 569.742 -595.878 429.448C-529.035 274.732 -377.861 -34.699 -307.908 -34.699C-220.468 -34.699 1110.3 -321.071 1372.62 -279.114C1445.54 -267.452 1170.11 -433.025 1616.12 -279.114C1860.5 -194.786 1799.33 -123.073 1723.88 -84.7274C1914.78 -134.937 1831.8 -46.0218 2033.16 -34.6991C2546.14 -5.85366 3008.99 1161.07 3084.77 1386.59C3160.56 1612.11 2408.57 3216.96 2258.17 3470.01C2107.77 3723.06 831.147 3442.48 730.882 3470.01C650.67 3492.04 896.239 3776.55 487.408 3570.27C384.581 3274.13 -62.289 2239.55 196.724 2369.46C455.736 2499.36 -943.556 1773.5 -865.876 1681.89Z" fill="url(#paint0_radial)"/>
</g>
<g filter="url(#filter1_f)">
<path d="M-380 1491.5C-169.211 1242.91 -97.1767 379.355 -110.001 239.062C-43.1582 84.3462 692.894 -92.5904 762.846 -92.5904C850.287 -92.5904 869.18 -210.576 1131.5 -168.619C1204.42 -156.957 928.985 -322.53 1375 -168.619C1619.37 -84.2906 1558.2 -12.5782 1482.76 25.7675C1673.65 -24.4417 1590.67 64.4731 1792.04 75.7958C2305.02 104.641 1465.22 1265.98 1541 1491.5C1616.78 1717.02 1633.9 2094.4 1483.5 2347.46C1333.1 2600.51 -77.2343 2319.92 -177.499 2347.46C-257.711 2369.48 187.831 2123.79 -221.001 1917.5C-294.993 1704.4 -374.089 1592.21 -316.124 1594.45C-368.686 1558.62 -404.147 1519.98 -380 1491.5Z" fill="url(#paint1_radial)"/>
</g>
</g>
<defs>
<filter id="filter0_f" x="-913" y="-389" width="4047.12" height="4077.89" filterUnits="userSpaceOnUse" color-interpolation-filters="sRGB">
<feFlood flood-opacity="0" result="BackgroundImageFix"/>
<feBlend mode="normal" in="SourceGraphic" in2="BackgroundImageFix" result="shape"/>
<feGaussianBlur stdDeviation="22" result="effect1_foregroundBlur"/>
</filter>
<filter id="filter1_f" x="-431.734" y="-278.505" width="2434.75" height="2776.55" filterUnits="userSpaceOnUse" color-interpolation-filters="sRGB">
<feFlood flood-opacity="0" result="BackgroundImageFix"/>
<feBlend mode="normal" in="SourceGraphic" in2="BackgroundImageFix" result="shape"/>
<feGaussianBlur stdDeviation="22" result="effect1_foregroundBlur"/>
</filter>
<radialGradient id="paint0_radial" cx="0" cy="0" r="1" gradientUnits="userSpaceOnUse" gradientTransform="translate(1096.24 1770.25) rotate(31.2979) scale(1872.17 1695.72)">
<stop stop-color="#1C35F8"/>
<stop offset="1" stop-color="white" stop-opacity="0"/>
</radialGradient>
<radialGradient id="paint1_radial" cx="0" cy="0" r="1" gradientUnits="userSpaceOnUse" gradientTransform="translate(270.24 1748.25) rotate(31.2979) scale(1872.17 1695.72)">
<stop stop-color="#1C35F8"/>
<stop offset="1" stop-color="white" stop-opacity="0"/>
</radialGradient>
</defs>
</svg>
