<svg width="32" height="23" viewBox="0 0 32 23" fill="none" xmlns="http://www.w3.org/2000/svg">
<path fill-rule="evenodd" clip-rule="evenodd" d="M22.6158 15.8497L21.2832 13.2513L23.8036 11.0915C22.8331 8.70822 22.9978 5.63662 25.6219 5.63662C27.691 5.63662 29.8501 7.63964 27.691 11.7728C26.8449 13.3925 26.0755 16.2345 27.6144 19.3122C26.9414 16.1715 28.2138 14.13 29.4013 12.2247C30.2503 10.8625 31.0559 9.5699 31.0763 7.99501C31.1214 4.61895 28.3267 2 24.8436 2C17.9965 2.38472 19.8536 10.4637 19.8536 10.4637L15.9119 14.3109L12.1568 10.4638C12.1568 10.4638 14.0803 2.38475 7.23319 2.00003C3.75013 2.00003 0.955402 4.61899 1.00054 7.99504C1.02092 9.56994 1.82654 10.8625 2.67553 12.2247C3.86306 14.1301 5.13545 16.1716 4.46245 19.3123C6.00131 16.2345 5.23188 13.3925 4.38581 11.7728C2.22676 7.63967 4.38581 5.63665 6.45493 5.63665C9.07904 5.63665 9.24368 8.70825 8.27324 11.0916L10.7722 13.2329L9.46381 15.8498L12.7737 20.4664L15.9119 22L19.4689 20.4663L22.6158 15.8497ZM15.2391 15.4651L11.7767 12.3874L14.3026 15.8816L15.2391 15.4651ZM20.2004 12.4028L16.7379 15.4805L17.7738 15.8816L20.2004 12.4028Z" fill="#131831"/>
</svg>
