<svg width="47" height="31" viewBox="0 0 47 31" fill="none" xmlns="http://www.w3.org/2000/svg">
<path fill-rule="evenodd" clip-rule="evenodd" d="M33.5044 21.467L31.4389 17.4394L35.3456 14.0919C33.8414 10.3977 34.0966 5.63676 38.1639 5.63676C41.3711 5.63676 44.7176 8.74144 41.3711 15.1478C40.0597 17.6583 38.867 22.0635 41.2523 26.834C40.2091 21.9659 42.1813 18.8015 44.022 15.8482C45.3379 13.7369 46.5866 11.7333 46.6182 9.29227C46.6882 4.05938 42.3564 0 36.9576 0C26.3445 0.59631 29.2231 13.1187 29.2231 13.1187L23.1134 19.0818L17.293 13.1189C17.293 13.1189 20.2745 0.596361 9.66145 5.09984e-05C4.2627 5.09984e-05 -0.0691265 4.05943 0.000835668 9.29232C0.0324322 11.7334 1.28114 13.7369 2.59707 15.8483C4.43774 18.8016 6.40995 21.9659 5.36679 26.834C7.75203 22.0635 6.55941 17.6584 5.248 15.1479C1.90148 8.74149 5.248 5.63681 8.45514 5.63681C12.5225 5.63681 12.7777 10.3978 11.2735 14.0919L15.1469 17.411L13.1189 21.4672L18.2493 28.6229L23.1134 31L28.6268 28.6228L33.5044 21.467ZM22.0732 20.8709L16.7065 16.1004L20.6217 21.5164L22.0732 20.8709ZM29.7577 16.1245L24.3909 20.895L25.9965 21.5168L29.7577 16.1245Z" fill="white"/>
</svg>
