<svg width="314" height="59" viewBox="0 0 314 59" fill="none" xmlns="http://www.w3.org/2000/svg">
<path d="M58.875 0H0V58.2419H58.875V0Z" fill="#00B67A"/>
<path d="M122.656 0H63.7812V58.2419H122.656V0Z" fill="#00B67A"/>
<path d="M186.438 0H127.562V58.2419H186.438V0Z" fill="#00B67A"/>
<path d="M250.219 0H191.344V58.2419H250.219V0Z" fill="#00B67A"/>
<path d="M314 0H284.562V58.2419H314V0Z" fill="#DCDCE6"/>
<path d="M284.562 0H255.125V58.2419H284.562V0Z" fill="#00B67A"/>
<path d="M29.4383 39.2524L38.3922 37.0077L42.1332 48.4134L29.4383 39.2524ZM50.0445 24.5099H34.2832L29.4383 9.82812L24.5934 24.5099H8.83203L21.5883 33.6102L16.7434 48.2921L29.4996 39.1918L37.3496 33.6102L50.0445 24.5099Z" fill="white"/>
<path d="M93.2195 39.2524L102.173 37.0077L105.914 48.4134L93.2195 39.2524ZM113.826 24.5099H98.0645L93.2195 9.82812L88.3746 24.5099H72.6133L85.3695 33.6102L80.5246 48.2921L93.2809 39.1918L101.131 33.6102L113.826 24.5099Z" fill="white"/>
<path d="M157.001 39.2524L165.955 37.0077L169.696 48.4134L157.001 39.2524ZM177.607 24.5099H161.846L157.001 9.82812L152.156 24.5099H136.395L149.151 33.6102L144.306 48.2921L157.062 39.1918L164.912 33.6102L177.607 24.5099Z" fill="white"/>
<path d="M220.782 39.2524L229.736 37.0077L233.477 48.4134L220.782 39.2524ZM241.388 24.5099H225.627L220.782 9.82812L215.937 24.5099H200.176L212.932 33.6102L208.087 48.2921L220.843 39.1918L228.693 33.6102L241.388 24.5099Z" fill="white"/>
<path d="M284.563 39.2524L293.517 37.0077L297.258 48.4134L284.563 39.2524ZM305.17 24.5099H289.408L284.563 9.82812L279.718 24.5099H263.957L276.713 33.6102L271.868 48.2921L284.625 39.1918L292.475 33.6102L305.17 24.5099Z" fill="white"/>
</svg>
