<?xml version="1.0" encoding="UTF-8"?>
<!DOCTYPE svg PUBLIC "-//W3C//DTD SVG 1.1//EN" "http://www.w3.org/Graphics/SVG/1.1/DTD/svg11.dtd">
<!-- Creator: CorelDRAW 2018 (64-Bit) -->
<svg xmlns="http://www.w3.org/2000/svg" xml:space="preserve" width="85mm" height="85mm" version="1.1" style="shape-rendering:geometricPrecision; text-rendering:geometricPrecision; image-rendering:optimizeQuality; fill-rule:evenodd; clip-rule:evenodd"
viewBox="0 0 8500 8500"
 xmlns:xlink="http://www.w3.org/1999/xlink">
 <g id="Слой_x0020_1">
  <metadata id="CorelCorpID_0Corel-Layer"/>
  <g id="_1796000003184">
   <circle class="fil0 str0" cx="4259.38" cy="4264.36" r="3689.89"/>
   <ellipse class="fil0 str0" cx="4259.38" cy="4264.36" rx="4095.25" ry="4063.61"/>
  </g>
  <path class="fil1" d="M3204.21 4347.91c606.78,0 1012.47,-493.89 1012.47,-1234.72 0,-740.84 -409.22,-1234.73 -1008.94,-1234.73 -592.67,0 -1016,479.78 -1016,1234.73 0,730.25 398.64,1234.72 1012.47,1234.72zm0 -246.94c-430.39,0 -712.61,-402.17 -712.61,-987.78 0,-606.78 299.86,-987.78 716.14,-987.78 423.33,0 709.08,398.64 709.08,987.78 0,592.66 -289.28,987.78 -712.61,987.78zm-3.53 -123.48c366.89,0 564.45,-310.44 564.45,-864.3 0,-575.03 -201.09,-864.31 -564.45,-864.31 -335.14,0 -557.39,282.22 -557.39,864.31 0,571.5 197.56,864.3 557.39,864.3zm0 -250.47c-165.8,0 -261.05,-208.14 -261.05,-613.83 0,-416.28 109.36,-613.84 261.05,-613.84 165.81,0 264.59,208.14 264.59,613.84 0,395.11 -91.73,613.83 -264.59,613.83zm2028.48 620.89c518.58,0 829.02,-310.44 829.02,-723.19 0,-250.48 -112.88,-458.62 -349.25,-571.51 176.39,-116.41 282.23,-271.63 282.23,-497.41 0,-416.28 -292.81,-677.34 -814.92,-677.34 -225.78,0 -426.86,42.34 -610.31,127l0 208.14c172.86,-77.61 352.78,-127 550.34,-127 388.05,0 599.72,176.39 599.72,497.42 0,239.89 -127,384.53 -370.42,472.72l3.53 31.75c243.42,59.97 426.86,215.2 426.86,515.06 0,321.03 -222.25,536.22 -596.19,536.22 -179.92,0 -416.28,-52.92 -663.23,-165.8l0 225.77c211.67,98.78 462.14,148.17 712.62,148.17zm-91.73 -338.67c321.03,0 486.84,-151.69 486.84,-412.75 0,-271.64 -208.14,-448.03 -553.86,-476.25l0 -91.72c331.61,-24.69 500.94,-194.03 500.94,-426.86 0,-246.95 -165.8,-391.58 -479.78,-391.58 -197.55,0 -366.89,38.8 -525.64,109.36l0 218.72c155.23,-81.14 310.45,-116.42 451.56,-116.42 204.61,0 296.33,77.61 296.33,208.14 0,151.7 -172.86,211.67 -497.41,211.67l0 465.66c356.3,-3.52 525.64,95.25 525.64,268.12 0,165.8 -116.42,225.77 -243.42,225.77 -183.45,0 -381,-70.55 -582.09,-183.44l0 232.83c215.2,102.31 444.5,158.75 620.89,158.75zm-2962.2 2470.78l1639.14 0 0 -1154.85 -145.63 0 0 1036.32 -1347.89 0 0 -1036.32 -145.62 0 0 1154.85zm218.44 -187.96l563.87 0 0 -966.89 -143.93 0 0 848.36 -274.32 0 0 -848.36 -145.62 0 0 966.89zm638.38 0l563.88 0 0 -966.89 -145.63 0 0 848.36 -274.32 0 0 -848.36 -143.93 0 0 966.89zm887.31 187.96l160.87 0 447.04 -1036.32 187.96 0 469.05 1036.32 160.86 0 -531.7 -1156.54 -382.69 0 -511.39 1156.54zm404.71 -396.24l609.59 0 -248.91 -572.34 -123.62 0 -237.06 572.34zm194.73 -118.53l104.99 -276.02 116.84 276.02 -221.83 0zm-362.37 514.77l162.56 0 88.05 -211.67 448.73 0 86.36 211.67 162.56 0 -142.24 -330.2 -667.17 0 -138.85 330.2zm1293.7 0l145.62 0 0 -1036.32 736.6 0 0 -118.53 -882.22 0 0 1154.85zm220.13 0l143.93 0 0 -850.05 518.16 0 0 -118.53 -662.09 0 0 968.58z"/>
 </g>
</svg>
