<svg width="627" height="312" viewBox="0 0 627 312" fill="none" xmlns="http://www.w3.org/2000/svg">
<path fill-rule="evenodd" clip-rule="evenodd" d="M576.177 301.946L346.738 72.5079L397.56 21.6865L626.998 251.125L576.177 301.946Z" fill="#F65F18"/>
<path fill-rule="evenodd" clip-rule="evenodd" d="M626.998 72.5073L397.56 301.946L346.738 251.124L576.177 21.6859L626.998 72.5073Z" fill="#F65F18"/>
<path fill-rule="evenodd" clip-rule="evenodd" d="M156 253.108C209.632 253.108 253.108 209.632 253.108 156C253.108 102.368 209.632 58.8916 156 58.8916C102.368 58.8916 58.8916 102.368 58.8916 156C58.8916 209.632 102.368 253.108 156 253.108ZM156 312C242.156 312 312 242.156 312 156C312 69.8436 242.156 0 156 0C69.8436 0 0 69.8436 0 156C0 242.156 69.8436 312 156 312Z" fill="#F65F18"/>
</svg>
