<svg width="670" height="334" viewBox="0 0 670 334" fill="none" xmlns="http://www.w3.org/2000/svg">
<path fill-rule="evenodd" clip-rule="evenodd" d="M615.642 322.558L370.605 77.5207L424.882 23.2441L669.919 268.281L615.642 322.558Z" fill="#F65F18"/>
<path fill-rule="evenodd" clip-rule="evenodd" d="M669.919 77.5195L424.882 322.557L370.605 268.28L615.642 23.243L669.919 77.5195Z" fill="#F65F18"/>
<path fill-rule="evenodd" clip-rule="evenodd" d="M167 270.956C224.413 270.956 270.956 224.413 270.956 167C270.956 109.587 224.413 63.0442 167 63.0442C109.587 63.0442 63.0442 109.587 63.0442 167C63.0442 224.413 109.587 270.956 167 270.956ZM167 334C259.232 334 334 259.232 334 167C334 74.7684 259.232 0 167 0C74.7684 0 0 74.7684 0 167C0 259.232 74.7684 334 167 334Z" fill="#F65F18"/>
</svg>
