<svg width="29" height="34" viewBox="0 0 29 34" fill="none" xmlns="http://www.w3.org/2000/svg">
<path d="M25.6028 0H3.3973C1.52465 0 0 1.56397 0 3.50202V26.486C0 28.4241 1.52454 29.988 3.39719 29.988H22.1892L21.3108 26.843L23.432 28.866L25.4371 30.77L29 34V3.50202C29 1.56397 27.4755 0 25.6028 0ZM19.2063 22.2021C19.2063 22.2021 18.6097 21.471 18.1125 20.825C20.2835 20.196 21.112 18.802 21.112 18.802C20.4325 19.2611 19.7863 19.5841 19.2063 19.8049C18.3777 20.162 17.5823 20.3999 16.8035 20.536C15.2125 20.842 13.7543 20.757 12.5115 20.519C11.5668 20.3319 10.7548 20.06 10.0755 19.7881C9.69427 19.635 9.28 19.448 8.86562 19.21C8.816 19.176 8.76627 19.159 8.71654 19.125C8.68346 19.108 8.66681 19.091 8.65027 19.0741C8.352 18.9041 8.18627 18.7851 8.18627 18.7851C8.18627 18.7851 8.98173 20.1451 11.0863 20.791C10.5892 21.4371 9.976 22.202 9.976 22.202C6.31362 22.083 4.92173 19.6181 4.92173 19.6181C4.92173 14.1441 7.308 9.707 7.308 9.707C9.69427 7.87098 11.9645 7.92199 11.9645 7.92199L12.1303 8.12606C9.14746 9.00985 7.772 10.353 7.772 10.353C7.772 10.353 8.13654 10.1491 8.74962 9.86005C10.5228 9.06098 11.9315 8.84006 12.5115 8.78905C12.6108 8.77196 12.6937 8.755 12.7932 8.755C13.9037 8.60659 15.0275 8.5952 16.1407 8.72106C17.7148 8.90805 19.4052 9.38405 21.1285 10.353C21.1285 10.353 19.8195 9.07806 17.0023 8.19405L17.2343 7.92211C17.2343 7.92211 19.5045 7.87098 21.8908 9.70711C21.8908 9.70711 24.2772 14.1441 24.2772 19.6181C24.2772 19.6181 22.8685 22.083 19.2063 22.202V22.2021ZM11.5005 14.2631C10.556 14.2631 9.81038 15.113 9.81038 16.15C9.81038 17.187 10.5725 18.037 11.5005 18.037C12.4452 18.037 13.1908 17.187 13.1908 16.15C13.2075 15.113 12.4452 14.2631 11.5007 14.2631H11.5005ZM17.5492 14.2631C16.6045 14.2631 15.8588 15.113 15.8588 16.15C15.8588 17.187 16.6212 18.037 17.5492 18.037C18.4937 18.037 19.2393 17.187 19.2393 16.15C19.2393 15.113 18.4937 14.2631 17.5492 14.2631Z" fill="#232427"/>
</svg>
