<svg width="59" height="28" viewBox="0 0 59 28" fill="none" xmlns="http://www.w3.org/2000/svg">
<path d="M48.4788 16.26C48.4788 14.44 47.4788 13.4 45.7988 12.9C47.2388 12.4 48.2388 11.48 48.2388 9.76C48.2388 7.8 46.7388 6.22 43.7188 6.22C41.9788 6.22 40.6188 6.72 39.5788 7.46L39.8988 9.58C40.9188 8.84 42.0988 8.38 43.4388 8.38C44.9388 8.38 45.6788 9.02 45.6788 10.04C45.6788 11.24 44.7788 11.96 42.6988 11.96H41.5588L41.8788 13.96H42.5988C44.9588 13.96 45.9188 14.74 45.9188 16.16C45.9188 17.44 44.9588 18.1 43.4188 18.1C42.0388 18.1 40.8388 17.7 39.7188 17L39.3588 19.2C40.4388 19.84 41.9388 20.26 43.5188 20.26C46.4588 20.26 48.4788 18.76 48.4788 16.26Z" fill="#6C6F76"/>
<path d="M14.6988 5.59985H11.3186L7.375 10.7332H13.0087L14.6988 5.59985Z" fill="#BDDDF4"/>
<path d="M27.6563 10.7332L23.7127 5.59985H20.3325L22.0226 10.7332H27.6563Z" fill="#5DADEC"/>
<path d="M22.0226 10.7332H27.6562L17.5156 22.7109L22.0226 10.7332Z" fill="#4289C1"/>
<path d="M13.0087 10.7332H7.375L17.5156 22.711L13.0087 10.7332ZM14.6988 5.59985L13.0087 10.7332H22.0226L20.3325 5.59985H14.6988Z" fill="#8CCAF7"/>
<path d="M17.5156 22.7109L13.0087 10.7332H22.0226L17.5156 22.7109Z" fill="#5DADEC"/>
</svg>
