<svg width="59" height="28" viewBox="0 0 59 28" fill="none" xmlns="http://www.w3.org/2000/svg">
<path d="M48.4788 16.26C48.4788 14.44 47.4788 13.4 45.7988 12.9C47.2388 12.4 48.2388 11.48 48.2388 9.76C48.2388 7.8 46.7388 6.22 43.7188 6.22C41.9788 6.22 40.6188 6.72 39.5788 7.46L39.8988 9.58C40.9188 8.84 42.0988 8.38 43.4388 8.38C44.9388 8.38 45.6788 9.02 45.6788 10.04C45.6788 11.24 44.7788 11.96 42.6988 11.96H41.5588L41.8788 13.96H42.5988C44.9588 13.96 45.9188 14.74 45.9188 16.16C45.9188 17.44 44.9588 18.1 43.4188 18.1C42.0388 18.1 40.8388 17.7 39.7188 17L39.3588 19.2C40.4388 19.84 41.9388 20.26 43.5188 20.26C46.4588 20.26 48.4788 18.76 48.4788 16.26Z" fill="#6C6F76"/>
<path d="M19.983 15.6452L19.0134 11.7325L16.7898 6.7041C16.507 5.96433 16.8704 5.13216 17.6011 4.8464C18.3312 4.55779 19.1537 4.92796 19.4365 5.66773L22.9311 14.6619L19.983 15.6452Z" fill="#EF9645"/>
<path d="M24.6865 14.2261C24.4115 12.754 23.5665 10.5056 23.5665 10.5056L20.3063 4.52294C19.9536 3.81454 19.0995 3.53049 18.4004 3.88697C17.7007 4.24403 17.419 5.10814 17.7723 5.81654L20.775 11.2619C20.7823 11.2744 21.571 14.3938 21.571 14.3938C20.9637 13.8262 20.1023 13.0483 19.3091 12.3302C17.5638 10.7491 16.5283 10.1565 16.5283 10.1565C16.1283 9.90381 15.8641 9.86788 15.3272 10.1228L12.0191 11.5875C11.9307 11.632 11.8558 11.6948 11.7966 11.7752L10.4935 13.5354C9.99045 14.1439 10.0699 15.0497 10.671 15.5585C11.2715 16.0678 12.1656 15.9862 12.6698 15.3794C12.6969 15.3463 13.6726 13.9192 13.7605 13.8736C14.3447 13.5696 15.4309 13.0483 15.9058 13.0637C16.4112 13.0802 19.4443 16.4614 19.4443 16.4614C19.5604 16.6091 19.5739 16.8138 19.4781 16.9758L17.8359 19.9577C17.7914 20.0324 17.7272 20.0923 17.65 20.1306L16.1436 20.9861C16.0568 21.0289 15.9588 21.0426 15.8641 21.0243L12.8952 19.7284C12.7476 19.664 12.6248 19.5459 12.5617 19.3959C12.1183 18.3407 12.0558 17.3317 12.0552 17.3203C12.0186 16.5275 11.3544 15.9155 10.5713 15.9526C9.78989 15.9845 9.18371 16.6616 9.22033 17.4544C9.22765 17.6044 9.41807 20.6713 11.8834 22.7543C13.3076 23.9566 15.0686 24.422 17.3193 24.1157C19.9176 23.7627 21.5271 23.4125 23.8014 18.6641C24.4307 17.3494 24.8735 15.2282 24.6865 14.2261Z" fill="#FFDC5D"/>
</svg>
