<svg width="59" height="28" viewBox="0 0 59 28" fill="none" xmlns="http://www.w3.org/2000/svg">
<path d="M48.7388 20L48.4188 17.88H42.7388L46.0188 14.62C47.6788 12.98 48.4988 11.84 48.4988 10.08C48.4988 7.72 46.8588 6.24 44.1388 6.24C42.3588 6.24 40.9588 6.86 39.8988 7.68L40.2188 9.96C41.3188 9.08 42.5388 8.46 43.8587 8.46C45.1988 8.46 45.9588 9.1 45.9588 10.34C45.9588 11.32 45.4388 12.08 44.3988 13.18L39.5588 18.12V20H48.7388Z" fill="#6C6F76"/>
<path d="M27.5267 11.2283C27.5267 8.11975 25.0377 5.59985 21.9679 5.59985C20.1043 5.59985 18.4598 6.53127 17.4508 7.95491C16.4418 6.53127 14.7974 5.59985 12.9343 5.59985C9.86396 5.59985 7.375 8.11918 7.375 11.2283C7.375 11.6686 7.43021 12.0952 7.52486 12.5065C8.29667 17.362 13.6289 22.4845 17.4508 23.8911C21.2722 22.4845 26.605 17.362 27.3757 12.507C27.4715 12.0958 27.5267 11.6692 27.5267 11.2283Z" fill="#DD2E44"/>
</svg>
