<svg width="59" height="28" viewBox="0 0 59 28" fill="none" xmlns="http://www.w3.org/2000/svg">
<path d="M50.2588 17.12V15.26H48.2388V6.46H45.3188L39.3188 15.42V17.12H45.8388V20H48.2388V17.12H50.2588ZM45.8388 15.26H41.6788L45.8388 9.06V15.26Z" fill="#6C6F76"/>
<path d="M7.39038 13.4296L11.8973 9.43701L20.9112 10.0074L21.4746 19.1333L17.531 23.6963C17.531 23.6963 17.5316 20.2746 14.1508 16.8518C10.77 13.429 7.39038 13.4296 7.39038 13.4296Z" fill="#A0041E"/>
<path d="M7.37501 23.6957C7.37501 23.6957 7.35473 19.1447 9.05666 17.4216C10.7586 15.6985 15.2774 15.8172 15.2774 15.8172C15.2774 15.8172 15.2768 20.2735 13.5867 21.9846C11.8966 23.6957 7.37501 23.6957 7.37501 23.6957Z" fill="#FFAC33"/>
<path d="M11.8965 21.4145C13.1411 21.4145 14.15 20.3931 14.15 19.133C14.15 17.873 13.1411 16.8516 11.8965 16.8516C10.652 16.8516 9.64307 17.873 9.64307 19.133C9.64307 20.3931 10.652 21.4145 11.8965 21.4145Z" fill="#FFCC4D"/>
<path d="M27.1078 3.73315C27.1078 3.73315 21.4741 3.73315 14.7137 9.43686C11.3335 12.2887 11.3335 17.422 12.4603 18.5628C13.587 19.7035 18.6573 19.7035 21.4741 16.2813C27.1078 9.43686 27.1078 3.73315 27.1078 3.73315Z" fill="#55ACEE"/>
<path d="M22.0373 6.58521C21.123 6.58521 20.3399 7.13903 19.9861 7.93128C20.2689 7.80181 20.5804 7.72595 20.9106 7.72595C22.1551 7.72595 23.164 8.74748 23.164 10.0074C23.164 10.3417 23.0891 10.6571 22.9618 10.9428C23.7443 10.5852 24.2908 9.7924 24.2908 8.86669C24.2908 7.60674 23.2818 6.58521 22.0373 6.58521Z" fill="black"/>
<path d="M11.3337 19.7032C11.3337 19.7032 11.3337 17.4217 11.8971 16.8513C12.4605 16.281 19.2215 10.5778 19.7843 11.1476C20.3471 11.7174 14.7134 18.5624 14.15 19.1328C13.5866 19.7032 11.3337 19.7032 11.3337 19.7032Z" fill="#A0041E"/>
</svg>
