<svg width="59" height="28" viewBox="0 0 59 28" fill="none" xmlns="http://www.w3.org/2000/svg">
<path d="M48.7388 20L48.4188 17.88H42.7388L46.0188 14.62C47.6788 12.98 48.4988 11.84 48.4988 10.08C48.4988 7.72 46.8588 6.24 44.1388 6.24C42.3588 6.24 40.9588 6.86 39.8988 7.68L40.2188 9.96C41.3188 9.08 42.5388 8.46 43.8587 8.46C45.1988 8.46 45.9588 9.1 45.9588 10.34C45.9588 11.32 45.4388 12.08 44.3988 13.18L39.5588 18.12V20H48.7388Z" fill="#6C6F76"/>
<path d="M20.3579 5.42446C19.5799 5.42446 18.9495 6.06271 18.9495 6.85039V6.85324L17.5411 3.99854C16.7631 3.99854 16.1326 4.63678 16.1326 5.42446V6.15739L14.7242 5.28187C13.9462 5.28187 13.3158 5.92011 13.3158 6.70779V8.72405L12.7524 14H20.3816L20.3579 5.42446Z" fill="#EF9645"/>
<path d="M26.4847 12.984C25.7067 12.6355 24.5952 13.1026 23.8087 14.232C23.2921 14.9734 23.14 16.0292 22.4617 16.1393C22.2025 16.1809 21.7665 15.9608 21.7665 15.3425V6.29982C21.7665 6.29982 21.7665 5.15908 20.6398 5.15908C19.513 5.15908 19.513 6.29982 19.513 6.29982V12.9349C19.513 12.9184 18.9497 12.8984 18.9497 12.8882V4.87389C18.9497 4.87389 18.9497 3.73315 17.8229 3.73315C16.6962 3.73315 16.6962 4.87389 16.6962 4.87389V12.8893C16.6962 12.899 16.1328 12.9127 16.1328 12.9287V6.15723C16.1328 6.15723 16.1328 5.01649 15.0061 5.01649C13.8793 5.01649 13.8793 6.15723 13.8793 6.15723V13.3656C13.8793 13.4329 13.316 13.5087 13.316 13.5926V8.72389C13.316 8.72389 13.316 7.58315 12.1892 7.58315C11.0625 7.58315 11.0625 8.72389 11.0625 8.72389V17.422C11.0625 21.2019 14.0895 24.2665 17.8229 24.2665C20.513 24.2665 22.3637 22.7847 23.398 21.2481C24.2752 19.9448 24.5298 18.5913 24.5833 18.1823C24.5833 18.1823 24.6526 17.3388 25.2346 16.5482C26.0622 15.4252 26.643 14.7481 26.9951 14.3432C27.1737 14.139 27.3472 13.3701 26.4847 12.984Z" fill="#FFDC5D"/>
<path d="M22.014 15.9794C21.8467 15.8277 21.8044 15.6646 21.7791 15.5186C20.7132 15.6663 19.2681 15.9686 18.1583 17.0671C16.7183 18.4925 16.4727 20.033 16.4845 21.0637C16.4941 21.8947 16.942 22.2883 17.0732 21.0568C17.2378 19.5134 18.3431 16.458 22.0219 16.1631C22.0376 16.1619 22.2399 16.1494 22.3548 16.1431C22.3548 16.1431 22.1565 16.1089 22.014 15.9794Z" fill="#EF9645"/>
</svg>
