<svg width="59" height="28" viewBox="0 0 59 28" fill="none" xmlns="http://www.w3.org/2000/svg">
<path d="M45.0388 12.08C43.0988 11.3 42.3788 10.78 42.3788 9.76C42.3788 8.8 43.1188 8.06 44.4988 8.06C45.8588 8.06 46.6588 8.72 46.6588 9.76C46.6588 10.7 46.0388 11.46 45.0388 12.08ZM43.9188 13.72C46.2388 14.68 47.0188 15.18 47.0188 16.42C47.0188 17.6 45.9788 18.36 44.5388 18.36C43.0588 18.36 41.9588 17.6 41.9588 16.32C41.9588 15.24 42.7388 14.36 43.9188 13.72ZM42.1388 12.92C40.5588 13.76 39.5188 14.98 39.5188 16.5C39.5188 18.54 41.2388 20.26 44.4988 20.26C47.5788 20.26 49.4788 18.62 49.4788 16.44C49.4788 14.64 48.5388 13.7 46.8388 12.88C48.1388 12.1 49.0388 11.04 49.0388 9.64C49.0388 7.68 47.3388 6.22 44.5788 6.22C41.8788 6.22 39.9988 7.64 39.9988 9.8C39.9988 11.3 40.8388 12.22 42.1388 12.92Z" fill="#6C6F76"/>
<path d="M27.0701 3.90329C26.6904 3.19261 22.899 4.86608 21.4365 6.01366C21.4365 6.01366 19.183 5.44443 17.4929 5.44443C15.8028 5.44443 13.5493 6.01366 13.5493 6.01366C12.0868 4.86608 8.29535 3.19261 7.91564 3.90329C6.7889 6.01366 8.479 11.147 8.479 11.147C7.9731 12.1714 7.7517 13.0452 7.56466 14.5618C7.76353 14.5065 7.99282 14.4723 8.27732 14.4723C11.0953 14.4723 12.7037 19.1179 12.4192 22.985C14.4175 23.9239 16.6242 24.2655 17.4929 24.2655C18.3655 24.2655 20.5897 23.9204 22.5959 22.9708C22.3159 19.1065 23.9237 14.4723 26.7383 14.4723C27.0087 14.4723 27.2273 14.5053 27.42 14.555C27.2335 13.0423 27.0121 12.1697 26.5068 11.147C26.5068 11.147 28.1969 6.01366 27.0701 3.90329Z" fill="#FFCC4D"/>
<path d="M17.4928 12.2878C19.1829 12.2878 19.1829 12.573 19.1829 13.1434C19.1829 13.7138 18.3379 14.8545 17.4928 14.8545C16.6478 14.8545 15.8027 13.7138 15.8027 13.1434C15.8027 12.573 15.8022 12.2878 17.4928 12.2878Z" fill="#E75A70"/>
<path d="M8.47903 5.44323C8.73086 4.67779 11.6564 6.0136 12.2198 6.58397C12.2198 6.58397 9.60577 8.29508 9.0424 10.0062C9.0424 10.0062 7.91566 7.15434 8.47903 5.44323ZM26.5068 5.44323C26.255 4.67779 23.3294 6.0136 22.766 6.58397C22.766 6.58397 25.3801 8.29508 25.9434 10.0062C25.9434 10.0062 27.0702 7.15434 26.5068 5.44323Z" fill="#F18F26"/>
<path d="M10.1318 6.92776C10.1318 6.12125 13.5492 7.72457 12.9859 8.29494C12.4225 8.86531 11.8591 9.20924 11.2958 9.77961C10.7324 10.35 10.1318 7.49813 10.1318 6.92776ZM24.8538 6.92776C24.8538 6.12125 21.4364 7.72457 21.9998 8.29494C22.5631 8.86531 23.1265 9.20924 23.6899 9.77961C24.2532 10.35 24.8538 7.49813 24.8538 6.92776Z" fill="#FFCC4D"/>
<path d="M13.5713 15.9965C12.5566 15.9166 11.662 15.9873 10.8885 16.1299C11.0001 16.2965 11.106 16.4722 11.2068 16.657C11.8874 16.5469 12.6637 16.4978 13.5279 16.5646C13.6856 16.5879 13.8186 16.4596 13.8304 16.3022C13.8417 16.1453 13.7262 16.0079 13.5713 15.9965ZM12.8271 14.7742C10.5725 14.0612 8.66039 14.3338 7.9021 14.4958C8.01815 14.4821 8.13928 14.4719 8.2773 14.4719C8.77814 14.4719 9.24066 14.6202 9.6615 14.8837C10.4964 14.8717 11.5353 14.9635 12.6592 15.3194C12.6868 15.3286 12.7155 15.332 12.7431 15.332C12.8631 15.332 12.9741 15.2538 13.0118 15.1318C13.0586 14.9818 12.9758 14.8215 12.8271 14.7742ZM24.1243 16.1351C23.3446 15.9891 22.4409 15.916 21.415 15.9965C21.2601 16.0079 21.1441 16.1453 21.1559 16.3022C21.1677 16.459 21.3007 16.5879 21.4584 16.5646C22.3339 16.4973 23.1204 16.5474 23.8077 16.6609C23.9074 16.4767 24.0127 16.301 24.1243 16.1351ZM25.3541 14.8837C25.775 14.6202 26.2375 14.4719 26.7389 14.4719C26.8606 14.4719 26.9659 14.4821 27.0707 14.493C26.304 14.331 24.4009 14.0652 22.1593 14.7742C22.0105 14.8215 21.9277 14.9812 21.9745 15.1318C22.0122 15.2538 22.1232 15.332 22.2432 15.332C22.2708 15.332 22.2995 15.328 22.3271 15.3194C23.464 14.959 24.5147 14.8688 25.3541 14.8837Z" fill="#FEE7B8"/>
<path d="M17.4927 15.71C16.2483 15.71 15.2393 16.7315 15.2393 17.9914V21.4137C15.2393 22.6736 16.2483 23.6951 17.4927 23.6951C18.7372 23.6951 19.7462 22.6736 19.7462 21.4137V17.9914C19.7462 16.7315 18.7372 15.71 17.4927 15.71Z" fill="#292F33"/>
<path d="M11.4913 9.81479C10.9584 11.6263 11.5516 13.4041 12.8164 13.7857C14.0817 14.1679 15.5397 13.0089 16.0721 11.1974C16.6056 9.38645 16.0123 7.60803 14.7481 7.22645C13.4834 6.84488 12.0248 8.00444 11.4913 9.81479ZM23.4939 9.81479C24.0268 11.6263 23.4336 13.4041 22.1688 13.7857C20.9035 14.1679 19.4455 13.0089 18.9131 11.1974C18.3802 9.38645 18.9734 7.60803 20.2376 7.22645C21.5024 6.84488 22.9604 8.00444 23.4939 9.81479Z" fill="#F5F8FA"/>
<path d="M27.4944 14.674C27.3175 14.6072 27.1051 14.5696 26.8425 14.5696C24.2279 14.5696 22.8623 20.2744 23.5339 24.2659H27.1732C26.0995 20.2476 28.1062 16.2299 27.4944 14.674ZM8.14322 14.5696C7.88182 14.5696 7.66999 14.6072 7.49366 14.674L7.49309 14.6819C6.88353 16.2465 8.88574 20.2767 7.81309 24.2659H11.4524C12.1229 20.2961 10.7567 14.5696 8.14322 14.5696Z" fill="#FCAB40"/>
</svg>
