<svg width="59" height="28" viewBox="0 0 59 28" fill="none" xmlns="http://www.w3.org/2000/svg">
<path d="M45.0388 12.08C43.0988 11.3 42.3788 10.78 42.3788 9.76C42.3788 8.8 43.1188 8.06 44.4988 8.06C45.8588 8.06 46.6588 8.72 46.6588 9.76C46.6588 10.7 46.0388 11.46 45.0388 12.08ZM43.9188 13.72C46.2388 14.68 47.0188 15.18 47.0188 16.42C47.0188 17.6 45.9788 18.36 44.5388 18.36C43.0588 18.36 41.9588 17.6 41.9588 16.32C41.9588 15.24 42.7388 14.36 43.9188 13.72ZM42.1388 12.92C40.5588 13.76 39.5188 14.98 39.5188 16.5C39.5188 18.54 41.2388 20.26 44.4988 20.26C47.5788 20.26 49.4788 18.62 49.4788 16.44C49.4788 14.64 48.5388 13.7 46.8388 12.88C48.1388 12.1 49.0388 11.04 49.0388 9.64C49.0388 7.68 47.3388 6.22 44.5788 6.22C41.8788 6.22 39.9988 7.64 39.9988 9.8C39.9988 11.3 40.8388 12.22 42.1388 12.92Z" fill="#6C6F76"/>
<path d="M27.5267 11.2283C27.5267 8.11975 25.0377 5.59985 21.9679 5.59985C20.1043 5.59985 18.4598 6.53127 17.4508 7.95491C16.4418 6.53127 14.7974 5.59985 12.9343 5.59985C9.86396 5.59985 7.375 8.11918 7.375 11.2283C7.375 11.6686 7.43021 12.0952 7.52486 12.5065C8.29667 17.362 13.6289 22.4845 17.4508 23.8911C21.2722 22.4845 26.605 17.362 27.3757 12.507C27.4715 12.0958 27.5267 11.6692 27.5267 11.2283Z" fill="#DD2E44"/>
</svg>
