<svg width="59" height="28" viewBox="0 0 59 28" fill="none" xmlns="http://www.w3.org/2000/svg">
<path d="M48.5988 8.46V6.48H39.3588L39.6788 8.68H45.8788L40.9188 19.66L43.3788 20.14L48.5988 8.46Z" fill="#6C6F76"/>
<path d="M7.39035 13.4296L11.8973 9.43701L20.9112 10.0074L21.4746 19.1333L17.531 23.6963C17.531 23.6963 17.5315 20.2746 14.1508 16.8518C10.77 13.429 7.39035 13.4296 7.39035 13.4296Z" fill="#A0041E"/>
<path d="M7.37501 23.6957C7.37501 23.6957 7.35473 19.1447 9.05666 17.4216C10.7586 15.6985 15.2774 15.8172 15.2774 15.8172C15.2774 15.8172 15.2768 20.2735 13.5867 21.9846C11.8966 23.6957 7.37501 23.6957 7.37501 23.6957Z" fill="#FFAC33"/>
<path d="M11.8965 21.4145C13.141 21.4145 14.15 20.3931 14.15 19.133C14.15 17.873 13.141 16.8516 11.8965 16.8516C10.6519 16.8516 9.64301 17.873 9.64301 19.133C9.64301 20.3931 10.6519 21.4145 11.8965 21.4145Z" fill="#FFCC4D"/>
<path d="M27.1077 3.73315C27.1077 3.73315 21.474 3.73315 14.7136 9.43686C11.3334 12.2887 11.3334 17.422 12.4602 18.5628C13.5869 19.7035 18.6572 19.7035 21.474 16.2813C27.1077 9.43686 27.1077 3.73315 27.1077 3.73315Z" fill="#55ACEE"/>
<path d="M22.0374 6.58521C21.123 6.58521 20.34 7.13903 19.9862 7.93128C20.269 7.80181 20.5805 7.72595 20.9107 7.72595C22.1551 7.72595 23.1641 8.74748 23.1641 10.0074C23.1641 10.3417 23.0892 10.6571 22.9619 10.9428C23.7444 10.5852 24.2909 9.7924 24.2909 8.86669C24.2909 7.60674 23.2819 6.58521 22.0374 6.58521Z" fill="black"/>
<path d="M11.3337 19.7032C11.3337 19.7032 11.3337 17.4217 11.8971 16.8513C12.4604 16.281 19.2214 10.5778 19.7842 11.1476C20.347 11.7174 14.7133 18.5624 14.15 19.1328C13.5866 19.7032 11.3337 19.7032 11.3337 19.7032Z" fill="#A0041E"/>
</svg>
