<svg width="59" height="28" viewBox="0 0 59 28" fill="none" xmlns="http://www.w3.org/2000/svg">
<path d="M45.0388 12.08C43.0988 11.3 42.3788 10.78 42.3788 9.76C42.3788 8.8 43.1188 8.06 44.4988 8.06C45.8588 8.06 46.6588 8.72 46.6588 9.76C46.6588 10.7 46.0388 11.46 45.0388 12.08ZM43.9188 13.72C46.2388 14.68 47.0188 15.18 47.0188 16.42C47.0188 17.6 45.9788 18.36 44.5388 18.36C43.0588 18.36 41.9588 17.6 41.9588 16.32C41.9588 15.24 42.7388 14.36 43.9188 13.72ZM42.1388 12.92C40.5588 13.76 39.5188 14.98 39.5188 16.5C39.5188 18.54 41.2388 20.26 44.4988 20.26C47.5788 20.26 49.4788 18.62 49.4788 16.44C49.4788 14.64 48.5388 13.7 46.8388 12.88C48.1388 12.1 49.0388 11.04 49.0388 9.64C49.0388 7.68 47.3388 6.22 44.5788 6.22C41.8788 6.22 39.9988 7.64 39.9988 9.8C39.9988 11.3 40.8388 12.22 42.1388 12.92Z" fill="#6C6F76"/>
<path d="M27.6562 13.9998C27.6562 19.6699 23.1161 24.2665 17.5156 24.2665C11.9157 24.2665 7.375 19.6699 7.375 13.9998C7.375 8.33034 11.9157 3.73315 17.5156 3.73315C23.1161 3.73315 27.6562 8.33034 27.6562 13.9998Z" fill="#FFCC4D"/>
<path d="M16.3889 13.9998C16.1529 13.9998 15.9332 13.8487 15.8543 13.6097C15.7399 13.268 15.2813 12.2887 14.6988 12.2887C14.1005 12.2887 13.6352 13.3308 13.5433 13.6097C13.4448 13.908 13.1276 14.0705 12.8307 13.9701C12.5355 13.8709 12.376 13.5475 12.4746 13.2486C12.5451 13.0342 13.2093 11.1479 14.6988 11.1479C16.1884 11.1479 16.8526 13.0342 16.9236 13.2492C17.0221 13.5481 16.8627 13.8715 16.5675 13.9707C16.5078 13.9901 16.4475 13.9998 16.3889 13.9998ZM22.0226 13.9998C21.7865 13.9998 21.5668 13.8487 21.4885 13.6097C21.3742 13.268 20.9145 12.2887 20.3325 12.2887C19.7342 12.2887 19.2683 13.3308 19.1765 13.6097C19.0779 13.908 18.7618 14.0705 18.4638 13.9701C18.1692 13.8709 18.0092 13.5475 18.1078 13.2486C18.1787 13.0342 18.8424 11.1479 20.3325 11.1479C21.8226 11.1479 22.4863 13.0342 22.5567 13.2492C22.6553 13.5481 22.4958 13.8715 22.2006 13.9707C22.1415 13.9901 22.0812 13.9998 22.0226 13.9998ZM17.5157 16.2813C15.4746 16.2813 14.1202 16.0406 12.4453 15.7109C12.0628 15.6362 11.3186 15.7109 11.3186 16.8517C11.3186 19.1331 13.9073 21.985 17.5157 21.985C21.1235 21.985 23.7127 19.1331 23.7127 16.8517C23.7127 15.7109 22.9685 15.6356 22.586 15.7109C20.9111 16.0406 19.5567 16.2813 17.5157 16.2813Z" fill="#664500"/>
<path d="M12.4453 16.8516C12.4453 16.8516 14.1354 17.4219 17.5156 17.4219C20.8958 17.4219 22.5859 16.8516 22.5859 16.8516C22.5859 16.8516 21.8288 20.7016 17.5156 20.7016C13.2025 20.7016 12.4453 16.8516 12.4453 16.8516Z" fill="white"/>
<path d="M17.5155 19.4718C15.4896 19.4718 13.982 19.2596 13.044 19.0468L12.5793 17.9797C13.0429 18.1576 14.7702 18.4913 17.516 18.4913C20.307 18.4913 22.0438 18.14 22.5097 17.9563L22.1148 19.0069C21.1943 19.2237 19.6253 19.4718 17.5155 19.4718Z" fill="#664500"/>
</svg>
