<svg width="59" height="28" viewBox="0 0 59 28" fill="none" xmlns="http://www.w3.org/2000/svg">
<path d="M42.0788 12.6C42.6988 10.18 44.8188 8.96 47.4588 8.34L47.1388 6.2C42.7588 7.18 39.5788 9.78 39.5788 14.54C39.5788 18.28 41.6587 20.26 44.5987 20.26C47.3788 20.26 49.4388 18.4 49.4388 15.68C49.4388 13.04 47.7788 11.56 45.4388 11.56C44.1188 11.56 43.0588 11.96 42.0788 12.6ZM41.9388 14.52C42.7788 13.9 43.6588 13.54 44.6388 13.54C46.2588 13.54 46.9988 14.36 46.9988 15.82C46.9988 17.34 46.0388 18.26 44.6388 18.26C43.0588 18.26 41.9588 16.92 41.9388 14.52Z" fill="#6C6F76"/>
<path d="M17.5412 23.6961H16.4314C12.7695 23.6961 9.21857 20.8545 9.21857 16.8767C9.21857 14.6038 10.0507 13.4671 10.0507 13.4671C10.0507 13.4671 9.77348 12.3303 9.77348 11.1941C9.77348 7.78446 13.3244 4.94287 16.9863 4.94287C20.6482 4.94287 24.1991 8.35255 24.1991 11.1941C24.1991 12.3309 23.9219 13.4671 23.9219 13.4671C23.9219 13.4671 24.754 14.6038 24.754 16.8767C24.754 20.8545 21.2031 23.6961 17.5412 23.6961Z" fill="#BF6952"/>
<path d="M23.5592 12.5049C23.5592 10.3335 21.8201 8.57275 19.6753 8.57275C18.6309 8.57275 17.6844 8.99255 16.9864 9.67129C16.2884 8.99198 15.3419 8.57275 14.2974 8.57275C12.1527 8.57275 10.4136 10.3335 10.4136 12.5049C10.4136 13.8219 11.0558 14.9849 12.0372 15.6984C11.7617 16.3897 11.6085 17.1506 11.6085 17.9491C11.6085 21.1232 14.0163 23.091 16.9858 23.091C19.9553 23.091 22.3632 21.1232 22.3632 17.9491C22.3632 17.15 22.2099 16.3897 21.9345 15.6984C22.917 14.9849 23.5592 13.8219 23.5592 12.5049Z" fill="#D79E84"/>
<path d="M14.1696 15.1405C14.7919 15.1405 15.2963 14.3744 15.2963 13.4294C15.2963 12.4844 14.7919 11.7183 14.1696 11.7183C13.5473 11.7183 13.0428 12.4844 13.0428 13.4294C13.0428 14.3744 13.5473 15.1405 14.1696 15.1405Z" fill="#292F33"/>
<path d="M19.8032 15.1405C20.4255 15.1405 20.93 14.3744 20.93 13.4294C20.93 12.4844 20.4255 11.7183 19.8032 11.7183C19.181 11.7183 18.6765 12.4844 18.6765 13.4294C18.6765 14.3744 19.181 15.1405 19.8032 15.1405Z" fill="#292F33"/>
<path d="M16.9864 21.6998C18.516 21.6998 19.8185 20.9126 20.3075 19.8124C20.5097 19.3572 20.1666 18.8479 19.6557 18.8479H14.3172C13.8062 18.8479 13.4631 19.3572 13.6654 19.8124C14.1544 20.9126 15.4569 21.6998 16.9864 21.6998Z" fill="#642116"/>
<path d="M16.1414 16.8864C16.4525 16.8864 16.7047 16.6154 16.7047 16.2812C16.7047 15.947 16.4525 15.676 16.1414 15.676C15.8302 15.676 15.578 15.947 15.578 16.2812C15.578 16.6154 15.8302 16.8864 16.1414 16.8864Z" fill="#642116"/>
<path d="M17.8314 16.8514C18.1426 16.8514 18.3948 16.5961 18.3948 16.2811C18.3948 15.9661 18.1426 15.7107 17.8314 15.7107C17.5203 15.7107 17.2681 15.9661 17.2681 16.2811C17.2681 16.5961 17.5203 16.8514 17.8314 16.8514Z" fill="#642116"/>
<path d="M19.3762 3.83002C19.3762 3.83002 16.3887 3.22485 15.1937 5.03977C13.9988 6.85469 17.5836 5.64493 17.5836 5.64493C17.5836 5.64493 18.1813 3.83002 19.3762 3.83002Z" fill="#BF6952"/>
<path d="M11.916 21.9833C11.9865 22.3591 12.9194 22.7869 12.9194 22.7869L12.4794 14.5679L11.3527 17.422C11.3527 17.422 11.8456 21.6068 11.916 21.9833ZM22.0567 21.9833C21.9507 22.3951 21.0708 22.7692 21.0708 22.7692L21.4938 14.5679L22.62 17.422C22.62 17.422 22.1626 21.5715 22.0567 21.9833Z" fill="#9B3C07"/>
<path d="M7.97253 24.2666H12.4795L11.9094 15.2359L9.65757 12.8586L7.97253 24.2666ZM26.0003 24.2666H21.4934L22.0579 15.2359L24.3096 12.8586L26.0003 24.2666Z" fill="#BF6952"/>
<path d="M24.0894 12.319C24.0894 12.319 24.2021 10.9067 24.7637 10.2987C25.4972 9.50418 26.3806 10.1196 26.3124 11.2341C26.0646 15.2758 25.188 16.3863 24.0488 17.0496C22.9103 17.7135 21.3509 17.5892 19.7008 15.9819C18.0507 14.3746 17.3583 13.3844 17.1611 12.6754C16.9639 11.9659 17.6997 11.3898 18.3273 11.7509C18.8918 12.0754 19.7413 13.0673 19.7413 13.0673C19.7413 13.0673 18.6444 11.5296 18.4889 10.9352C18.2737 10.1133 19.2337 9.62282 19.7548 10.0757C20.2686 10.5223 21.3278 11.8758 21.3278 11.8758C21.3278 11.8758 20.423 10.4704 20.3396 9.79336C20.2574 9.12488 21.0376 8.53398 21.7272 9.1169C22.4162 9.70039 23.5238 11.3818 24.0894 12.319ZM9.8835 12.319C9.8835 12.319 9.77083 10.9067 9.20915 10.2987C8.47565 9.50418 7.59229 10.1196 7.66045 11.2341C7.90834 15.2758 8.78494 16.3863 9.92407 17.0496C11.0626 17.7135 12.622 17.5892 14.2721 15.9819C15.9222 14.3746 16.6146 13.3844 16.8118 12.6754C17.009 11.9659 16.2732 11.3898 15.6456 11.7509C15.0811 12.0754 14.2316 13.0673 14.2316 13.0673C14.2316 13.0673 15.3285 11.5296 15.4839 10.9352C15.6992 10.1133 14.7392 9.62282 14.2181 10.0757C13.7043 10.5223 12.6451 11.8758 12.6451 11.8758C12.6451 11.8758 13.5499 10.4704 13.6333 9.79336C13.7155 9.12488 12.9353 8.53398 12.2457 9.1169C11.5561 9.69982 10.4491 11.3818 9.8835 12.319Z" fill="#D79E84"/>
<path d="M22.6664 17.7139C21.6354 17.7139 20.5402 17.1954 19.5053 16.1876C17.9307 14.6544 17.1239 13.5947 16.8901 12.7528C16.7679 12.3131 16.9093 11.8665 17.2597 11.5887C17.5932 11.324 18.027 11.2807 18.4067 11.4706C18.3183 11.2949 18.2501 11.1352 18.2169 11.0086C18.0896 10.5232 18.2676 10.0584 18.6805 9.79602C19.0895 9.53593 19.5949 9.56102 19.9385 9.8599C19.9859 9.90153 20.0377 9.94945 20.0918 10.0031C20.0771 9.94203 20.0658 9.88385 20.0591 9.8291C20.0044 9.38649 20.232 8.94331 20.6247 8.726C21.0343 8.50013 21.5131 8.56573 21.9064 8.89825C22.5373 9.43212 23.4173 10.7297 23.9289 11.5282C24.0342 11.0525 24.2235 10.4651 24.557 10.1034C24.9407 9.68765 25.4224 9.54905 25.8483 9.73442C26.3435 9.95059 26.6358 10.5461 26.5925 11.251C26.3468 15.2613 25.4905 16.5378 24.188 17.297C23.7108 17.5764 23.1965 17.7139 22.6664 17.7139ZM17.9217 11.9246C17.8107 11.9246 17.7014 11.9623 17.6067 12.0376C17.4372 12.1722 17.3718 12.3815 17.4315 12.5982C17.6315 13.3169 18.4372 14.3567 19.8951 15.7763C21.2889 17.1327 22.7131 17.4972 23.908 16.8024C24.8421 16.2577 25.7756 15.3777 26.0308 11.2162C26.0629 10.6909 25.8505 10.3567 25.6252 10.2586C25.4252 10.1696 25.1908 10.254 24.9688 10.4936C24.5649 10.9316 24.3993 11.9765 24.37 12.3421C24.3598 12.4653 24.2731 12.568 24.1542 12.5965C24.0359 12.6256 23.9125 12.5726 23.8489 12.4676C23.3063 11.5693 22.2112 9.89868 21.5458 9.3363C21.2529 9.08876 21.0123 9.16119 20.8951 9.22679C20.703 9.33288 20.592 9.54619 20.6185 9.75837C20.6805 10.2603 21.3216 11.3446 21.5638 11.7204C21.6461 11.8482 21.6145 12.0182 21.4923 12.1077C21.3712 12.1967 21.2005 12.1733 21.107 12.0535C21.0962 12.0404 20.0585 10.716 19.5706 10.2928C19.3943 10.1388 19.1397 10.1776 18.9791 10.2791C18.8833 10.3401 18.6704 10.5187 18.7605 10.8626C18.8771 11.3081 19.6721 12.4853 19.969 12.9011C20.0568 13.0249 20.0337 13.1971 19.9154 13.2918C19.7977 13.3854 19.6264 13.3705 19.5278 13.2553C19.3008 12.9895 18.6163 12.2458 18.1881 11.9999C18.1019 11.9492 18.0112 11.9246 17.9217 11.9246Z" fill="#BF6952"/>
<path d="M11.3065 17.7139C10.7758 17.7139 10.262 17.5764 9.78313 17.2975C8.48119 16.5384 7.62487 15.2624 7.37924 11.2516C7.33586 10.5466 7.62825 9.95116 8.12401 9.73499C8.54654 9.55019 9.03047 9.68765 9.41469 10.104C9.7482 10.4651 9.93806 11.0525 10.0434 11.5288C10.5549 10.7309 11.4338 9.43326 12.0659 8.89882C12.4597 8.56516 12.9386 8.50013 13.347 8.72657C13.7402 8.94331 13.9678 9.38706 13.9126 9.82967C13.9059 9.88442 13.8946 9.9426 13.8799 10.0036C13.9346 9.95002 13.9859 9.90153 14.0337 9.86047C14.3763 9.56273 14.8827 9.53707 15.2912 9.79659C15.7047 10.059 15.8827 10.5238 15.756 11.0092C15.7227 11.1358 15.6546 11.2955 15.5667 11.4718C15.9453 11.2824 16.3796 11.3252 16.7126 11.5898C17.0635 11.8676 17.2049 12.3142 17.0827 12.754C16.8483 13.597 16.0416 14.6561 14.467 16.1887C13.4326 17.1954 12.3374 17.7139 11.3065 17.7139ZM8.50992 10.2244C8.45358 10.2244 8.3995 10.2358 8.34654 10.2586C8.12176 10.3567 7.90937 10.6909 7.94148 11.2162C8.19669 15.3777 9.13019 16.2577 10.0643 16.8024C11.2592 17.4989 12.6828 17.1338 14.0766 15.7763C15.5346 14.3573 16.3402 13.3175 16.5402 12.5982C16.6004 12.3815 16.5351 12.1716 16.3655 12.0376C16.1948 11.9018 15.9774 11.887 15.7841 11.9988C15.3554 12.2458 14.6715 12.9884 14.4439 13.2542C14.3447 13.3694 14.1735 13.3848 14.0563 13.2907C13.9385 13.196 13.9149 13.0237 14.0028 12.9C14.2991 12.4842 15.0946 11.3069 15.2117 10.8615C15.3019 10.5175 15.0884 10.339 14.9926 10.278C14.8326 10.1759 14.5791 10.1365 14.4016 10.2917C13.9143 10.7155 12.8766 12.0393 12.8664 12.0524C12.7729 12.171 12.6034 12.1956 12.4811 12.1066C12.3589 12.0176 12.3273 11.8471 12.4096 11.7193C12.6512 11.3434 13.2929 10.2586 13.3543 9.75723C13.3802 9.54505 13.2693 9.33173 13.0777 9.22565C12.9605 9.16119 12.7194 9.08819 12.4276 9.33516C11.8473 9.82567 10.8271 11.3024 10.124 12.4665C10.0603 12.572 9.93862 12.6251 9.81862 12.5954C9.70032 12.5669 9.61299 12.4642 9.60285 12.341C9.57356 11.9754 9.40793 10.9305 9.00399 10.4924C8.83949 10.3162 8.66935 10.2244 8.50992 10.2244Z" fill="#BF6952"/>
<path d="M21.4866 9.29861C21.5069 9.31344 21.5255 9.31858 21.5463 9.33626C22.2117 9.89864 23.3069 11.5693 23.8494 12.4676C23.9001 12.5509 23.9897 12.5874 24.0826 12.5902C24.2043 11.9902 24.2364 11.2881 24.2325 10.6196C24.0933 10.915 23.993 11.2396 23.9294 11.5282C23.4179 10.7297 22.5379 9.43208 21.9069 8.89821C21.5317 8.58052 21.0799 8.51492 20.6838 8.70429C21.0624 8.83319 21.3148 9.05506 21.4866 9.29861ZM10.1235 12.4676C10.8266 11.3029 11.8468 9.82678 12.4271 9.33626C12.466 9.30318 12.5009 9.28949 12.5375 9.26724C12.706 9.03909 12.9493 8.83433 13.3031 8.71056C12.9043 8.5115 12.4457 8.57652 12.0654 8.89878C11.4333 9.43322 10.5539 10.7308 10.0429 11.5288C9.98321 11.2595 9.89251 10.9578 9.768 10.6789C9.76631 11.3297 9.80012 12.0067 9.9173 12.5891C10.0007 12.5777 10.0784 12.5423 10.1235 12.4676Z" fill="#9B3C07"/>
</svg>
