<svg width="59" height="28" viewBox="0 0 59 28" fill="none" xmlns="http://www.w3.org/2000/svg">
<path d="M42.0788 12.6C42.6988 10.18 44.8188 8.96 47.4588 8.34L47.1388 6.2C42.7588 7.18 39.5788 9.78 39.5788 14.54C39.5788 18.28 41.6587 20.26 44.5987 20.26C47.3788 20.26 49.4388 18.4 49.4388 15.68C49.4388 13.04 47.7788 11.56 45.4388 11.56C44.1188 11.56 43.0588 11.96 42.0788 12.6ZM41.9388 14.52C42.7788 13.9 43.6588 13.54 44.6388 13.54C46.2588 13.54 46.9988 14.36 46.9988 15.82C46.9988 17.34 46.0388 18.26 44.6388 18.26C43.0588 18.26 41.9588 16.92 41.9388 14.52Z" fill="#6C6F76"/>
<path d="M7.39038 13.4296L11.8973 9.43701L20.9112 10.0074L21.4746 19.1333L17.531 23.6963C17.531 23.6963 17.5316 20.2746 14.1508 16.8518C10.77 13.429 7.39038 13.4296 7.39038 13.4296Z" fill="#A0041E"/>
<path d="M7.37501 23.6957C7.37501 23.6957 7.35473 19.1447 9.05666 17.4216C10.7586 15.6985 15.2774 15.8172 15.2774 15.8172C15.2774 15.8172 15.2768 20.2735 13.5867 21.9846C11.8966 23.6957 7.37501 23.6957 7.37501 23.6957Z" fill="#FFAC33"/>
<path d="M11.8965 21.4145C13.1411 21.4145 14.15 20.3931 14.15 19.133C14.15 17.873 13.1411 16.8516 11.8965 16.8516C10.652 16.8516 9.64307 17.873 9.64307 19.133C9.64307 20.3931 10.652 21.4145 11.8965 21.4145Z" fill="#FFCC4D"/>
<path d="M27.1077 3.73315C27.1077 3.73315 21.474 3.73315 14.7136 9.43686C11.3334 12.2887 11.3334 17.422 12.4601 18.5628C13.5869 19.7035 18.6572 19.7035 21.474 16.2813C27.1077 9.43686 27.1077 3.73315 27.1077 3.73315Z" fill="#55ACEE"/>
<path d="M22.0374 6.58521C21.1231 6.58521 20.34 7.13903 19.9862 7.93128C20.269 7.80181 20.5806 7.72595 20.9107 7.72595C22.1552 7.72595 23.1642 8.74748 23.1642 10.0074C23.1642 10.3417 23.0892 10.6571 22.9619 10.9428C23.7444 10.5852 24.2909 9.7924 24.2909 8.86669C24.2909 7.60674 23.2819 6.58521 22.0374 6.58521Z" fill="black"/>
<path d="M11.3337 19.7032C11.3337 19.7032 11.3337 17.4217 11.8971 16.8513C12.4605 16.281 19.2215 10.5778 19.7843 11.1476C20.3471 11.7174 14.7134 18.5624 14.15 19.1328C13.5866 19.7032 11.3337 19.7032 11.3337 19.7032Z" fill="#A0041E"/>
</svg>
