<svg width="283" height="75" viewBox="0 0 283 75" fill="none" xmlns="http://www.w3.org/2000/svg">
<path d="M273.793 0H9C4.02944 0 0 4.02942 0 8.99999V65.2931C0 70.2637 4.02944 74.2931 9 74.2931H273.793C278.764 74.2931 282.793 70.2637 282.793 65.2931V9C282.793 4.02944 278.764 0 273.793 0Z" fill="#282B30"/>
<path fill-rule="evenodd" clip-rule="evenodd" d="M37.3965 47.8161L41.4852 23.9653L44.1718 24.4259L40.0831 48.2766L37.3965 47.8161Z" fill="#72767D"/>
<path fill-rule="evenodd" clip-rule="evenodd" d="M47.6191 47.8161L51.7078 23.9653L54.3945 24.4259L50.3058 48.2766L47.6191 47.8161Z" fill="#72767D"/>
<path fill-rule="evenodd" clip-rule="evenodd" d="M57.1384 32.373H35.332V29.6472H57.1384V32.373Z" fill="#72767D"/>
<path fill-rule="evenodd" clip-rule="evenodd" d="M57.1384 43.2762H35.332V40.5504H57.1384V43.2762Z" fill="#72767D"/>
<path d="M103.026 33.2269H100.254L98.1933 40.375L96.059 33.2269H93.4586L91.2997 40.375L89.19 33.0681L86.2461 33.4312L89.7787 44.1874H92.4037L94.6116 36.9258L96.844 44.1874H99.469L103.026 33.2269Z" fill="#DEDEDF"/>
<path d="M114.113 44.1874V36.6762C114.113 34.0439 112.592 33 109.526 33C107.637 33 106.189 33.3858 104.815 33.885L105.183 36.0635C106.459 35.5416 107.759 35.1785 109.133 35.1785C110.433 35.1785 111.169 35.6323 111.169 36.8123V37.13C106.385 37.5612 104.03 38.7185 104.03 41.3735C104.03 43.2797 105.38 44.4143 107.391 44.4143C109.158 44.4143 110.384 43.6881 111.341 42.7577L111.586 44.1874H114.113ZM111.169 41.1693C110.36 41.9181 109.403 42.3493 108.397 42.3493C107.489 42.3493 106.95 41.8727 106.95 41.0785C106.95 40.0346 107.759 39.1043 111.169 38.7185V41.1693Z" fill="#DEDEDF"/>
<path d="M124.17 35.7004L123.704 33C121.864 33.0908 120.686 34.1573 119.901 35.4281L119.533 33.2269H117.031V44.1874H119.975V37.9016C120.809 36.7216 122.33 35.8139 124.17 35.7004Z" fill="#DEDEDF"/>
<path d="M135.067 44.1874L134.674 42.0089H128.86L134.772 35.3146V33.2269H125.573L125.965 35.4054H131.215L125.327 42.0997V44.1874H135.067Z" fill="#DEDEDF"/>
<path d="M147.512 38.7185C147.512 35.1558 145.157 33 141.919 33C138.705 33 136.35 35.1558 136.35 38.7185C136.35 42.2812 138.68 44.4143 141.894 44.4143C145.132 44.4143 147.512 42.2812 147.512 38.7185ZM144.642 38.7185C144.642 40.7608 143.71 42.1904 141.894 42.1904C140.177 42.1904 139.22 40.7154 139.22 38.7185C139.22 36.6762 140.152 35.2465 141.894 35.2465C143.66 35.2465 144.642 36.6989 144.642 38.7185Z" fill="#DEDEDF"/>
<path d="M160.007 44.1874V36.2904C160.007 34.2481 158.83 33 156.622 33C155.027 33 153.776 33.7942 152.672 34.77L152.402 33.2269H149.9V44.1874H152.844V36.7896C153.703 35.95 154.61 35.4054 155.542 35.4054C156.622 35.4054 157.063 36.0635 157.063 37.0166V44.1874H160.007Z" fill="#DEDEDF"/>
<path d="M172.892 38.5823C172.892 35.4735 171.298 33 167.741 33C164.649 33 162.343 35.1558 162.343 38.7185C162.343 42.667 164.821 44.4143 168.133 44.4143C170.047 44.4143 171.592 43.8924 172.868 43.0754L172.524 40.9423C171.224 41.782 169.973 42.3039 168.452 42.3039C166.637 42.3039 165.41 41.3735 165.263 39.2404H172.868C172.868 39.0816 172.892 38.8093 172.892 38.5823ZM170.022 37.5385H165.312C165.533 35.7458 166.489 34.8835 167.667 34.8835C169.09 34.8835 169.826 35.8366 170.022 37.5385Z" fill="#DEDEDF"/>
<path d="M181.306 38.9681V36.3585H174.927V38.9681H181.306Z" fill="#DEDEDF"/>
<path d="M186.495 43.6427C187.083 43.7562 187.451 43.8243 188.261 43.9151L189.856 44.0966C191.327 44.3008 191.843 44.6412 191.843 45.2312C191.843 46.0481 190.641 46.7062 188.531 46.7062C186.298 46.7062 185.244 46.1162 185.244 45.2993C185.244 44.732 185.636 44.2101 186.495 43.6427ZM190.371 36.8123C190.371 37.9923 189.586 38.8773 188.285 38.8773C187.01 38.8773 186.225 38.015 186.225 36.8804C186.225 35.6777 186.985 34.7473 188.285 34.7473C189.537 34.7473 190.371 35.6323 190.371 36.8123ZM191.622 34.0212C190.763 33.3631 189.61 33 188.261 33C185.611 33 183.502 34.4977 183.502 36.8804C183.502 38.3327 184.336 39.4673 185.734 40.08C184.753 40.6247 184.238 41.2147 184.238 41.8274C184.238 42.2585 184.458 42.667 184.925 43.0074C183.453 43.7789 182.692 44.5731 182.692 45.5943C182.692 47.4097 185.121 48.3174 188.335 48.3174C191.769 48.3174 194.566 47.0012 194.566 44.6412C194.566 42.962 193.045 42.2585 190.616 41.9408L189.095 41.8047C187.255 41.555 186.887 41.4643 186.887 41.1012C186.887 40.9197 187.083 40.7154 187.378 40.5112C187.672 40.5566 187.991 40.5793 188.335 40.5793C190.886 40.5793 193.069 39.1723 193.069 36.8123C193.069 36.3131 192.971 35.8139 192.75 35.3827L194.909 35.2465L194.517 33.0681L191.622 34.0212Z" fill="#DEDEDF"/>
<path d="M205.989 44.1874V36.6762C205.989 34.0439 204.468 33 201.402 33C199.513 33 198.065 33.3858 196.691 33.885L197.059 36.0635C198.335 35.5416 199.635 35.1785 201.009 35.1785C202.309 35.1785 203.045 35.6323 203.045 36.8123V37.13C198.261 37.5612 195.906 38.7185 195.906 41.3735C195.906 43.2797 197.256 44.4143 199.267 44.4143C201.034 44.4143 202.26 43.6881 203.217 42.7577L203.462 44.1874H205.989ZM203.045 41.1693C202.236 41.9181 201.279 42.3493 200.273 42.3493C199.365 42.3493 198.826 41.8727 198.826 41.0785C198.826 40.0346 199.635 39.1043 203.045 38.7185V41.1693Z" fill="#DEDEDF"/>
<path d="M219.014 44.1874V36.2904C219.014 34.2481 217.836 33 215.629 33C214.034 33 212.783 33.7942 211.679 34.77L211.409 33.2269H208.907V44.1874H211.851V36.7896C212.709 35.95 213.617 35.4054 214.549 35.4054C215.629 35.4054 216.07 36.0635 216.07 37.0166V44.1874H219.014Z" fill="#DEDEDF"/>
<path d="M224.515 43.6427C225.104 43.7562 225.472 43.8243 226.281 43.9151L227.876 44.0966C229.348 44.3008 229.863 44.6412 229.863 45.2312C229.863 46.0481 228.661 46.7062 226.551 46.7062C224.319 46.7062 223.264 46.1162 223.264 45.2993C223.264 44.732 223.656 44.2101 224.515 43.6427ZM228.391 36.8123C228.391 37.9923 227.606 38.8773 226.306 38.8773C225.03 38.8773 224.245 38.015 224.245 36.8804C224.245 35.6777 225.005 34.7473 226.306 34.7473C227.557 34.7473 228.391 35.6323 228.391 36.8123ZM229.642 34.0212C228.783 33.3631 227.63 33 226.281 33C223.632 33 221.522 34.4977 221.522 36.8804C221.522 38.3327 222.356 39.4673 223.754 40.08C222.773 40.6247 222.258 41.2147 222.258 41.8274C222.258 42.2585 222.479 42.667 222.945 43.0074C221.473 43.7789 220.712 44.5731 220.712 45.5943C220.712 47.4097 223.141 48.3174 226.355 48.3174C229.789 48.3174 232.586 47.0012 232.586 44.6412C232.586 42.962 231.065 42.2585 228.636 41.9408L227.115 41.8047C225.275 41.555 224.907 41.4643 224.907 41.1012C224.907 40.9197 225.104 40.7154 225.398 40.5112C225.692 40.5566 226.011 40.5793 226.355 40.5793C228.906 40.5793 231.089 39.1723 231.089 36.8123C231.089 36.3131 230.991 35.8139 230.77 35.3827L232.929 35.2465L232.537 33.0681L229.642 34.0212Z" fill="#DEDEDF"/>
</svg>
