<svg width="176" height="47" viewBox="0 0 176 47" fill="none" xmlns="http://www.w3.org/2000/svg">
<path d="M4.69036 46.9035L0 38.2174H6.06625L4.69036 46.9035Z" fill="#646672"/>
<path d="M0 3.63975C0 1.62957 1.62957 0 3.63975 0L172.36 2.38419e-07C174.37 2.38419e-07 176 1.62957 176 3.63975V34.5776C176 36.5878 174.37 38.2174 172.36 38.2174H0V3.63975Z" fill="#8E91A7"/>
<path fill-rule="evenodd" clip-rule="evenodd" d="M17.5118 12.7919H20.0989L22.8287 17.3416H29.2611L24.4081 27.0476H13.2025L8.34949 17.3416H14.7819L17.5118 12.7919ZM18.8053 15.3522L16.1558 19.7681H12.2756L14.7021 24.6211H22.9085L25.335 19.7681H21.4548L18.8053 15.3522Z" fill="#727486"/>
<path d="M7.88614 12.7919H10.3126V15.2184H7.88614V12.7919Z" fill="#727486"/>
<path d="M27.2981 12.7919H29.7246V15.2184H27.2981V12.7919Z" fill="#727486"/>
<path d="M36.9054 18.7356H38.0183L37.5844 20.4581H36.4716L36.0189 22.2539H37.1317L36 26.7984H37.641L38.7728 22.2539H39.4518L38.3201 26.7984H39.9611L41.0928 22.2539H42.2057L42.6584 20.4581H41.5455L41.9793 18.7356H43.0922L43.5449 16.9398H42.432L43.3752 13.1649H41.7341L40.791 16.9398H40.112L41.0551 13.1649H39.4141L38.471 16.9398H37.3581L36.9054 18.7356ZM39.2255 20.4581L39.6593 18.7356H40.3383L39.9045 20.4581H39.2255Z" fill="#FBFBFB"/>
<path d="M47.8544 15.2173C48.2127 15.2173 48.3448 15.4372 48.2693 15.8586L48.1373 16.6649C48.043 17.2513 47.9487 17.6728 47.1187 18.7173C46.6849 19.267 45.987 20.1466 45.572 20.6414C43.6669 23.0419 43.4217 23.8665 43.1765 25.4058L42.9502 26.7984H49.1559L49.9292 22.1073H47.5337L47.1565 24.4346H45.4023C45.4589 24.1414 45.5154 23.6283 47.2508 21.8874C47.8355 21.3194 48.4202 20.7513 48.9484 20.1832C50.2876 18.7906 50.4574 18.0393 50.7026 16.4267L50.7969 15.8403C51.0987 13.9895 50.2687 13 48.3825 13H47.8921C46.0247 13 45.308 14.2277 45.1005 15.5471L44.7044 17.9476H47.0056L47.3451 15.8403C47.4205 15.4005 47.5337 15.2173 47.8544 15.2173Z" fill="#FBFBFB"/>
<path d="M57.1137 18.3691L57.9625 13.1649H55.5293L53.3035 26.7984H55.7367L56.6987 20.8979L57.3778 26.7984H59.943L59.0754 19.4503L61.9613 13.1649H59.4903L57.1137 18.3691Z" fill="#FBFBFB"/>
<path d="M65.643 13.1649H63.2097L60.984 26.7984H63.4172L65.643 13.1649Z" fill="#FBFBFB"/>
<path d="M67.1693 13.1649L64.9436 26.7984H69.961L70.3759 24.3429H67.7729L69.6026 13.1649H67.1693Z" fill="#FBFBFB"/>
<path d="M73.5052 13.1649L71.2794 26.7984H76.2968L76.7118 24.3429H74.1088L75.9384 13.1649H73.5052Z" fill="#FBFBFB"/>
<path d="M81.0104 26.9634C82.8212 26.9634 83.8964 25.9188 84.2359 23.8482L84.3491 23.1518C84.5566 21.8141 84.1039 20.8063 83.1419 19.2853L82.3685 18.0759C81.8215 17.1963 81.6895 16.9948 81.8027 16.2251L81.8781 15.7487C81.9347 15.3639 82.0101 15.089 82.444 15.089C82.8967 15.089 82.991 15.3822 82.9155 15.8037L82.6515 17.4346H84.9904L85.2545 15.8037C85.5563 13.8979 84.7829 13 82.8967 13H82.3497C80.6332 13 79.6901 13.7513 79.3883 15.5654L79.294 16.1335C79.0488 17.5262 79.4071 18.534 80.3125 19.8901L81.0482 21.0262C81.6706 21.9791 81.8215 22.3822 81.6706 23.2618L81.5952 23.7016C81.4631 24.4162 81.2368 24.6911 80.8407 24.6911C80.388 24.6911 80.2559 24.4162 80.3503 23.8298L80.7086 21.6126H78.2943L77.8982 24.0314C77.5964 25.9372 78.6715 26.9634 80.4634 26.9634H81.0104Z" fill="#FBFBFB"/>
<path d="M92.4407 13.1649H90.0075L87.7817 26.7984H90.2149L92.4407 13.1649Z" fill="#FBFBFB"/>
<path d="M93.9671 13.1649L91.7413 26.7984H93.9105L95.1554 19.212L95.7967 26.7984H97.8716L100.097 13.1649H97.9282L96.7775 20.2199L96.2494 13.1649H93.9671Z" fill="#FBFBFB"/>
<path d="M104.091 13.1649L103.695 15.5654H105.468L103.639 26.7984H106.072L107.902 15.5654H109.618L110.014 13.1649H104.091Z" fill="#FBFBFB"/>
<path d="M112.467 21.0445H113.769L112.826 26.7984H115.259L117.485 13.1649H115.051L114.203 18.3691H112.901L113.75 13.1649H111.317L109.091 26.7984H111.524L112.467 21.0445Z" fill="#FBFBFB"/>
<path d="M119.016 13.1649L116.79 26.7984H122.109L122.524 24.3429H119.619L120.166 20.9895H122.354L122.769 18.534H120.581L121.072 15.5654H123.807L124.203 13.1649H119.016Z" fill="#FBFBFB"/>
<path d="M132.106 13.1649L129.918 21.7225L130.428 13.1649H127.938L127.598 26.7984H130.409L132.295 19.1571L131.842 26.7984H134.69L138.52 13.1649H136.105L133.974 21.8874L134.426 13.1649H132.106Z" fill="#FBFBFB"/>
<path d="M142.269 15.3822C142.74 15.3822 142.929 15.6754 142.834 16.2801L141.608 23.7932C141.552 24.1414 141.401 24.5628 140.873 24.5628C140.326 24.5628 140.231 24.1597 140.288 23.7932L141.514 16.2801C141.608 15.6937 141.759 15.3822 142.269 15.3822ZM142.061 13C140.024 13 139.288 14.356 138.93 16.4817L137.779 23.555C137.421 25.699 138.477 27 140.59 27H141.099C142.891 27 143.834 25.7173 144.192 23.6466L145.362 16.4634C145.683 14.3927 144.815 13 142.57 13H142.061Z" fill="#FBFBFB"/>
<path d="M148.53 20.9712H149.04C149.549 20.9712 149.7 21.1728 149.568 21.8325L148.926 25.7539C148.832 26.322 148.908 26.6518 148.983 26.7984H151.416L151.435 26.7068C151.36 26.4869 151.303 26.2487 151.397 25.6806L152.152 21.0628C152.303 20.0366 151.68 19.6152 151.341 19.4503C152.001 19.2487 152.567 18.7173 152.737 17.6178L153.095 15.4372C153.34 13.9712 152.548 13.1649 151.039 13.1649H147.38L145.154 26.7984H147.587L148.53 20.9712ZM149.473 15.2723H150.002C150.435 15.2723 150.605 15.5105 150.511 16.0052L150.209 17.911C150.115 18.5524 149.888 18.7173 149.436 18.7173H148.908L149.473 15.2723Z" fill="#FBFBFB"/>
<path d="M154.931 13.1649L152.706 26.7984H157.723L158.138 24.3429H155.535L157.365 13.1649H154.931Z" fill="#FBFBFB"/>
<path d="M159.041 26.7984H162.814C164.832 26.7984 165.379 25.699 165.681 23.7199L166.926 16.0785C167.284 14.0079 166.322 13.1649 164.511 13.1649H161.267L159.041 26.7984ZM163.342 15.3272H163.889C164.323 15.3272 164.474 15.6387 164.379 16.2435L163.191 23.5183C163.059 24.3063 162.927 24.5262 162.342 24.5262H161.833L163.342 15.3272Z" fill="#FBFBFB"/>
</svg>
