<svg width="176" height="47" viewBox="0 0 176 47" fill="none" xmlns="http://www.w3.org/2000/svg">
<path d="M4.69048 46.9035L0.00012207 38.2174H6.06637L4.69048 46.9035Z" fill="#4D4526"/>
<path d="M0.00012207 3.63975C0.00012207 1.62957 1.62969 0 3.63987 0L172.36 2.38419e-07C174.371 2.38419e-07 176 1.62957 176 3.63975V34.5776C176 36.5878 174.371 38.2174 172.36 38.2174H0.00012207V3.63975Z" fill="#CBB765"/>
<path fill-rule="evenodd" clip-rule="evenodd" d="M17.5119 12.7919H20.099L22.8288 17.3416H29.2613L24.4083 27.0476H13.2026L8.34961 17.3416H14.7821L17.5119 12.7919ZM18.8054 15.3522L16.1559 19.7681H12.2758L14.7023 24.6211H22.9086L25.3351 19.7681H21.4549L18.8054 15.3522Z" fill="#A29251"/>
<path d="M7.88623 12.7919H10.3127V15.2184H7.88623V12.7919Z" fill="#A29251"/>
<path d="M27.2982 12.7919H29.7247V15.2184H27.2982V12.7919Z" fill="#A29251"/>
<path d="M36.8712 17.7464H37.942L37.5246 19.4667H36.4538L36.0183 21.2601H37.089L36.0001 25.7987H37.579L38.6679 21.2601H39.3212L38.2323 25.7987H39.8112L40.9001 21.2601H41.9709L42.4064 19.4667H41.3357L41.7531 17.7464H42.8238L43.2594 15.9529H42.1886L43.0961 12.183H41.5172L40.6098 15.9529H39.9564L40.8638 12.183H39.2849L38.3775 15.9529H37.3068L36.8712 17.7464ZM39.1035 19.4667L39.5209 17.7464H40.1742L39.7568 19.4667H39.1035Z" fill="#FBFBFB"/>
<path d="M45.5909 15.7882L44.012 25.7987H46.3531L48.4946 12.183H46.4983C46.2442 13.0248 45.9357 13.702 44.5564 13.702L44.2297 15.7882H45.5909Z" fill="#FBFBFB"/>
<path d="M53.7175 25.9634C55.4598 25.9634 56.4942 24.9203 56.8209 22.8523L56.9298 22.1569C57.1294 20.8209 56.6938 19.8144 55.7683 18.2954L55.0242 17.0876C54.4979 16.2091 54.3709 16.0078 54.4798 15.2392L54.5524 14.7634C54.6068 14.3791 54.6794 14.1046 55.0968 14.1046C55.5324 14.1046 55.6231 14.3974 55.5505 14.8183L55.2964 16.4471H57.5468L57.8009 14.8183C58.0913 12.915 57.3472 12.0183 55.5324 12.0183H55.0061C53.3546 12.0183 52.4472 12.7686 52.1568 14.5804L52.0661 15.1477C51.8301 16.5386 52.175 17.5451 53.0461 18.8993L53.7538 20.034C54.3527 20.9856 54.4979 21.3882 54.3527 22.2667L54.2801 22.7059C54.1531 23.4196 53.9353 23.6941 53.5542 23.6941C53.1187 23.6941 52.9916 23.4196 53.0824 22.834L53.4272 20.6196H51.1042L50.7231 23.0353C50.4327 24.9386 51.4672 25.9634 53.1912 25.9634H53.7175Z" fill="#FBFBFB"/>
<path d="M61.7108 22.7791C61.6201 23.2915 61.493 23.6026 61.0575 23.6026C60.6219 23.6026 60.4404 23.2732 60.513 22.8157L61.729 15.0928C61.8197 14.5621 61.9467 14.3059 62.4004 14.3059C62.8179 14.3059 62.9993 14.5621 62.9267 15.0928L62.5638 17.3255H64.9049L65.2679 15.0013C65.5219 13.4275 65.1227 12 62.7634 12H62.2734C60.1864 12 59.5693 13.4091 59.279 15.0928L58.063 22.8157C57.8271 24.4444 58.3353 26 60.6038 26H61.0756C63.1627 26 63.816 24.481 64.0519 22.8157L64.5238 19.8144H62.1827L61.7108 22.7791Z" fill="#FBFBFB"/>
<path d="M69.7374 14.3974C70.1911 14.3974 70.3726 14.6902 70.2819 15.2941L69.1022 22.7974C69.0478 23.1451 68.9026 23.566 68.3944 23.566C67.8681 23.566 67.7774 23.1634 67.8319 22.7974L69.0115 15.2941C69.1022 14.7085 69.2474 14.3974 69.7374 14.3974ZM69.5378 12.0183C67.5778 12.0183 66.87 13.3725 66.5252 15.4954L65.4181 22.5595C65.0733 24.7007 66.0896 26 68.1222 26H68.6122C70.3363 26 71.2437 24.719 71.5885 22.651L72.7137 15.4771C73.0222 13.4091 72.1874 12.0183 70.0278 12.0183H69.5378Z" fill="#FBFBFB"/>
<path d="M75.7622 19.9791H76.2522C76.7422 19.9791 76.8874 20.1804 76.7603 20.8392L76.1433 24.7556C76.0525 25.3229 76.1251 25.6523 76.1977 25.7987H78.5388L78.557 25.7072C78.4844 25.4876 78.43 25.2497 78.5207 24.6824L79.2466 20.0706C79.3918 19.0458 78.7929 18.6248 78.4662 18.4601C79.1014 18.2588 79.6459 17.7281 79.8092 16.6301L80.154 14.4523C80.39 12.9882 79.6277 12.183 78.1759 12.183H74.6551L72.5137 25.7987H74.8548L75.7622 19.9791ZM76.6696 14.2876H77.1777C77.5951 14.2876 77.7585 14.5255 77.6677 15.0196L77.3774 16.9229C77.2866 17.5634 77.0688 17.7281 76.6333 17.7281H76.1251L76.6696 14.2876Z" fill="#FBFBFB"/>
<path d="M81.9208 12.183L79.7793 25.7987H84.8971L85.2963 23.3464H82.5015L83.0278 19.9974H85.133L85.5323 17.5451H83.4271L83.8989 14.5804H86.5304L86.9115 12.183H81.9208Z" fill="#FBFBFB"/>
<path d="M93.2637 12.183H90.9225L88.7811 25.7987H91.1222L93.2637 12.183Z" fill="#FBFBFB"/>
<path d="M94.7322 12.183L92.5908 25.7987H94.6778L95.8756 18.2222L96.4926 25.7987H98.4889L100.63 12.183H98.5434L97.4363 19.2288L96.9282 12.183H94.7322Z" fill="#FBFBFB"/>
<path d="M104.473 12.183L104.092 14.5804H105.798L104.038 25.7987H106.379L108.139 14.5804H109.791L110.172 12.183H104.473Z" fill="#FBFBFB"/>
<path d="M112.532 20.0523H113.784L112.877 25.7987H115.218L117.359 12.183H115.018L114.202 17.3804H112.949L113.766 12.183H111.425L109.284 25.7987H111.625L112.532 20.0523Z" fill="#FBFBFB"/>
<path d="M118.832 12.183L116.691 25.7987H121.809L122.208 23.3464H119.413L119.939 19.9974H122.045L122.444 17.5451H120.339L120.811 14.5804H123.442L123.823 12.183H118.832Z" fill="#FBFBFB"/>
<path d="M131.428 12.183L129.322 20.7294L129.812 12.183H127.417L127.09 25.7987H129.794L131.609 18.1673L131.173 25.7987H133.914L137.598 12.183H135.275L133.224 20.8941L133.66 12.183H131.428Z" fill="#FBFBFB"/>
<path d="M141.205 14.3974C141.659 14.3974 141.84 14.6902 141.749 15.2941L140.57 22.7974C140.515 23.1451 140.37 23.566 139.862 23.566C139.336 23.566 139.245 23.1634 139.299 22.7974L140.479 15.2941C140.57 14.7085 140.715 14.3974 141.205 14.3974ZM141.005 12.0183C139.045 12.0183 138.338 13.3725 137.993 15.4954L136.886 22.5595C136.541 24.7007 137.557 26 139.59 26H140.08C141.804 26 142.711 24.719 143.056 22.651L144.181 15.4771C144.49 13.4091 143.655 12.0183 141.495 12.0183H141.005Z" fill="#FBFBFB"/>
<path d="M147.23 19.9791H147.72C148.21 19.9791 148.355 20.1804 148.228 20.8392L147.611 24.7556C147.52 25.3229 147.593 25.6523 147.665 25.7987H150.006L150.025 25.7072C149.952 25.4876 149.898 25.2497 149.988 24.6824L150.714 20.0706C150.859 19.0458 150.261 18.6248 149.934 18.4601C150.569 18.2588 151.113 17.7281 151.277 16.6301L151.622 14.4523C151.858 12.9882 151.095 12.183 149.643 12.183H146.123L143.981 25.7987H146.322L147.23 19.9791ZM148.137 14.2876H148.645C149.063 14.2876 149.226 14.5255 149.135 15.0196L148.845 16.9229C148.754 17.5634 148.536 17.7281 148.101 17.7281H147.593L148.137 14.2876Z" fill="#FBFBFB"/>
<path d="M153.388 12.183L151.247 25.7987H156.074L156.474 23.3464H153.969L155.729 12.183H153.388Z" fill="#FBFBFB"/>
<path d="M157.343 25.7987H160.972C162.914 25.7987 163.441 24.7007 163.731 22.7242L164.929 15.0928C165.274 13.0248 164.348 12.183 162.606 12.183H159.484L157.343 25.7987ZM161.481 14.3425H162.007C162.424 14.3425 162.57 14.6536 162.479 15.2575L161.335 22.5229C161.208 23.3098 161.081 23.5294 160.519 23.5294H160.029L161.481 14.3425Z" fill="#FBFBFB"/>
</svg>
