<svg width="168" height="47" viewBox="0 0 168 47" fill="none" xmlns="http://www.w3.org/2000/svg">
<path d="M4.69048 46.9035L0.00012207 38.2174H6.06637L4.69048 46.9035Z" fill="#4D4526"/>
<path d="M0.00012207 3.63975C0.00012207 1.62957 1.62969 8.13286e-07 3.63987 8.13286e-07L164.36 0C166.371 0 168 1.62957 168 3.63975V34.5776C168 36.5878 166.371 38.2174 164.36 38.2174H0.00012207V3.63975Z" fill="#CBB765"/>
<path fill-rule="evenodd" clip-rule="evenodd" d="M17.5119 12.7919H20.099L22.8288 17.3416H29.2613L24.4083 27.0476H13.2026L8.34961 17.3416H14.7821L17.5119 12.7919ZM18.8054 15.3522L16.1559 19.7681H12.2758L14.7023 24.6211H22.9086L25.3351 19.7681H21.4549L18.8054 15.3522Z" fill="#A29251"/>
<path d="M7.88623 12.7919H10.3127V15.2184H7.88623V12.7919Z" fill="#A29251"/>
<path d="M27.2982 12.7919H29.7247V15.2184H27.2982V12.7919Z" fill="#A29251"/>
<path d="M38.3246 18.0791H39.3309L38.9386 19.6824H37.9323L37.523 21.3539H38.5293L37.5059 25.5837H38.9898L40.0131 21.3539H40.6271L39.6038 25.5837H41.0876L42.111 21.3539H43.1173L43.5266 19.6824H42.5203L42.9126 18.0791H43.9189L44.3283 16.4077H43.322L44.1748 12.8942H42.6909L41.8381 16.4077H41.2241L42.0769 12.8942H40.593L39.7402 16.4077H38.7339L38.3246 18.0791ZM40.4225 19.6824L40.8148 18.0791H41.4288L41.0365 19.6824H40.4225Z" fill="#FBFBFB"/>
<path d="M46.5194 16.2542L45.0355 25.5837H47.2357L49.2483 12.8942H47.3722C47.1334 13.6787 46.8435 14.3098 45.5472 14.3098L45.2402 16.2542H46.5194Z" fill="#FBFBFB"/>
<path d="M54.5322 17.738L55.2997 12.8942H53.0995L51.0869 25.5837H53.2871L54.1569 20.0917L54.771 25.5837H57.0906L56.306 18.7443L58.9155 12.8942H56.6812L54.5322 17.738Z" fill="#FBFBFB"/>
<path d="M62.2446 12.8942H60.0444L58.0318 25.5837H60.232L62.2446 12.8942Z" fill="#FBFBFB"/>
<path d="M63.6248 12.8942L61.6122 25.5837H66.1491L66.5243 23.2982H64.1706L65.825 12.8942H63.6248Z" fill="#FBFBFB"/>
<path d="M69.3538 12.8942L67.3412 25.5837H71.8781L72.2533 23.2982H69.8996L71.554 12.8942H69.3538Z" fill="#FBFBFB"/>
<path d="M76.1403 25.7372C77.7777 25.7372 78.7499 24.765 79.0569 22.8377L79.1592 22.1896C79.3468 20.9445 78.9375 20.0064 78.0676 18.5908L77.3683 17.4651C76.8737 16.6464 76.7543 16.4588 76.8567 15.7425L76.9249 15.299C76.9761 14.9409 77.0443 14.685 77.4366 14.685C77.8459 14.685 77.9312 14.9579 77.863 15.3502L77.6242 16.8682H79.7391L79.9779 15.3502C80.2508 13.5764 79.5515 12.7407 77.8459 12.7407H77.3513C75.7992 12.7407 74.9464 13.44 74.6735 15.1285L74.5882 15.6572C74.3665 16.9535 74.6906 17.8915 75.5093 19.1537L76.1744 20.2111C76.7373 21.098 76.8737 21.4733 76.7373 22.2919L76.6691 22.7013C76.5497 23.3664 76.345 23.6223 75.9868 23.6223C75.5775 23.6223 75.4581 23.3664 75.5434 22.8207L75.8674 20.7569H73.6843L73.3261 23.0083C73.0532 24.7821 74.0254 25.7372 75.6457 25.7372H76.1403Z" fill="#FBFBFB"/>
<path d="M86.4759 12.8942H84.2757L82.2631 25.5837H84.4633L86.4759 12.8942Z" fill="#FBFBFB"/>
<path d="M87.8561 12.8942L85.8435 25.5837H87.8049L88.9306 18.5226L89.5105 25.5837H91.3866L93.3992 12.8942H91.4378L90.3974 19.4607L89.9198 12.8942H87.8561Z" fill="#FBFBFB"/>
<path d="M97.0108 12.8942L96.6526 15.1285H98.2559L96.6015 25.5837H98.8017L100.456 15.1285H102.008L102.366 12.8942H97.0108Z" fill="#FBFBFB"/>
<path d="M104.585 20.2282H105.761L104.909 25.5837H107.109L109.121 12.8942H106.921L106.154 17.738H104.977L105.744 12.8942H103.544L101.532 25.5837H103.732L104.585 20.2282Z" fill="#FBFBFB"/>
<path d="M110.506 12.8942L108.493 25.5837H113.303L113.678 23.2982H111.051L111.546 20.177H113.525L113.9 17.8915H111.921L112.365 15.1285H114.838L115.196 12.8942H110.506Z" fill="#FBFBFB"/>
<path d="M122.343 12.8942L120.364 20.8592L120.825 12.8942H118.573L118.266 25.5837H120.808L122.513 18.4714L122.104 25.5837H124.679L128.142 12.8942H125.959L124.031 21.0127L124.441 12.8942H122.343Z" fill="#FBFBFB"/>
<path d="M131.532 14.9579C131.958 14.9579 132.129 15.2308 132.043 15.7937L130.935 22.7866C130.884 23.1106 130.747 23.5029 130.27 23.5029C129.775 23.5029 129.69 23.1277 129.741 22.7866L130.849 15.7937C130.935 15.2479 131.071 14.9579 131.532 14.9579ZM131.344 12.7407C129.502 12.7407 128.837 14.0028 128.513 15.9813L127.472 22.5648C127.148 24.5604 128.103 25.7713 130.014 25.7713H130.474C132.095 25.7713 132.947 24.5774 133.271 22.6501L134.329 15.9642C134.619 14.0369 133.834 12.7407 131.805 12.7407H131.344Z" fill="#FBFBFB"/>
<path d="M137.194 20.16H137.654C138.115 20.16 138.251 20.3476 138.132 20.9616L137.552 24.6115C137.467 25.1403 137.535 25.4473 137.603 25.5837H139.803L139.82 25.4984C139.752 25.2938 139.701 25.072 139.786 24.5433L140.469 20.2452C140.605 19.2901 140.042 18.8978 139.735 18.7443C140.332 18.5567 140.844 18.0621 140.997 17.0387L141.321 15.0091C141.543 13.6446 140.827 12.8942 139.462 12.8942H136.153L134.141 25.5837H136.341L137.194 20.16ZM138.047 14.8556H138.524C138.916 14.8556 139.07 15.0773 138.985 15.5378L138.712 17.3116C138.627 17.9086 138.422 18.0621 138.012 18.0621H137.535L138.047 14.8556Z" fill="#FBFBFB"/>
<path d="M142.982 12.8942L140.969 25.5837H145.506L145.881 23.2982H143.528L145.182 12.8942H142.982Z" fill="#FBFBFB"/>
<path d="M146.698 25.5837H150.109C151.934 25.5837 152.429 24.5604 152.702 22.7183L153.828 15.606C154.152 13.6787 153.282 12.8942 151.644 12.8942H148.711L146.698 25.5837ZM150.587 14.9068H151.082C151.474 14.9068 151.61 15.1967 151.525 15.7595L150.45 22.5307C150.331 23.2641 150.212 23.4688 149.683 23.4688H149.222L150.587 14.9068Z" fill="#FBFBFB"/>
</svg>
