<svg width="244" height="45" viewBox="0 0 244 45" fill="none" xmlns="http://www.w3.org/2000/svg">
<path d="M45.75 0H0V45H45.75V0Z" fill="#00B67A"/>
<path d="M95.3125 0H49.5625V45H95.3125V0Z" fill="#00B67A"/>
<path d="M144.875 0H99.125V45H144.875V0Z" fill="#00B67A"/>
<path d="M194.438 0H148.688V45H194.438V0Z" fill="#00B67A"/>
<path d="M244 0H221.125V45H244V0Z" fill="#DCDCE6"/>
<path d="M221.125 0H198.25V45H221.125V0Z" fill="#00B67A"/>
<path d="M22.875 30.3281L29.8328 28.5938L32.7398 37.4063L22.875 30.3281ZM38.8875 18.9375H26.6398L22.875 7.59375L19.1101 18.9375H6.86249L16.775 25.9688L13.0101 37.3125L22.9226 30.2813L29.0226 25.9688L38.8875 18.9375Z" fill="white"/>
<path d="M72.4375 30.3281L79.3953 28.5938L82.3023 37.4063L72.4375 30.3281ZM88.45 18.9375H76.2023L72.4375 7.59375L68.6726 18.9375H56.425L66.3375 25.9688L62.5726 37.3125L72.4851 30.2813L78.5851 25.9688L88.45 18.9375Z" fill="white"/>
<path d="M122 30.3281L128.958 28.5938L131.865 37.4063L122 30.3281ZM138.012 18.9375H125.765L122 7.59375L118.235 18.9375H105.987L115.9 25.9688L112.135 37.3125L122.048 30.2813L128.148 25.9688L138.012 18.9375Z" fill="white"/>
<path d="M171.562 30.3281L178.52 28.5938L181.427 37.4063L171.562 30.3281ZM187.575 18.9375H175.327L171.562 7.59375L167.798 18.9375H155.55L165.462 25.9688L161.698 37.3125L171.61 30.2813L177.71 25.9688L187.575 18.9375Z" fill="white"/>
<path d="M221.125 30.3281L228.083 28.5938L230.99 37.4063L221.125 30.3281ZM237.138 18.9375H224.89L221.125 7.59375L217.36 18.9375H205.113L215.025 25.9688L211.26 37.3125L221.173 30.2813L227.273 25.9688L237.138 18.9375Z" fill="white"/>
</svg>
