<svg width="40" height="47" viewBox="0 0 40 47" fill="none" xmlns="http://www.w3.org/2000/svg">
<path d="M35.3142 0H4.68594C2.10297 0 0 2.16196 0 4.84103V36.613C0 39.2921 2.10281 41.4541 4.68578 41.4541H30.6058L29.3942 37.1065L32.32 39.903L35.0856 42.535L40 47V4.84103C40 2.16196 37.8972 0 35.3142 0ZM26.4914 30.6912C26.4914 30.6912 25.6686 29.6806 24.9828 28.7875C27.9772 27.918 29.12 25.991 29.12 25.991C28.1828 26.6256 27.2914 27.0722 26.4914 27.3774C25.3486 27.8711 24.2514 28.1999 23.1772 28.388C20.9828 28.811 18.9714 28.6936 17.2572 28.3646C15.9542 28.1059 14.8342 27.73 13.8972 27.3541C13.3714 27.1425 12.8 26.8841 12.2284 26.5551C12.16 26.508 12.0914 26.4845 12.0228 26.4375C11.9772 26.414 11.9542 26.3906 11.9314 26.3671C11.52 26.1321 11.2914 25.9676 11.2914 25.9676C11.2914 25.9676 12.3886 27.8476 15.2914 28.7405C14.6058 29.6337 13.76 30.691 13.76 30.691C8.70844 30.5265 6.78859 27.1191 6.78859 27.1191C6.78859 19.5521 10.08 13.4185 10.08 13.4185C13.3714 10.8805 16.5028 10.951 16.5028 10.951L16.7314 11.2331C12.6172 12.4548 10.72 14.3115 10.72 14.3115C10.72 14.3115 11.2228 14.0296 12.0684 13.6301C14.5142 12.5255 16.4572 12.2201 17.2572 12.1496C17.3942 12.1259 17.5086 12.1025 17.6458 12.1025C19.1775 11.8973 20.7276 11.8816 22.263 12.0556C24.4342 12.3141 26.7658 12.9721 29.1428 14.3115C29.1428 14.3115 27.3372 12.5491 23.4514 11.3271L23.7714 10.9512C23.7714 10.9512 26.9028 10.8805 30.1942 13.4187C30.1942 13.4187 33.4858 19.5521 33.4858 27.1191C33.4858 27.1191 31.5428 30.5265 26.4914 30.691V30.6912ZM15.8628 19.7166C14.56 19.7166 13.5316 20.8915 13.5316 22.325C13.5316 23.7586 14.5828 24.9335 15.8628 24.9335C17.1658 24.9335 18.1942 23.7586 18.1942 22.325C18.2172 20.8915 17.1658 19.7166 15.863 19.7166H15.8628ZM24.2058 19.7166C22.9028 19.7166 21.8742 20.8915 21.8742 22.325C21.8742 23.7586 22.9258 24.9335 24.2058 24.9335C25.5086 24.9335 26.537 23.7586 26.537 22.325C26.537 20.8915 25.5086 19.7166 24.2058 19.7166Z" fill="#FBFBFB"/>
</svg>
