<svg width="41" height="40" viewBox="0 0 41 40" fill="none" xmlns="http://www.w3.org/2000/svg">
<path d="M40.5963 16.9179L40.3906 16.0616H21.42V23.9384H32.7547C31.5779 29.4205 26.1171 32.3062 21.6566 32.3062C18.4111 32.3062 14.9899 30.967 12.7255 28.8143C11.5309 27.6604 10.5799 26.2866 9.92709 24.7717C9.27429 23.2568 8.93248 21.6304 8.92122 19.9857C8.92122 16.6679 10.4411 13.3491 12.6527 11.1661C14.8643 8.98304 18.2045 7.76161 21.5255 7.76161C25.329 7.76161 28.0548 9.74286 29.0741 10.6464L34.7797 5.07857C33.106 3.63571 28.508 0 21.3417 0C15.8127 0 10.5112 2.07768 6.6359 5.86696C2.81155 9.59821 0.832031 14.9938 0.832031 20C0.832031 25.0063 2.70507 30.1321 6.4111 33.8929C10.3711 37.9036 15.9792 40 21.754 40C27.0081 40 31.9883 37.9804 35.5378 34.3161C39.0273 30.7089 40.832 25.7179 40.832 20.4857C40.832 18.283 40.6063 16.975 40.5963 16.9179Z" fill="#FBFBFB"/>
</svg>
